<svg xmlns="http://www.w3.org/2000/svg" xmlns:xlink="http://www.w3.org/1999/xlink" width="767" height="182" fill="none" xmlns:v="https://vecta.io/nano"><path d="M.734 98.05V.95l61.45 58.166L122.697.95v97.1H94.082V59.117l-31.898 30.02-33.774-30.02V98.05H.734z" fill="url(#A)"/><path d="M256.72 1.66H155.396v96.4H256.72V76.995h-73.362V60.217h61.518V38.834h-61.518V21.727h73.362V1.66z" fill="url(#B)"/><path d="M295.54 98.05V.673h65.784s14.145.7 21.12 5.63c8.653 6.106 13.746 13.996 13.282 23.643-.807 16.755-17.8 23.112-17.8 23.112l29.09 44.99h-29.09L343.26 44.956h12.884s13.07 2.247 12.353-12.618c-.56-11.615-12.353-10.6-12.353-10.6h-33.298V98.05H295.54z" fill="url(#C)"/><path d="M464.197 98.05h-30.215L498.727.932l64.745 97.117h-30.215l-34.53-49.638-34.53 49.638z" fill="url(#D)"/><path d="M617.427 98.05H589.37V3.1h28.056v43.163L664.906 3.1h34.53l-47.48 47.48 47.48 47.48h-34.53l-47.48-47.48v47.48z" fill="url(#E)"/><path d="M766.34 98.05h-28.056V.932h28.056V98.05z" fill="url(#F)"/><path d="M303.736 139.613a4.29 4.29 0 0 1-1.686-.337 4.91 4.91 0 0 1-1.37-.927c-.394-.394-.703-.85-.928-1.37-.225-.534-.337-1.096-.337-1.686v-8.64a4.14 4.14 0 0 1 .337-1.665c.225-.534.534-.99.928-1.37a4.36 4.36 0 0 1 1.37-.928c.533-.24 1.095-.358 1.686-.358h14.668a3.94 3.94 0 0 1 1.665.358 4.3 4.3 0 0 1 1.391.928c.394.38.703.836.928 1.37.224.52.337 1.074.337 1.665v3.9h-4.32v-3.9h-14.668v8.64h14.668c.6 0 1.145.112 1.665.337.534.225.998.534 1.39.927a4.31 4.31 0 0 1 .928 1.391c.224.52.337 1.075.337 1.665v8.62c0 .6-.113 1.152-.337 1.686a4.36 4.36 0 0 1-.928 1.37 4.28 4.28 0 0 1-1.391.927c-.52.225-1.075.338-1.665.338h-15.1a4.3 4.3 0 0 1-1.686-.338c-.52-.224-.977-.533-1.37-.927s-.702-.85-.927-1.37c-.225-.534-.337-1.096-.337-1.686v-3.878h4.32v3.878h15.1v-8.62h-14.668zm78.587 8.62c0 .6-.113 1.152-.337 1.686a4.36 4.36 0 0 1-.928 1.37 4.28 4.28 0 0 1-1.391.927c-.52.225-1.075.338-1.665.338h-17.26a4.3 4.3 0 0 1-1.686-.338c-.52-.224-.976-.533-1.37-.927s-.702-.85-.927-1.37c-.225-.534-.337-1.096-.337-1.686v-21.58a4.14 4.14 0 0 1 .337-1.665c.225-.534.534-.99.927-1.37.394-.394.85-.703 1.37-.928a4.08 4.08 0 0 1 1.686-.358h17.26a3.94 3.94 0 0 1 1.665.358 4.3 4.3 0 0 1 1.391.928c.394.38.703.836.928 1.37.224.52.337 1.074.337 1.665v21.58zm-21.582-21.58v21.58h17.26v-21.58h-17.26zm59.577-4.32v25.902h15.533v4.32h-19.853V122.33h4.32zm46.615 0h4.32v25.902h17.26V122.33h4.32v25.902c0 .6-.112 1.152-.337 1.686-.225.52-.534.977-.927 1.37a4.29 4.29 0 0 1-1.391.927c-.52.225-1.075.338-1.665.338h-17.26a4.3 4.3 0 0 1-1.686-.338c-.52-.224-.977-.533-1.37-.927s-.703-.85-.927-1.37a4.3 4.3 0 0 1-.338-1.686V122.33zm56.985 0h24.174v4.32h-9.927v25.902h-4.32v-25.902h-9.927v-4.32zm59.577 0v30.223h-4.32V122.33h4.32zm59.577 25.902a4.3 4.3 0 0 1-.338 1.686 4.36 4.36 0 0 1-.927 1.37 4.28 4.28 0 0 1-1.391.927c-.52.225-1.075.338-1.665.338H621.5a4.3 4.3 0 0 1-1.686-.338c-.52-.224-.977-.533-1.37-.927s-.702-.85-.927-1.37a4.3 4.3 0 0 1-.338-1.686v-21.58a4.14 4.14 0 0 1 .338-1.665c.225-.534.534-.99.927-1.37a4.36 4.36 0 0 1 1.37-.928 4.08 4.08 0 0 1 1.686-.358h17.26a3.94 3.94 0 0 1 1.665.358 4.3 4.3 0 0 1 1.391.928c.393.38.703.836.927 1.37a4.14 4.14 0 0 1 .338 1.665v21.58zm-21.582-21.58v21.58h17.26v-21.58H621.5zm59.577 25.902h-4.32V122.33h4.32l18.167 23.436V122.33h4.32v30.223h-4.32l-18.167-23.437v23.437zm60.462-12.94c-.6 0-1.152-.112-1.686-.337a4.91 4.91 0 0 1-1.37-.927 4.37 4.37 0 0 1-.927-1.37 4.3 4.3 0 0 1-.338-1.686v-8.64a4.14 4.14 0 0 1 .338-1.665c.224-.534.534-.99.927-1.37a4.36 4.36 0 0 1 1.37-.928 4.08 4.08 0 0 1 1.686-.358h14.67a3.94 3.94 0 0 1 1.665.358 4.31 4.31 0 0 1 1.391.928c.393.38.702.836.927 1.37a4.14 4.14 0 0 1 .337 1.665v3.9h-4.32v-3.9h-14.67v8.64h14.67c.6 0 1.145.112 1.665.337.534.225.997.534 1.39.927s.702.857.927 1.39c.225.52.337 1.075.337 1.665v8.62c0 .6-.112 1.152-.337 1.686-.225.52-.534.977-.927 1.37a4.29 4.29 0 0 1-1.391.927c-.52.225-1.075.338-1.665.338h-15.09a4.3 4.3 0 0 1-1.686-.338c-.52-.224-.976-.533-1.37-.927s-.702-.85-.927-1.37c-.225-.534-.337-1.096-.337-1.686v-3.878h4.32v3.878h15.09v-8.62h-14.67z" fill="url(#G)"/><defs><linearGradient id="A" x1=".734" y1="49.5" x2="122.697" y2="49.5" xlink:href="#H"><stop stop-color="#b3812a"/><stop offset="1" stop-color="#cfab52"/></linearGradient><linearGradient id="B" x1="155.396" y1="49.854" x2="256.72" y2="49.854" xlink:href="#H"><stop stop-color="#d8ba60"/><stop offset="1" stop-color="#f0dd82"/></linearGradient><linearGradient id="C" x1="295.539" y1="49.361" x2="407.015" y2="49.361" xlink:href="#H"><stop stop-color="#f6e690"/><stop offset="1" stop-color="#fceea2"/></linearGradient><linearGradient id="D" x1="433.982" y1="49.49" x2="563.472" y2="49.49" xlink:href="#H"><stop stop-color="#f8e997"/><stop offset="1" stop-color="#e1c76c"/></linearGradient><linearGradient id="E" x1="589.371" y1="50.569" x2="699.437" y2="50.569" xlink:href="#H"><stop stop-color="#dabd63"/><stop offset="1" stop-color="#c39940"/></linearGradient><linearGradient id="F" x1="738.283" y1="49.49" x2="766.339" y2="49.49" xlink:href="#H"><stop stop-color="#b88932"/><stop offset="1" stop-color="#b3812a"/></linearGradient><linearGradient id="G" x1="295.537" y1="141.549" x2="766.335" y2="141.549" xlink:href="#H"><stop stop-color="#fff3ad"/><stop offset="1" stop-color="#f9eea9"/></linearGradient><linearGradient id="H" gradientUnits="userSpaceOnUse"/></defs></svg>