<svg width="500" height="335" viewBox="0 0 500 335" fill="none" xmlns="http://www.w3.org/2000/svg">
<g clip-path="url(#clip0)">
<path d="M492.638 130.423C473.703 55.9677 408.278 2.22133 331.483 0.0656094C290.884 -1.07405 248.162 12.3909 217.058 59.5097C161.455 143.74 220.474 201.945 261.621 229.603C281.5 242.992 299.412 259.092 314.839 277.435C342.632 310.416 396.1 351.4 459.779 287.184C505.933 240.641 505.25 180.018 492.638 130.423Z" fill="#F2F2F2"/>
<path d="M428.484 334.278C467.674 334.278 499.444 329.696 499.444 324.043C499.444 318.391 467.674 313.809 428.484 313.809C389.295 313.809 357.525 318.391 357.525 324.043C357.525 329.696 389.295 334.278 428.484 334.278Z" fill="#3F3D56"/>
<path d="M368.442 35.4791H0V259.176H368.442V35.4791Z" fill="#3F3D56"/>
<path d="M5.94967 43.4848C7.41875 43.4848 8.60967 42.2939 8.60967 40.8248C8.60967 39.3557 7.41875 38.1648 5.94967 38.1648C4.4806 38.1648 3.28967 39.3557 3.28967 40.8248C3.28967 42.2939 4.4806 43.4848 5.94967 43.4848Z" fill="#F9A826"/>
<path d="M12.7474 43.4848C14.2165 43.4848 15.4074 42.2939 15.4074 40.8248C15.4074 39.3557 14.2165 38.1648 12.7474 38.1648C11.2783 38.1648 10.0874 39.3557 10.0874 40.8248C10.0874 42.2939 11.2783 43.4848 12.7474 43.4848Z" fill="#F9A826"/>
<path d="M19.5453 43.4848C21.0143 43.4848 22.2053 42.2939 22.2053 40.8248C22.2053 39.3557 21.0143 38.1648 19.5453 38.1648C18.0762 38.1648 16.8853 39.3557 16.8853 40.8248C16.8853 42.2939 18.0762 43.4848 19.5453 43.4848Z" fill="#F9A826"/>
<path d="M68.8773 118.543C86.1371 118.543 100.129 104.551 100.129 87.2913C100.129 70.0314 86.1371 56.0396 68.8773 56.0396C51.6174 56.0396 37.6255 70.0314 37.6255 87.2913C37.6255 104.551 51.6174 118.543 68.8773 118.543Z" fill="#F2F2F2"/>
<path d="M134.465 131.702H3.28967V136.225H134.465V131.702Z" fill="#F9A826"/>
<path d="M134.465 174.879H3.28967V179.402H134.465V174.879Z" fill="#F2F2F2"/>
<path d="M134.465 187.626H3.28967V192.149H134.465V187.626Z" fill="#F2F2F2"/>
<path d="M134.465 200.373H3.28967V204.897H134.465V200.373Z" fill="#F2F2F2"/>
<path d="M134.465 213.121H3.28967V217.644H134.465V213.121Z" fill="#F2F2F2"/>
<path d="M134.465 225.868H3.28967V230.392H134.465V225.868Z" fill="#F2F2F2"/>
<path d="M134.465 238.616H3.28967V243.139H134.465V238.616Z" fill="#F2F2F2"/>
<path d="M364.741 55.6283H155.436V56.4507H364.741V55.6283Z" fill="#F9A826"/>
<path d="M364.741 63.8524H155.436V64.6748H364.741V63.8524Z" fill="#F9A826"/>
<path d="M364.741 72.0767H155.436V72.8991H364.741V72.0767Z" fill="#F9A826"/>
<path d="M364.741 80.3008H155.436V81.1232H364.741V80.3008Z" fill="#F9A826"/>
<path d="M364.741 88.5249H155.436V89.3473H364.741V88.5249Z" fill="#F9A826"/>
<path d="M364.741 96.749H155.436V97.5714H364.741V96.749Z" fill="#F9A826"/>
<path d="M364.741 104.973H155.436V105.796H364.741V104.973Z" fill="#F9A826"/>
<path d="M364.741 113.197H155.436V114.02H364.741V113.197Z" fill="#F9A826"/>
<path d="M364.741 121.422H155.436V122.244H364.741V121.422Z" fill="#F9A826"/>
<path d="M364.741 129.646H155.436V130.468H364.741V129.646Z" fill="#F9A826"/>
<path d="M364.741 137.87H155.436V138.692H364.741V137.87Z" fill="#F9A826"/>
<path d="M173.118 126.356H159.137V129.646H173.118V126.356Z" fill="#F9A826"/>
<path d="M195.735 118.543H181.754V121.833H195.735V118.543Z" fill="#F9A826"/>
<path d="M218.351 102.095H204.37V105.384H218.351V102.095Z" fill="#F9A826"/>
<path d="M240.968 109.908H226.987V113.197H240.968V109.908Z" fill="#F9A826"/>
<path d="M263.584 93.8706H249.603V97.1603H263.584V93.8706Z" fill="#F9A826"/>
<path d="M286.2 109.908H272.219V113.197H286.2V109.908Z" fill="#F9A826"/>
<path d="M308.817 85.6465H294.836V88.9362H308.817V85.6465Z" fill="#F9A826"/>
<path d="M331.433 69.6094H317.452V72.899H331.433V69.6094Z" fill="#F9A826"/>
<path d="M354.05 77.8335H340.069V81.1232H354.05V77.8335Z" fill="#F9A826"/>
<path opacity="0.1" d="M340.069 80.3008V113.403H331.433V71.2544H317.452V113.403H308.817V87.2912H294.836V113.403H263.584V95.5156H249.603V113.403H226.781V121.422H218.351V103.74H204.37V121.422H181.754V129.646H159.137V138.692H181.754H240.967H249.603H263.584H340.069H354.049V129.646V80.3008H340.069Z" fill="#F9A826"/>
<path d="M213.124 168.72C213.062 168.231 212.937 167.751 212.751 167.293C212.728 167.207 212.686 167.126 212.63 167.056C212.573 166.987 212.503 166.93 212.423 166.889C212.316 166.861 212.204 166.86 212.097 166.885L210.424 167.141C210.284 167.148 210.15 167.2 210.042 167.289C209.824 167.519 210.039 167.888 210.032 168.204C210.012 168.381 209.936 168.547 209.817 168.68C209.698 168.812 209.54 168.904 209.366 168.943C209.017 169.014 208.656 169.01 208.308 168.93L205.969 168.567C206.658 168.347 207.271 167.937 207.738 167.386C208.046 167.021 208.21 166.34 207.765 166.167C207.633 166.131 207.495 166.12 207.359 166.135C206.299 166.143 205.465 165.258 204.473 164.885C203.837 164.662 203.148 164.646 202.503 164.838C201.858 165.03 201.29 165.422 200.881 165.956L202.127 166.016C202.244 166.01 202.361 166.041 202.459 166.105C202.732 166.329 202.393 166.76 202.431 167.111C202.481 167.568 203.087 167.665 203.544 167.712C204.001 167.758 204.581 168.129 204.361 168.532C202.064 169.323 199.727 166.986 197.315 167.274C196.712 167.39 196.116 167.544 195.533 167.737C191.892 168.658 188.128 166.2 184.409 166.721C183.582 166.862 182.769 167.076 181.981 167.361C181.46 167.487 180.979 167.738 180.579 168.093C180.384 168.276 180.262 168.522 180.233 168.787C180.203 169.052 180.27 169.319 180.419 169.54C179.459 169.619 178.492 169.528 177.564 169.269C177.815 169.408 178.024 169.613 178.168 169.861C178.313 170.109 178.388 170.392 178.386 170.679C176.887 170.923 175.427 171.368 174.046 172.002C174.304 172.431 174.605 172.832 174.944 173.199L173.046 174.418C173.201 174.468 173.342 174.552 173.46 174.664C173.578 174.776 173.669 174.913 173.726 175.065C173.784 175.217 173.807 175.38 173.793 175.542C173.779 175.704 173.729 175.861 173.646 176.001C174.311 175.705 174.723 174.939 175.434 174.784C175.911 174.734 176.393 174.827 176.816 175.052C177.241 175.277 177.728 175.354 178.201 175.271C178.659 175.136 178.996 174.543 178.706 174.165C180.661 173.594 182.682 173.279 184.719 173.226C184.876 173.206 185.035 173.236 185.174 173.312C185.439 173.496 185.369 173.893 185.355 174.215C185.341 174.538 185.592 174.961 185.88 174.816C185.541 175.11 185.831 175.663 186.156 175.972C186.481 176.281 186.873 176.708 186.674 177.11C186.622 177.215 186.534 177.299 186.484 177.405C186.336 177.717 186.571 178.081 186.847 178.289C187.15 178.456 187.422 178.672 187.654 178.929C187.846 179.216 187.759 179.719 187.415 179.759L186.44 178.521C186.106 178.866 185.878 179.299 185.781 179.77C186.282 180.213 186.595 180.831 186.655 181.498C186.716 182.164 186.519 182.828 186.105 183.354C185.613 183.829 185.069 184.245 184.483 184.596C184.191 184.774 183.944 185.017 183.761 185.306C183.577 185.595 183.463 185.922 183.427 186.262C183.429 187.442 183.333 188.538 183.775 189.632C184.59 191.649 185.531 193.612 186.593 195.511C186.872 196.01 187.232 196.556 187.797 196.642C187.083 194.904 186.441 193.14 185.869 191.348C186.053 191.322 186.241 191.338 186.418 191.395C186.595 191.453 186.756 191.551 186.889 191.681C187.02 191.96 187.087 192.264 187.087 192.573C187.159 192.866 187.278 193.146 187.44 193.401L190.848 199.472C191.074 200.008 191.48 200.449 191.995 200.719C192.357 200.787 192.712 200.885 193.057 201.013C193.306 201.16 193.474 201.421 193.728 201.559C194.446 201.951 195.444 201.2 196.115 201.668C196.287 201.825 196.451 201.992 196.606 202.167C197.226 202.704 198.242 202.344 198.958 202.745C199.385 203.06 199.713 203.491 199.904 203.986C200.52 205.158 201.516 206.305 202.836 206.399C203.251 206.381 203.667 206.396 204.08 206.441C204.485 206.534 204.884 206.887 204.819 207.298C204.708 208.002 205.056 208.773 204.962 209.479C204.792 210.766 202.966 211.332 202.81 212.621C202.81 212.904 202.794 213.188 202.762 213.47C202.68 213.809 202.425 214.084 202.335 214.421C202.164 215.058 202.621 215.693 203.122 216.122C203.624 216.551 204.223 216.921 204.497 217.521C204.787 218.156 204.645 218.896 204.739 219.587C204.945 221.097 206.249 222.216 207.59 222.937C208.02 223.118 208.401 223.396 208.703 223.751C209.048 224.249 209.014 224.905 209.129 225.5C209.411 226.956 210.637 228.156 210.672 229.639C210.697 230.694 210.111 231.65 209.761 232.645C209.433 233.598 209.314 234.61 209.413 235.614C209.512 236.617 209.825 237.587 210.333 238.457C210.623 238.882 210.877 239.329 211.094 239.796C211.424 240.651 211.317 241.624 211.622 242.489C212.025 243.632 213.132 244.577 213.026 245.784C213.529 246.828 214.639 247.341 215.755 247.652L217.755 248.209C218.131 248.345 218.532 248.392 218.929 248.346C219.126 248.317 219.308 248.223 219.444 248.078C219.581 247.933 219.665 247.746 219.681 247.547C218.684 247.393 217.73 247.034 216.879 246.493C216.07 245.895 215.516 244.831 215.823 243.873C215.965 243.429 216.268 242.916 215.98 242.549C215.815 242.339 215.514 242.284 215.328 242.092C215.209 241.921 215.147 241.717 215.151 241.509C215.154 241.3 215.222 241.098 215.346 240.931C215.601 240.601 215.801 240.233 215.94 239.84C215.982 239.612 215.954 239.376 215.859 239.164C215.763 238.953 215.606 238.775 215.407 238.656C215.778 238.516 216.115 238.3 216.397 238.021C216.535 237.878 216.626 237.697 216.657 237.501C216.689 237.306 216.659 237.105 216.573 236.927C217.181 237.004 217.899 237.042 218.298 236.576C218.436 236.373 218.523 236.14 218.553 235.897C218.583 235.653 218.554 235.406 218.469 235.176C218.296 234.718 218.18 234.24 218.124 233.754C219.527 233.82 220.933 233.773 222.329 233.611C222.127 232.932 221.669 232.357 221.05 232.01C221.682 231.903 222.258 231.147 222.458 230.537C222.628 229.916 222.637 229.262 222.483 228.636C222.436 228.474 222.429 228.303 222.464 228.138C222.566 227.92 222.744 227.748 222.964 227.654L226.102 225.852C226.289 225.759 226.458 225.633 226.603 225.482C226.744 225.27 226.828 225.026 226.847 224.773C226.867 224.52 226.821 224.266 226.715 224.035C226.498 223.577 226.329 223.097 226.212 222.604C226.018 221.1 227.628 220.021 228.172 218.605C228.357 218.039 228.457 217.448 228.47 216.852C228.514 216.214 228.517 215.474 228.028 215.063C227.558 214.669 226.825 214.757 226.334 214.391C225.884 214.055 225.728 213.402 225.237 213.131C224.79 212.885 224.23 213.041 223.733 212.925C222.858 212.721 222.308 211.713 221.415 211.62C220.911 211.567 220.34 211.814 219.927 211.52C219.563 211.262 219.549 210.742 219.479 210.301C219.358 209.615 219.029 208.983 218.538 208.49C218.046 207.997 217.415 207.666 216.73 207.543C216.21 207.459 215.645 207.491 215.203 207.205C214.755 206.916 214.55 206.375 214.198 205.974C213.631 205.329 212.739 205.1 211.903 204.903L208.502 204.103C207.898 203.962 207.12 203.886 206.796 204.415C206.7 204.617 206.632 204.83 206.594 205.05C206.473 205.447 206.228 205.796 205.896 206.046C205.564 206.296 205.161 206.434 204.746 206.441C204.461 205.955 203.999 205.598 203.457 205.444C203.104 205.384 202.755 205.301 202.414 205.196C202.235 205.108 202.075 204.985 201.945 204.834C201.815 204.683 201.718 204.507 201.658 204.316C201.599 204.126 201.579 203.926 201.599 203.727C201.62 203.529 201.681 203.337 201.778 203.163C201.974 202.814 202.05 202.41 201.993 202.014C201.937 201.617 201.752 201.251 201.466 200.97C201.158 200.732 200.806 200.557 200.43 200.455C200.054 200.353 199.662 200.327 199.276 200.377C199.073 199.934 199.412 199.434 199.778 199.112C200.144 198.79 200.589 198.473 200.668 197.992C200.794 197.235 199.828 196.661 199.095 196.886C198.362 197.112 197.895 197.824 197.585 198.526C197.437 198.94 197.232 199.333 196.977 199.692C196.847 199.87 196.67 200.008 196.466 200.092C196.262 200.176 196.038 200.201 195.82 200.166C195.217 200.011 194.984 199.294 194.85 198.686C194.636 197.877 194.527 197.044 194.528 196.207C194.534 195.361 194.869 194.551 195.463 193.95C196.466 193.028 198.005 193.119 199.359 193.266C199.214 193.073 199.144 192.834 199.162 192.593C199.181 192.352 199.287 192.127 199.461 191.959C199.641 191.798 199.858 191.684 200.093 191.626C200.328 191.569 200.573 191.569 200.808 191.628C201.216 191.713 201.583 191.932 201.851 192.252C202.236 192.721 202.345 193.354 202.636 193.887C202.927 194.419 203.581 194.873 204.116 194.588C204.578 194.341 204.652 193.7 204.537 193.188C204.355 192.697 204.248 192.181 204.219 191.658C204.298 190.661 205.332 190.061 206.244 189.65C207.155 189.24 208.199 188.688 208.344 187.698C208.349 187.505 208.385 187.313 208.452 187.131C208.553 186.97 208.694 186.838 208.86 186.747C211.521 184.989 214.227 183.209 217.268 182.248C217.426 182.198 217.445 182.253 217.606 182.214C217.832 182.084 217.682 181.723 217.466 181.577C217.249 181.432 216.96 181.321 216.905 181.066C216.865 180.878 216.975 180.695 217.004 180.505C217.011 180.391 216.99 180.276 216.943 180.172C216.896 180.067 216.824 179.976 216.733 179.906C216.642 179.836 216.536 179.789 216.423 179.77C216.31 179.751 216.194 179.76 216.085 179.796C215.841 179.472 216.324 179.096 216.715 178.989C217.889 178.666 219.094 178.469 220.309 178.401C220.449 178.379 220.593 178.404 220.718 178.471C220.807 178.557 220.861 178.674 220.867 178.798C220.873 178.922 220.832 179.044 220.752 179.139C220.584 179.322 220.4 179.489 220.201 179.638C220.004 179.83 219.864 180.072 219.795 180.339C219.727 180.605 219.732 180.885 219.812 181.148C220.447 181.471 221.137 181.803 221.839 181.69C222.542 181.576 223.166 180.786 222.836 180.155C222.528 179.568 221.604 179.436 221.445 178.792C221.259 178.038 222.326 177.368 222.085 176.63C221.98 176.307 221.658 176.116 221.411 175.883C221.119 175.597 220.92 175.229 220.841 174.828C220.762 174.427 220.806 174.011 220.967 173.635C220.564 173.706 220.151 173.679 219.76 173.557C219.37 173.435 219.015 173.221 218.724 172.933C218.188 172.392 217.76 171.538 216.998 171.562C216.299 171.584 215.697 172.4 215.043 172.151C214.882 172.09 214.713 171.965 214.557 172.038C214.506 172.072 214.463 172.116 214.432 172.168C214.4 172.22 214.381 172.279 214.376 172.339C214.209 173.134 214.495 174.039 214.062 174.725C213.591 175.472 212.502 175.575 211.931 176.249C211.621 176.614 211.501 177.107 211.216 177.492C210.931 177.878 210.326 178.123 209.984 177.787C210.152 177.441 210.198 177.049 210.114 176.674C210.031 176.299 209.822 175.964 209.523 175.723C209.206 175.516 208.863 175.349 208.505 175.227C208.103 175.057 207.722 174.845 207.367 174.593C207.189 174.486 207.044 174.331 206.949 174.146C206.874 173.915 206.884 173.664 206.977 173.439C207.151 172.942 207.457 172.502 207.862 172.166C208.267 171.83 208.757 171.611 209.277 171.533C209.733 171.471 210.263 171.493 210.564 171.146C210.723 170.962 210.807 170.685 211.038 170.61C211.186 170.581 211.34 170.599 211.476 170.664L213.176 171.262C213.365 171.348 213.574 171.382 213.781 171.362C213.884 171.349 213.977 171.296 214.043 171.216C214.109 171.136 214.142 171.035 214.136 170.931C214.082 170.649 213.647 170.514 213.687 170.229C213.709 170.137 213.759 170.053 213.829 169.99C214.442 169.337 215.192 168.828 216.025 168.499C216.858 168.17 217.754 168.029 218.647 168.087C218.862 168.439 218.523 168.856 218.241 169.157C217.958 169.458 217.731 169.995 218.073 170.227C218.213 170.298 218.368 170.333 218.525 170.328C218.944 170.385 219.35 170.508 219.729 170.694C220.317 170.949 220.893 171.229 221.457 171.533C221.376 171.164 221.391 170.781 221.501 170.42C221.562 170.242 221.688 170.094 221.853 170.004C222.018 169.914 222.211 169.889 222.393 169.934C222.731 170.065 222.904 170.512 223.264 170.553C223.744 170.608 223.933 169.899 223.733 169.459C223.532 169.02 223.135 168.652 223.102 168.17C223.08 167.845 223.204 167.442 222.944 167.245C222.852 167.186 222.747 167.15 222.638 167.138L216.155 165.945C215.77 165.874 215.214 165.929 215.197 166.32C215.188 166.538 215.382 166.754 215.296 166.955C215.204 167.169 214.901 167.149 214.681 167.225C214.516 167.301 214.38 167.428 214.293 167.587C214.207 167.746 214.174 167.93 214.2 168.109C214.26 168.467 214.398 168.807 214.606 169.105C214.184 168.929 213.546 168.897 213.124 168.72Z" fill="#F2F2F2"/>
<path d="M207.952 163.218C207.543 163.082 207.102 163.076 206.69 163.2C206.278 163.323 205.913 163.57 205.646 163.908C205.583 163.971 205.54 164.05 205.521 164.136C205.502 164.222 205.508 164.312 205.539 164.395C205.667 164.613 205.993 164.527 206.234 164.449C206.588 164.322 206.973 164.313 207.332 164.422C207.558 164.5 207.76 164.637 207.987 164.712C208.098 164.758 208.219 164.773 208.337 164.756C208.456 164.739 208.567 164.689 208.66 164.613C208.794 164.433 208.853 164.208 208.826 163.985C208.837 163.911 208.831 163.835 208.808 163.763C208.786 163.691 208.748 163.625 208.697 163.57C208.606 163.517 208.504 163.487 208.399 163.482C208.164 163.438 207.952 163.314 207.799 163.131" fill="#F2F2F2"/>
<path d="M210.289 162.567C210.198 162.562 210.106 162.581 210.024 162.621C209.942 162.661 209.872 162.722 209.82 162.798C209.768 162.873 209.736 162.961 209.728 163.052C209.72 163.144 209.735 163.235 209.773 163.319C210.054 163.396 210.347 163.415 210.636 163.375C210.78 163.353 210.914 163.288 211.021 163.19C211.129 163.092 211.204 162.964 211.239 162.822C210.899 162.884 210.549 162.817 210.256 162.634" fill="#F2F2F2"/>
<path d="M218.132 161.48C217.367 161.642 216.624 161.895 215.919 162.232C216.251 162.359 216.534 162.591 216.725 162.891C216.916 163.192 217.006 163.546 216.981 163.902C216.951 164.038 216.954 164.18 216.991 164.314C217.072 164.511 217.307 164.585 217.514 164.636C217.886 164.749 218.275 164.799 218.663 164.783C218.858 164.772 219.046 164.714 219.212 164.613C219.378 164.511 219.517 164.37 219.614 164.201C219.671 164.042 219.737 163.886 219.812 163.734C220.308 162.978 221.783 163.892 222.316 163.162C222.503 162.904 222.486 162.517 222.731 162.313C222.857 162.224 223.004 162.168 223.158 162.15C224.229 161.937 225.312 161.783 226.4 161.688C226.916 161.643 227.588 161.458 227.592 160.941C225.65 160.559 223.636 160.83 221.863 161.711C221.224 162.031 220.38 162.704 219.765 162.28C219.534 162.121 219.546 161.694 219.229 161.515C218.878 161.376 218.49 161.363 218.132 161.48V161.48Z" fill="#F2F2F2"/>
<path d="M224.484 162.668L225.396 162.843C225.228 162.836 225.06 162.864 224.904 162.926C224.748 162.989 224.607 163.084 224.491 163.205C224.375 163.326 224.286 163.471 224.229 163.629C224.173 163.787 224.152 163.956 224.166 164.123C225.02 164.409 225.951 164.131 226.85 164.169C227.75 164.207 228.796 164.849 228.643 165.736C228.596 166.005 228.441 166.273 228.522 166.533C228.609 166.702 228.712 166.863 228.83 167.012C228.903 167.198 228.922 167.4 228.887 167.596C228.851 167.792 228.762 167.974 228.629 168.122C228.39 168.44 228.069 168.694 227.86 169.032C227.339 169.872 227.635 170.958 227.945 171.897C228.035 172.252 228.201 172.583 228.431 172.867C228.891 173.356 229.64 173.399 230.312 173.409C230.8 173.416 231.36 173.392 231.669 173.013C232.072 172.519 231.79 171.748 232.056 171.168C232.297 170.641 232.911 170.415 233.468 170.255C234.499 170.002 235.51 169.673 236.491 169.268C237.689 168.718 238.808 167.859 240.124 167.788C240.493 167.804 240.863 167.778 241.227 167.711C241.408 167.673 241.572 167.576 241.692 167.436C241.813 167.295 241.884 167.119 241.893 166.934C241.87 166.619 241.604 166.387 241.395 166.15C241.187 165.912 241.024 165.547 241.215 165.296L244.664 164.651C244.42 163.985 244.229 163.107 244.791 162.674C244.994 162.517 245.265 162.455 245.438 162.266C245.562 162.086 245.612 161.865 245.576 161.65C245.539 161.435 245.421 161.242 245.245 161.113C244.88 160.869 244.45 160.739 244.011 160.739C242.495 160.649 240.976 160.662 239.462 160.78L230.575 161.267C229.959 161.242 229.342 161.304 228.744 161.453C228.321 161.69 227.879 161.891 227.422 162.053C226.444 162.258 225.368 162.119 224.484 162.668Z" fill="#F2F2F2"/>
<path d="M240.818 169.875C240.725 169.86 240.63 169.882 240.553 169.935C240.502 169.992 240.471 170.064 240.466 170.14C240.408 170.475 240.478 170.821 240.663 171.107C240.757 171.247 240.887 171.36 241.04 171.433C241.192 171.506 241.361 171.537 241.53 171.523C241.94 171.47 242.243 171.12 242.621 170.949C243.202 170.686 245.673 170.276 243.964 169.353C243.375 169.034 242.994 169.315 242.53 169.525C242.002 169.795 241.41 169.916 240.818 169.875V169.875Z" fill="#F2F2F2"/>
<path d="M255.787 162.147C255.588 162.228 255.421 162.373 255.312 162.56C255.263 162.655 255.251 162.765 255.28 162.868C255.309 162.971 255.377 163.058 255.469 163.113C255.543 163.14 255.622 163.153 255.702 163.15L256.513 163.174C256.858 163.184 257.288 163.258 257.381 163.59C257.45 163.837 257.296 164.154 257.482 164.33C257.561 164.392 257.657 164.429 257.758 164.438C258.025 164.506 258.304 164.515 258.575 164.464C259.166 164.306 258.855 163.945 259.041 163.624C259.326 163.133 259.276 163.431 259.778 163.149C260.148 162.942 260.626 162.565 260.317 162.035C259.78 161.114 256.58 161.751 255.787 162.147Z" fill="#F2F2F2"/>
<path d="M271.802 161.683L271.331 161.746C270.265 161.858 269.209 162.06 268.177 162.35C268.62 162.525 269.085 162.639 269.558 162.689C269.819 162.702 270.078 162.739 270.332 162.799C270.784 162.934 271.24 163.281 271.676 163.103C271.947 162.993 272.035 162.711 272.26 162.562C272.414 162.458 273.002 162.291 273.068 162.187C273.598 161.346 272.21 161.629 271.802 161.683Z" fill="#F2F2F2"/>
<path d="M273.871 163.825C273.242 164.177 272.658 164.604 272.132 165.098C272.01 165.188 271.908 165.304 271.834 165.436C271.761 165.569 271.716 165.717 271.705 165.868C271.732 166.271 272.161 166.505 272.533 166.662L274.039 167.3C274.222 167.043 274.055 166.687 273.866 166.434C273.677 166.181 273.452 165.888 273.536 165.584C273.631 165.236 274.055 165.118 274.41 165.058C274.989 164.96 276.551 164.968 276.363 164.035C276.142 162.935 274.452 163.5 273.871 163.825Z" fill="#F2F2F2"/>
<path d="M273.568 226.043C273.486 226.247 273.451 226.468 273.466 226.687C273.482 226.907 273.548 227.12 273.659 227.31C273.812 227.505 274.017 227.651 274.251 227.732C274.485 227.813 274.737 227.824 274.977 227.765C275.457 227.637 275.884 227.362 276.2 226.979C276.488 226.657 276.725 226.294 276.903 225.9C277.151 225.287 277.326 224.647 277.424 223.992L277.892 221.537C277.997 220.988 277.993 219.306 276.984 219.854C276.708 220.004 276.071 221.186 275.782 221.521C275.261 222.126 275.192 222.712 274.919 223.444C274.575 224.361 273.886 225.125 273.568 226.043Z" fill="#F2F2F2"/>
<path d="M326.84 238.608C326.509 238.48 326.189 238.327 325.881 238.152C325.572 239.001 325.408 239.897 325.395 240.8L327.654 239.522C327.993 239.33 328.378 239.063 328.371 238.673C328.374 238.624 328.364 238.576 328.342 238.533C328.32 238.49 328.287 238.454 328.246 238.428C328.196 238.408 328.141 238.402 328.088 238.41C327.757 238.47 327.436 238.573 327.132 238.717C326.979 238.788 326.813 238.825 326.645 238.826C326.476 238.827 326.31 238.792 326.157 238.722" fill="#F2F2F2"/>
<path d="M338.753 239.367C338.505 239.435 338.263 239.522 338.028 239.627C337.51 239.891 337.158 240.392 336.691 240.739C336.227 241.048 335.717 241.281 335.18 241.431C335.148 241.471 335.125 241.516 335.111 241.566C335.098 241.615 335.095 241.667 335.103 241.717C335.111 241.767 335.13 241.815 335.158 241.858C335.185 241.901 335.222 241.937 335.265 241.965C335.446 242.068 335.654 242.115 335.861 242.099C336.409 242.158 336.962 242.073 337.466 241.852C337.737 241.676 337.99 241.475 338.222 241.252C338.804 240.808 339.444 240.446 340.124 240.176C340.367 240.085 340.591 239.95 340.787 239.78C341.206 239.367 341.236 238.73 340.631 238.589C340.143 238.476 339.218 239.217 338.753 239.367Z" fill="#F2F2F2"/>
<path d="M344.016 235.929C344.044 235.645 344.006 235.358 343.906 235.091C343.806 234.823 343.647 234.582 343.44 234.385C343.488 234.955 343.369 235.526 343.097 236.029C342.869 236.364 342.512 236.591 342.262 236.91C342.122 237.056 342.039 237.248 342.026 237.45C342.014 237.652 342.074 237.852 342.195 238.015C342.382 238.157 342.61 238.235 342.845 238.238C343.428 238.307 344.102 238.345 344.511 237.924C344.734 237.694 344.843 237.354 345.115 237.185C345.216 237.143 345.307 237.078 345.38 236.996C345.492 236.817 345.313 236.582 345.112 236.517C344.911 236.453 344.69 236.483 344.488 236.422C344.286 236.361 344.101 236.134 344.204 235.95" fill="#F2F2F2"/>
<path d="M334.661 215.085C334.355 215.159 334.039 215.178 333.726 215.14C333.222 214.98 332.763 214.703 332.385 214.333C331.389 213.575 330.179 213.152 328.927 213.125C327.789 213.104 326.64 213.412 325.522 213.197C325.577 213.396 325.677 213.581 325.814 213.736C325.951 213.89 326.122 214.011 326.314 214.089C326.685 214.27 327.094 214.361 327.467 214.539C328.064 214.825 328.537 215.318 328.8 215.926C328.893 216.216 329.02 216.494 329.178 216.755C329.393 216.981 329.66 217.151 329.956 217.251C330.252 217.35 330.567 217.375 330.875 217.324C331.686 217.271 332.532 217.038 333.286 217.34C333.831 217.64 334.327 218.02 334.758 218.468C335.239 218.861 335.918 219.152 336.471 218.869C335.896 218.683 335.396 218.318 335.044 217.828C334.691 217.338 334.505 216.748 334.511 216.144C335.054 216.194 336.616 216.175 336.532 215.253C336.461 214.472 335.127 215.001 334.661 215.085Z" fill="#F2F2F2"/>
<path d="M327.565 221.44C327.661 220.912 328.188 220.446 328.024 219.934C327.946 219.765 327.819 219.624 327.66 219.528C327.5 219.432 327.315 219.387 327.13 219.397C326.758 219.389 326.394 219.499 326.022 219.51C325.781 219.497 325.539 219.5 325.297 219.52C324.561 219.641 324.106 220.413 323.412 220.688C322.972 220.798 322.526 220.882 322.076 220.939C321.08 221.201 320.449 222.142 319.752 222.902C318.626 224.123 317.16 224.979 315.542 225.357C314.963 225.426 314.406 225.625 313.915 225.94C313.319 226.428 313.172 227.264 313.039 228.022C312.673 230.118 312.112 232.175 311.365 234.168L313.732 234.47C314.178 234.559 314.639 234.552 315.082 234.45C315.397 234.331 315.696 234.172 315.97 233.977C317.024 233.323 318.204 232.897 319.433 232.727C320.051 232.611 320.688 232.656 321.284 232.857C321.58 232.962 321.842 233.145 322.041 233.388C322.24 233.631 322.369 233.923 322.414 234.234C322.665 234.155 322.933 234.147 323.189 234.209C323.445 234.271 323.68 234.402 323.867 234.587C324.238 234.965 324.48 235.449 324.561 235.972C324.623 236.296 324.686 236.684 324.986 236.82C325.231 236.931 325.512 236.811 325.781 236.79C326.691 236.717 327.446 237.778 328.34 237.595C329.299 237.399 329.535 235.963 330.471 235.675C331.008 235.51 331.762 235.711 332.019 235.211C332.246 234.77 331.794 234.261 331.84 233.768C331.898 233.16 332.615 232.903 333.167 232.643C334.103 232.16 334.82 231.337 335.17 230.343C335.521 229.349 335.479 228.259 335.053 227.295C334.506 226.175 333.43 225.293 333.231 224.063C333.078 223.116 333.451 222.012 332.848 221.266C332.541 220.887 332.021 220.678 331.838 220.225C331.767 219.927 331.724 219.623 331.707 219.317C331.645 219.016 331.383 218.701 331.086 218.779C330.223 219.006 329.948 221.669 329.487 222.317C329.345 222.526 329.133 222.679 328.89 222.748C328.646 222.816 328.386 222.796 328.155 222.691C327.925 222.586 327.739 222.403 327.631 222.174C327.523 221.945 327.5 221.685 327.565 221.44V221.44Z" fill="#F2F2F2"/>
<path d="M311.627 216.091C311.341 215.977 311.025 215.961 310.728 216.046C310.446 216.164 310.281 216.578 310.508 216.784C312.279 216.663 314.057 216.698 315.822 216.887C317.847 217.164 319.851 217.851 321.885 217.649C320.723 217.306 319.542 217.032 318.348 216.828L316.357 216.448C315.823 216.336 315.283 216.253 314.74 216.198C313.604 216.104 312.744 216.405 311.627 216.091Z" fill="#F2F2F2"/>
<path d="M313.402 209.917C313.255 209.905 313.072 209.894 312.996 210.021C312.923 210.142 313.007 210.302 312.968 210.437C312.914 210.622 312.672 210.67 312.48 210.644C312.295 210.588 312.097 210.59 311.913 210.651C311.827 210.71 311.763 210.795 311.729 210.893C311.696 210.991 311.695 211.098 311.727 211.197C311.797 211.393 311.909 211.572 312.055 211.719C312.306 212.035 312.591 212.321 312.906 212.573C313.515 213.022 314.34 213.239 314.724 213.892C314.778 214.018 314.862 214.13 314.967 214.219C315.068 214.259 315.178 214.275 315.286 214.264C315.395 214.253 315.499 214.216 315.59 214.156L316.285 213.838C316.41 213.793 316.522 213.717 316.61 213.617C316.67 213.497 316.695 213.363 316.682 213.23C316.67 213.097 316.62 212.969 316.538 212.863C316.372 212.651 316.276 212.393 316.263 212.124C316.314 211.65 316.924 211.468 317.175 211.062C317.428 210.653 317.263 210.125 317.293 209.645C317.327 209.083 317.68 208.353 317.112 207.933C316.629 207.576 316.168 207.906 315.821 208.3C315.09 209.13 314.745 210.029 313.402 209.917Z" fill="#F2F2F2"/>
<path d="M317.622 201.524C317.859 201.979 318.354 202.25 318.613 202.693C318.894 203.172 318.862 203.792 319.166 204.257C319.478 204.734 320.107 204.988 320.282 205.53C320.473 206.123 320.039 206.843 320.385 207.36C320.45 207.445 320.531 207.515 320.624 207.567C320.717 207.618 320.82 207.65 320.926 207.66C321.032 207.669 321.139 207.657 321.24 207.623C321.34 207.59 321.433 207.535 321.512 207.464C321.658 207.305 321.736 207.096 321.73 206.88C321.723 206.665 321.633 206.461 321.478 206.311C321.273 206.124 320.979 206.043 320.808 205.825C320.719 205.699 320.66 205.555 320.635 205.403C320.542 204.964 320.557 204.509 320.678 204.078C320.724 203.968 320.736 203.848 320.712 203.731C320.635 203.508 320.332 203.492 320.119 203.388C319.636 203.152 319.648 202.471 319.732 201.94C319.676 202.293 318.418 201.693 318.286 201.492C318.024 201.095 318.167 200.328 318.115 199.889C317.84 200.048 317.637 200.305 317.545 200.609C317.454 200.913 317.481 201.24 317.622 201.524V201.524Z" fill="#F2F2F2"/>
<path d="M304.944 208.517C304.712 208.257 304.362 207.985 304.051 208.142C303.939 208.215 303.857 208.325 303.819 208.452C303.78 208.58 303.788 208.717 303.841 208.84C303.954 209.082 304.129 209.29 304.348 209.444C305.024 209.944 305.663 210.492 306.262 211.084C307.275 212.197 307.811 213.7 308.913 214.725C309.135 214.963 309.428 215.122 309.748 215.177C309.908 215.199 310.07 215.16 310.203 215.068C310.336 214.976 310.43 214.838 310.466 214.681C310.463 214.548 310.431 214.418 310.374 214.298C310.317 214.178 310.235 214.072 310.133 213.986C309.705 213.52 309.237 213.092 308.833 212.605C308.646 212.418 308.529 212.173 308.5 211.911C308.498 211.649 308.737 211.375 308.991 211.44C308.682 211.361 308.453 210.847 308 210.75C307.622 210.669 307.53 210.904 307.079 210.71C306.22 210.342 305.546 209.191 304.944 208.517Z" fill="#F2F2F2"/>
<path d="M325.135 183.199C324.888 183.126 324.646 183.04 324.409 182.94C323.771 182.749 322.927 183.217 323.012 183.878C323.068 184.317 323.477 184.613 323.702 184.994C323.84 185.292 323.917 185.615 323.929 185.943C323.941 186.272 323.888 186.599 323.772 186.907C323.729 187.103 323.647 187.288 323.531 187.451C323.368 187.624 323.174 187.764 322.959 187.863C322.097 188.346 321.337 188.991 320.721 189.763C320.654 189.835 320.608 189.923 320.586 190.018C320.556 190.241 320.78 190.404 320.907 190.59C321.188 191.003 320.985 191.559 321.013 192.058C321.008 192.129 321.022 192.2 321.053 192.263C321.084 192.327 321.13 192.382 321.188 192.423C321.357 192.509 321.559 192.363 321.651 192.196C321.956 191.643 321.726 190.755 322.299 190.488C322.407 190.438 322.538 190.417 322.61 190.321C322.725 190.17 322.615 189.947 322.673 189.766C322.76 189.496 323.13 189.483 323.415 189.495C323.905 189.516 324.394 189.451 324.862 189.303C325.045 189.259 325.212 189.163 325.341 189.025C325.412 188.908 325.459 188.778 325.48 188.643C325.501 188.508 325.495 188.369 325.463 188.236C325.291 186.882 324.862 185.573 324.199 184.38C324.696 184.499 325.218 184.449 325.683 184.238C325.926 184.091 326.218 183.652 326.097 183.353C325.907 182.881 325.562 183.278 325.135 183.199Z" fill="#F2F2F2"/>
<path d="M260.641 190.648C260.728 190.966 260.733 191.301 260.654 191.621C260.609 191.78 260.508 191.916 260.369 192.003C260.23 192.091 260.063 192.124 259.901 192.097C259.657 192.023 259.516 191.778 259.343 191.591C258.38 190.551 256.206 191.153 255.611 189.866C255.368 189.341 255.533 188.712 255.368 188.158C255.263 187.837 255.055 187.561 254.776 187.371C254.498 187.182 254.164 187.09 253.828 187.111C253.521 187.156 253.222 187.245 252.941 187.376C251.06 188.129 249.084 188.623 247.07 188.844C246.687 188.868 246.308 188.937 245.941 189.05C245.134 189.421 244.494 190.081 244.147 190.899C243.806 191.711 243.392 192.489 242.908 193.224C242.291 193.915 241.584 194.519 240.806 195.02C240.521 195.204 240.283 195.453 240.113 195.747C239.98 196.091 239.932 196.461 239.974 196.827L240.125 201.279C240.104 201.854 240.206 202.426 240.425 202.958C240.745 203.598 241.378 204.017 241.816 204.582C242.264 205.163 242.497 205.881 242.476 206.614C242.467 206.909 242.438 207.257 242.667 207.442C242.807 207.533 242.97 207.58 243.137 207.577L249.159 208.07C250.219 208.157 251.393 208.3 252.085 209.107C252.411 209.488 252.673 210.036 253.173 210.076C253.388 210.064 253.601 210.035 253.811 209.989C254.083 210 254.347 210.081 254.578 210.225C254.809 210.368 254.998 210.57 255.128 210.809C255.582 211.499 255.788 212.322 255.712 213.145C255.663 213.661 255.503 214.163 255.468 214.68C255.337 216.648 257.006 218.358 257.038 220.331C257.057 221.491 256.506 222.575 255.969 223.604C256.836 224.917 256.126 226.665 256.472 228.2C256.799 229.656 258.013 230.796 258.316 232.258C258.454 232.927 258.462 233.75 259.052 234.095C259.311 234.221 259.598 234.278 259.885 234.262C261.62 234.282 263.334 233.892 264.889 233.123C265.618 232.761 266.374 232.22 266.502 231.416C266.604 230.767 266.275 230.041 266.61 229.476C267.005 228.81 268.016 228.863 268.596 228.351C269.538 227.52 268.804 225.936 269.185 224.74C269.528 223.664 270.709 223.093 271.294 222.128C271.525 221.713 271.69 221.265 271.784 220.799C272.053 219.687 272.22 218.554 272.283 217.412C272.299 216.718 272.35 216.025 272.436 215.336C273.067 211.416 276.943 208.791 278.202 205.024C278.322 204.665 278.378 204.185 278.058 203.982C277.869 203.891 277.653 203.869 277.449 203.918L274.673 204.268C274.331 204.343 273.976 204.322 273.646 204.209C273.484 204.146 273.354 204.021 273.283 203.862C273.213 203.703 273.208 203.523 273.27 203.361C273.741 202.507 272.772 201.427 272.341 200.552C271.18 198.195 269.798 195.954 268.213 193.859C268.112 193.751 268.048 193.613 268.032 193.466L268.82 193.492C268.554 192.537 268.115 191.493 267.188 191.144C266.648 190.997 266.083 190.964 265.529 191.046C263.891 191.079 262.252 190.945 260.641 190.648Z" fill="#F2F2F2"/>
<path d="M265.531 169.14C265.9 169.63 266.426 169.98 267.021 170.131C268.089 170.268 268.857 169.163 269.346 168.204C269.364 168.449 269.477 168.677 269.66 168.839C269.844 169.002 270.083 169.087 270.328 169.075C270.592 169.031 270.843 168.933 271.067 168.786C273.183 167.63 275.552 167.018 277.963 167.004C277.94 166.821 277.985 166.636 278.09 166.485C278.195 166.334 278.353 166.227 278.532 166.185C279.022 166.088 279.464 166.512 279.7 166.952C279.876 167.42 280.133 167.853 280.46 168.232C280.836 168.561 281.563 168.547 281.711 168.07C281.854 167.612 281.376 167.221 280.98 166.951C280.583 166.681 280.166 166.181 280.433 165.782C282.445 165.275 284.499 164.944 286.569 164.795C286.922 164.807 287.274 164.746 287.602 164.617C287.765 164.548 287.9 164.427 287.987 164.274C288.075 164.121 288.109 163.943 288.085 163.768C287.632 163.874 287.159 163.843 286.724 163.679C286.289 163.515 285.913 163.226 285.644 162.847C288.52 162.61 291.579 162.407 294.128 163.761C294.434 164.417 292.875 164.964 293.292 165.556C293.373 165.638 293.473 165.7 293.582 165.737C293.691 165.774 293.808 165.786 293.922 165.771C295.693 165.854 297.467 165.787 299.226 165.569C299.859 165.429 300.508 165.376 301.155 165.412C302.226 165.544 303.141 166.259 304.194 166.491C304.405 166.553 304.626 166.572 304.845 166.546C305.063 166.52 305.274 166.45 305.464 166.34C305.555 166.281 305.634 166.204 305.694 166.114C305.755 166.025 305.797 165.923 305.818 165.817C305.838 165.71 305.837 165.601 305.814 165.494C305.791 165.388 305.747 165.288 305.685 165.199C306.676 164.228 308.322 164.469 309.629 164.934C310.937 165.399 312.176 166.149 313.56 166.253C314.553 166.327 315.56 166.06 316.54 166.23C317.147 166.383 317.745 166.566 318.333 166.779C319.472 167.098 320.677 167.03 321.86 167.046C324.879 167.086 327.864 167.68 330.668 168.796C331.033 168.915 331.368 169.112 331.648 169.374C331.785 169.508 331.879 169.68 331.918 169.868C331.957 170.055 331.939 170.251 331.866 170.428L328.968 170.004C329.241 170.542 329.948 170.634 330.521 170.819C331.095 171.004 331.69 171.638 331.345 172.133C330.723 171.935 330.16 172.556 329.846 173.128C329.532 173.7 329.15 174.384 328.498 174.419C327.915 174.45 327.209 173.954 326.829 174.397C327.355 175.06 327.804 175.779 328.17 176.541C328.546 177.324 328.814 178.31 328.306 179.014C328.226 179.14 328.105 179.234 327.963 179.28C327.549 179.385 327.279 178.877 326.982 178.57C326.557 178.237 326.061 178.005 325.533 177.891C325.026 177.709 324.491 177.352 324.451 176.814C324.469 176.479 324.566 176.152 324.733 175.86C324.952 175.339 325.047 174.775 325.013 174.211C325.01 173.752 324.839 173.309 324.531 172.968C324.373 172.804 324.162 172.702 323.935 172.678C323.709 172.655 323.481 172.713 323.293 172.841C323.13 172.976 322.999 173.193 322.787 173.201C322.413 173.216 322.125 172.563 321.824 172.786C321.859 173.023 321.81 173.265 321.685 173.47C320.786 174.252 319.405 173.921 318.245 174.198C317.694 174.355 317.167 174.586 316.676 174.883C316.493 174.961 316.337 175.092 316.228 175.259C316.172 175.407 316.168 175.57 316.217 175.721C316.266 175.872 316.365 176.001 316.498 176.087C316.768 176.253 317.072 176.357 317.387 176.391C318.8 176.659 320.234 177.073 321.35 177.981C322.465 178.888 323.197 180.389 322.844 181.783L320.057 179.12C320.163 180.238 320.223 181.359 320.237 182.483C320.255 182.703 320.225 182.924 320.149 183.13C319.951 183.569 319.412 183.717 318.94 183.814C318.809 183.838 318.685 183.891 318.575 183.967C318.465 184.044 318.373 184.143 318.305 184.257C318.236 184.372 318.192 184.5 318.177 184.632C318.161 184.765 318.173 184.899 318.213 185.027C318.431 185.557 318.762 186.034 319.182 186.424C319.603 186.816 319.887 187.334 319.991 187.9C320.041 188.469 319.612 189.111 319.042 189.071C318.829 189.029 318.63 188.932 318.466 188.791C318.302 188.649 318.177 188.467 318.104 188.262C317.964 187.852 317.772 187.462 317.533 187.1C316.695 186.092 314.812 186.524 314.061 185.449C313.869 185.666 313.736 185.929 313.675 186.212C313.613 186.494 313.625 186.788 313.709 187.065C313.898 186.982 314.11 186.966 314.309 187.021C314.508 187.076 314.681 187.199 314.8 187.368C315.027 187.712 315.225 188.074 315.392 188.45C315.67 188.932 316.113 189.359 316.152 189.914C316.142 190.124 316.145 190.334 316.162 190.543C316.286 190.864 316.473 191.156 316.713 191.402C316.921 191.744 317.042 192.132 317.067 192.532C317.091 192.931 317.018 193.331 316.853 193.696C316.517 194.422 316.059 195.086 315.501 195.659C314.609 196.733 313.623 197.725 312.556 198.625C312.226 198.849 311.942 199.134 311.72 199.466C311.613 199.634 311.565 199.833 311.582 200.032C311.599 200.231 311.68 200.419 311.814 200.567C311.601 200.577 311.22 200.682 311.007 200.693C310.932 199.839 310.916 198.981 310.958 198.126C310.119 197.722 309.215 198.802 309.323 199.727C309.431 200.652 310.1 201.395 310.577 202.195C310.964 202.763 311.138 203.45 311.068 204.134C311.021 204.472 310.855 204.782 310.599 205.008C310.343 205.234 310.015 205.361 309.674 205.365C308.595 205.271 308.143 203.722 307.074 203.544C306.98 203.522 306.881 203.532 306.793 203.572C306.634 203.659 306.607 203.872 306.598 204.052C306.488 204.937 306.579 205.835 306.862 206.68C307.369 207.877 308.678 208.882 308.403 210.152C306.924 209.464 306.155 207.806 305.806 206.212C305.457 204.619 305.399 202.946 304.773 201.44C304.298 202.049 303.299 201.546 302.864 200.907C302.453 200.301 302.199 199.6 301.8 198.986C301.622 198.665 301.373 198.389 301.07 198.181C300.767 197.973 300.421 197.839 300.057 197.788C299.29 197.753 298.624 198.279 298.039 198.777C297.53 199.154 297.103 199.63 296.783 200.176C296.374 200.999 296.481 201.969 296.461 202.888C296.503 203.89 296.18 204.874 295.552 205.656C294.875 206.384 293.626 206.637 292.879 205.982C292.518 205.606 292.261 205.143 292.132 204.638C291.322 202.272 290.647 199.863 290.111 197.421C289.985 197.978 289.496 198.697 289.028 198.368C288.923 198.28 288.838 198.171 288.779 198.047C287.907 196.569 286.292 195.682 284.66 195.151C283.028 194.619 281.311 194.371 279.697 193.787C278.793 193.459 277.929 193.029 277.123 192.504C276.917 192.806 276.797 193.158 276.775 193.523C276.754 193.887 276.831 194.251 276.999 194.575C277.179 194.893 277.46 195.142 277.797 195.283C278.134 195.424 278.508 195.449 278.86 195.354C279.219 195.24 279.521 194.991 279.877 194.868C280.048 194.79 280.242 194.775 280.423 194.827C280.604 194.878 280.76 194.992 280.865 195.148C281.014 195.476 280.789 195.873 280.901 196.215C281.071 196.737 281.857 196.777 282.132 197.251C282.214 197.439 282.233 197.648 282.187 197.847C282.141 198.046 282.032 198.225 281.876 198.358C281.56 198.616 281.21 198.831 280.838 198.997C279.681 199.641 278.858 200.739 277.847 201.594C276.835 202.448 275.409 203.072 274.204 202.524C274.491 201.069 272.758 200.002 272.439 198.553C272.334 198.077 272.389 197.571 272.239 197.106C272.022 196.434 271.425 195.971 270.936 195.462C270.342 194.837 269.88 194.099 269.576 193.293C269.272 192.487 269.132 191.627 269.166 190.766C269.247 190.172 269.247 189.57 269.166 188.976C269.118 188.68 268.971 188.408 268.751 188.205C268.53 188.002 268.247 187.878 267.948 187.855C266.581 187.915 264.859 188.017 264.142 186.852C263.886 186.436 263.775 185.827 264.145 185.508C264.29 185.416 264.453 185.353 264.622 185.324C264.792 185.295 264.966 185.299 265.134 185.338L268.214 185.641C268.934 185.712 269.713 185.77 270.331 185.394C270.949 185.017 271.217 184.018 270.645 183.575C270.226 183.251 269.477 183.269 269.356 182.754C269.254 182.325 269.729 181.839 269.472 181.481C269.289 181.224 268.876 181.295 268.625 181.488C268.406 181.715 268.168 181.922 267.913 182.108C267.422 182.363 266.835 182.12 266.306 181.954C265.777 181.789 265.068 181.775 264.812 182.266C264.525 182.815 265.066 183.535 264.782 184.085C264.405 184.813 263.131 184.399 262.603 185.024C261.996 185.743 263.015 186.813 262.811 187.731C262.55 187.86 262.259 187.92 261.968 187.903C261.678 187.887 261.396 187.795 261.151 187.638C260.91 187.474 260.718 187.248 260.595 186.983C260.473 186.719 260.424 186.426 260.454 186.136C260.505 185.724 260.72 185.302 260.576 184.912C260.419 184.612 260.162 184.376 259.848 184.247L256.856 182.593C256.578 183.108 256.929 183.747 257.368 184.135C257.808 184.522 258.358 184.813 258.647 185.323C258.829 185.676 258.87 186.085 258.761 186.467C258.652 186.85 258.401 187.176 258.06 187.379C258.017 187.409 257.968 187.429 257.917 187.438C257.866 187.446 257.813 187.444 257.763 187.431C257.715 187.403 257.674 187.366 257.64 187.321C257.607 187.277 257.584 187.226 257.571 187.172C257.042 185.821 256.25 184.489 254.982 183.783C253.715 183.077 251.893 183.222 251.062 184.411C250.865 184.693 250.732 185.015 250.56 185.314C249.647 186.9 247.688 187.652 245.858 187.603C245.678 187.613 245.5 187.571 245.344 187.482C245.049 187.278 245.062 186.844 245.107 186.488L245.299 184.974C245.3 184.665 245.42 184.368 245.634 184.145C245.973 183.878 246.463 184.046 246.894 184.04C247.221 184.025 247.536 183.909 247.795 183.709C248.054 183.509 248.246 183.234 248.344 182.922C248.431 182.606 248.43 182.272 248.342 181.957C248.254 181.642 248.081 181.357 247.843 181.132C247.645 180.946 247.379 180.713 247.484 180.462C247.525 180.393 247.582 180.333 247.649 180.288C247.716 180.243 247.792 180.213 247.872 180.201C248.648 179.975 249.467 179.916 250.23 179.651C250.62 179.544 250.979 179.343 251.272 179.064C251.566 178.786 251.786 178.438 251.913 178.054C251.968 177.813 251.993 177.521 252.21 177.401C252.319 177.355 252.435 177.331 252.553 177.331C252.967 177.272 253.343 177.06 253.609 176.738C253.874 176.415 254.009 176.005 253.987 175.588C254.188 175.492 254.415 175.46 254.635 175.497C254.855 175.533 255.058 175.637 255.218 175.792C255.532 176.11 255.904 176.364 256.314 176.54C257.116 176.758 257.891 176.048 258.722 176.045C259.066 176.105 259.417 176.106 259.762 176.049C260.095 175.929 260.294 175.597 260.55 175.352C260.806 175.107 261.254 174.957 261.491 175.221L261.289 173.731C261.694 173.834 262.117 173.848 262.528 173.774C262.939 173.7 263.329 173.538 263.673 173.301L261.074 172.422C260.983 172.4 260.9 172.355 260.83 172.292C260.641 172.089 260.829 171.772 260.983 171.54C261.35 170.987 261.412 170.075 260.808 169.8C260.395 169.612 259.921 169.838 259.525 170.058L257.628 171.116C257.568 171.477 258.009 171.681 258.282 171.924C258.447 172.071 258.564 172.265 258.618 172.479C258.671 172.694 258.658 172.92 258.581 173.127C258.504 173.334 258.365 173.513 258.184 173.641C258.003 173.768 257.788 173.837 257.567 173.84C257.692 174.003 257.779 174.191 257.821 174.392C257.863 174.592 257.86 174.8 257.811 174.999L256.535 175.09C256.391 175.119 256.242 175.09 256.121 175.01C255.984 174.888 256.003 174.676 255.971 174.496C255.914 174.283 255.794 174.091 255.627 173.946C255.461 173.8 255.255 173.708 255.036 173.68C254.596 173.632 254.152 173.673 253.729 173.8C253.546 173.866 253.346 173.861 253.167 173.787C253.064 173.721 252.986 173.622 252.945 173.507C252.87 173.271 252.858 173.019 252.908 172.777C252.959 172.535 253.072 172.31 253.235 172.123C253.565 171.755 253.929 171.42 254.323 171.122C255.212 170.342 255.866 169.329 256.209 168.197C256.912 167.903 257.639 167.503 258.342 167.208C259.425 166.66 260.64 166.424 261.85 166.528L264.23 166.574C264.936 166.544 265.641 166.646 266.31 166.873C266.643 166.992 266.937 167.199 267.16 167.473C267.384 167.747 267.529 168.076 267.579 168.426C267.592 168.506 267.585 168.587 267.559 168.664C267.532 168.74 267.486 168.808 267.426 168.862C267.334 168.912 267.23 168.935 267.125 168.93C266.468 168.953 266.188 169.116 265.531 169.14Z" fill="#F2F2F2"/>
<path d="M246.562 176.598C246.655 176.51 246.722 176.398 246.756 176.274C246.789 176.151 246.788 176.02 246.752 175.897C246.526 175.81 246.28 175.788 246.042 175.833C245.803 175.878 245.582 175.988 245.404 176.152C245.263 176.295 245.141 176.455 245.042 176.63C244.859 176.867 244.728 177.14 244.658 177.431C244.588 177.722 244.579 178.025 244.634 178.32C244.649 178.382 244.676 178.441 244.714 178.492C244.751 178.544 244.799 178.587 244.854 178.62C244.935 178.653 245.023 178.667 245.11 178.66C245.454 178.66 245.799 178.639 246.141 178.597C246.351 178.571 246.594 178.512 246.676 178.317C246.782 178.06 246.524 177.769 246.599 177.501C246.649 177.382 246.724 177.274 246.819 177.186C246.867 177.142 246.903 177.088 246.925 177.027C246.948 176.966 246.956 176.901 246.949 176.837C246.919 176.711 246.726 176.64 246.657 176.749" fill="#F2F2F2"/>
<path d="M248.349 174.282C248.043 174.212 247.727 174.192 247.415 174.223C247.346 174.221 247.277 174.237 247.216 174.268C247.156 174.312 247.113 174.375 247.093 174.446C247.027 174.658 247.044 174.887 247.139 175.087C247.234 175.287 247.401 175.445 247.607 175.527C247.719 175.553 247.827 175.596 247.925 175.655C248.19 175.86 248.021 176.279 248.071 176.61C248.127 176.981 248.487 177.292 248.421 177.662C248.369 177.953 248.058 178.184 248.108 178.475C248.16 178.78 248.548 178.872 248.857 178.897C249.036 178.928 249.22 178.907 249.387 178.836C249.555 178.721 249.674 178.549 249.722 178.351C249.848 177.975 249.901 177.578 249.878 177.182C249.877 177.001 249.832 176.824 249.746 176.665C249.653 176.539 249.55 176.421 249.438 176.312C248.846 175.624 249.469 174.598 248.349 174.282Z" fill="#F2F2F2"/>
<path d="M197.258 180.894C198.355 180.894 199.243 180.005 199.243 178.909C199.243 177.813 198.355 176.924 197.258 176.924C196.162 176.924 195.273 177.813 195.273 178.909C195.273 180.005 196.162 180.894 197.258 180.894Z" fill="#F9A826"/>
<path d="M215.192 223.332C216.288 223.332 217.177 222.444 217.177 221.347C217.177 220.251 216.288 219.362 215.192 219.362C214.096 219.362 213.207 220.251 213.207 221.347C213.207 222.444 214.096 223.332 215.192 223.332Z" fill="#F9A826"/>
<path d="M291.238 180.62C292.335 180.62 293.223 179.732 293.223 178.635C293.223 177.539 292.335 176.65 291.238 176.65C290.142 176.65 289.253 177.539 289.253 178.635C289.253 179.732 290.142 180.62 291.238 180.62Z" fill="#F9A826"/>
<path d="M326.147 230.177C327.243 230.177 328.132 229.288 328.132 228.192C328.132 227.096 327.243 226.207 326.147 226.207C325.051 226.207 324.162 227.096 324.162 228.192C324.162 229.288 325.051 230.177 326.147 230.177Z" fill="#F9A826"/>
<path d="M261.326 209.095C262.422 209.095 263.311 208.206 263.311 207.11C263.311 206.014 262.422 205.125 261.326 205.125C260.23 205.125 259.341 206.014 259.341 207.11C259.341 208.206 260.23 209.095 261.326 209.095Z" fill="#F9A826"/>
<path d="M80.6177 107.601C80.622 116.384 75.4019 119.453 68.9613 119.456C68.8117 119.456 68.6628 119.455 68.5146 119.452C68.2161 119.445 67.9208 119.432 67.6285 119.411C61.8154 119.002 57.2973 115.781 57.2933 107.612C57.2892 99.1589 68.088 88.4857 68.8979 87.6965L68.8993 87.6957C68.9301 87.6657 68.9458 87.6506 68.9458 87.6506C68.9458 87.6506 80.6135 98.8183 80.6177 107.601Z" fill="#F9A826"/>
<path d="M68.5361 118.113L72.7986 112.151L68.5257 118.767L68.5146 119.452C68.2161 119.445 67.9207 119.432 67.6284 119.411L68.0837 110.624L68.0801 110.556L68.0879 110.543L68.1312 109.713L63.8412 103.085L68.1438 109.091L68.1546 109.267L68.4985 102.628L64.8254 95.7783L68.5431 101.461L68.8979 87.6966L68.8993 87.6508L68.8993 87.6958L68.8444 98.5507L72.495 94.2456L68.8291 99.4855L68.7354 105.43L72.1448 99.7237L68.7222 106.304L68.6702 109.61L73.6181 101.666L68.6514 110.763L68.5361 118.113Z" fill="#3F3D56"/>
<path d="M408.47 105.025C408.47 105.025 410.29 117.306 409.835 118.216C409.38 119.126 411.199 124.129 418.477 122.765C425.755 121.4 428.484 111.848 428.484 111.848C428.484 111.848 422.571 104.115 423.481 101.841L408.47 105.025Z" fill="#A0616A"/>
<path d="M406.423 297.206V312.217L415.975 315.401L414.156 294.932L406.423 297.206Z" fill="#A0616A"/>
<path d="M441.903 299.026L440.538 317.675L448.726 312.672V297.661L441.903 299.026Z" fill="#A0616A"/>
<path d="M396.416 193.497C396.416 193.497 390.503 203.959 392.322 207.143C394.142 210.327 394.142 211.691 394.142 211.691C394.142 211.691 395.052 236.254 401.42 248.081C401.42 248.081 400.055 271.279 402.784 285.38L405.513 299.481L415.975 298.116L416.885 283.105C416.885 283.105 418.705 265.366 416.885 257.178C415.066 248.99 421.889 221.698 421.889 221.698L433.715 261.272C433.715 261.272 434.17 275.827 436.444 285.38C438.719 294.932 439.628 300.39 439.628 300.39L449.636 300.845C449.636 300.845 452.82 271.279 449.636 256.723C449.636 256.723 448.271 212.146 449.636 209.417C451 206.688 448.271 198.045 445.542 196.226C442.813 194.406 396.416 193.497 396.416 193.497Z" fill="#2F2E41"/>
<path d="M410.517 309.033C410.517 309.033 410.062 306.303 407.788 306.303H405.514L405.059 309.942L396.871 318.13C396.871 318.13 383.68 328.137 395.052 328.592C406.423 329.047 409.152 324.043 409.152 324.043C409.152 324.043 419.614 320.859 419.614 320.404C419.614 319.949 416.885 308.578 416.885 308.578L415.399 308.915L414.156 312.217L410.517 309.033Z" fill="#2F2E41"/>
<path d="M450.09 309.033C450.09 309.033 445.087 307.213 445.087 309.033V310.852C445.087 310.852 443.267 309.488 443.267 310.852C443.267 312.217 440.538 313.126 440.538 313.126L440.083 310.852C440.083 310.852 437.354 321.769 438.719 322.679C440.083 323.588 444.632 325.863 445.087 327.227C445.542 328.592 446.452 333.595 456.004 331.776C465.556 329.956 459.643 324.498 459.643 324.498L454.639 319.495L450.09 309.033Z" fill="#2F2E41"/>
<path d="M413.701 109.801C420.735 109.801 426.437 104.099 426.437 97.0649C426.437 90.0308 420.735 84.3286 413.701 84.3286C406.667 84.3286 400.965 90.0308 400.965 97.0649C400.965 104.099 406.667 109.801 413.701 109.801Z" fill="#A0616A"/>
<path d="M415.975 120.263C415.975 120.263 411.021 118.874 409.86 116.385C408.698 113.895 399.6 118.444 399.6 118.444L396.416 158.472L395.279 193.724C395.279 193.724 418.25 202.594 425.528 199.865C432.806 197.135 441.448 195.771 441.448 195.771L442.813 127.541L440.538 114.805C440.538 114.805 429.819 110.319 427.673 110.742C427.673 110.742 425.073 120.718 415.975 120.263Z" fill="#D0CDE1"/>
<path d="M409.502 112.757C409.502 112.757 407.333 114.805 406.423 114.805C405.514 114.805 390.958 115.714 389.593 121.628C388.229 127.541 391.868 144.826 391.868 144.826C391.868 144.826 392.322 162.566 394.597 168.479C396.871 174.392 394.824 178.259 394.824 178.259C394.824 178.259 391.868 193.497 394.597 194.861C397.326 196.226 402.754 198.319 402.754 198.319C402.754 198.319 410.062 190.313 407.788 178.941C405.514 167.569 402.329 151.194 404.149 145.736C405.968 140.277 409.502 112.757 409.502 112.757Z" fill="#575A89"/>
<path d="M382.315 177.576L385.499 183.49C385.499 183.49 400.51 200.32 403.239 190.767C405.968 181.215 392.322 178.941 392.322 178.941L388.229 174.847L382.315 177.576Z" fill="#A0616A"/>
<path d="M427.014 109.801C427.014 109.801 444.177 112.075 448.726 116.624C453.275 121.173 449.636 142.552 449.636 142.552C449.636 142.552 444.177 175.302 444.632 177.121C445.087 178.941 445.087 194.406 445.087 194.406C445.087 194.406 439.174 200.774 434.17 198.955C429.167 197.136 422.798 183.944 429.167 168.024C431.842 161.335 431.547 154.806 430.304 149.484C427.223 136.496 426.114 123.119 427.014 109.801V109.801Z" fill="#575A89"/>
<path d="M452.82 173.937L448.271 178.031C448.271 178.031 422.344 178.941 429.167 185.764C435.99 192.587 452.365 185.764 452.365 185.764L458.278 179.396L452.365 173.937H452.82Z" fill="#A0616A"/>
<path d="M403.446 83.6086L401.105 82.6714C401.105 82.6714 406 77.2822 412.81 77.7508L410.895 75.642C410.895 75.642 415.577 73.7676 419.834 78.6881C422.071 81.2747 424.66 84.3151 426.274 87.7401H428.781L427.735 90.0442L431.397 92.3482L427.638 91.9343C427.994 93.9235 427.872 95.9688 427.283 97.9016C427.283 97.9016 423.026 92.981 423.026 92.0438V94.3869C423.026 94.3869 420.685 92.2781 420.685 90.8722L419.408 92.5124L418.769 89.935L410.895 92.5124L412.172 90.4036L407.277 91.1066L409.192 88.5292C409.192 88.5292 405.108 92.1717 403.446 94.1526C401.192 96.8375 399.189 97.6673 399.189 97.6673C399.189 97.6673 397.274 87.1233 403.446 83.6086Z" fill="#2F2E41"/>
<path d="M393.232 119.808L389.138 121.628C389.138 121.628 372.763 143.461 371.399 148.01C370.034 152.559 368.669 163.021 381.86 179.396L390.048 175.302C390.048 175.302 380.951 162.111 384.135 157.107C387.319 152.104 394.597 143.461 394.597 143.461L393.232 119.808Z" fill="#575A89"/>
<path d="M445.997 116.169L448.726 116.624C448.726 116.624 482.841 141.642 480.112 151.194C477.382 160.746 458.278 181.215 458.278 181.215L451 174.392C451 174.392 466.921 155.743 460.552 151.194C454.184 146.645 445.997 138.913 445.997 138.913V116.169Z" fill="#575A89"/>
</g>
<defs>
<clipPath id="clip0">
<rect width="500" height="334.278" fill="white"/>
</clipPath>
</defs>
</svg>
