<svg xmlns="http://www.w3.org/2000/svg" xmlns:xlink="http://www.w3.org/1999/xlink" width="500" height="401" fill="none" xmlns:v="https://vecta.io/nano"><style><![CDATA[.B{fill:#f9a826}.C{fill:#e6e6e6}.D{fill:#e2e2e2}]]></style><g clip-path="url(#A)"><path d="M250.527 340.545a146.44 146.44 0 0 1-143.619-117.866c-6.61-33.226-1.492-67.717 14.478-97.595S163.19 71.79 194.5 58.826a146.43 146.43 0 0 1 177.791 53.933c18.822 28.168 27.294 61.99 23.973 95.706a146.43 146.43 0 0 1-42.184 89.191 145.46 145.46 0 0 1-47.475 31.815 145.49 145.49 0 0 1-56.068 11.074h0zm0-291.74c-80.122 0-145.307 65.185-145.307 145.307s65.185 145.306 145.307 145.306 145.306-65.183 145.306-145.306S330.65 48.805 250.527 48.805h0z" fill="#ccc"/><path d="M304.9 362.504V214.982H195.1v147.522H304.9z" fill="#2f2e41"/><g fill="#3f3d56"><path d="M323.76 210.477H176.24v58.56h147.52v-58.56zm0 65.315H176.24v58.56h147.52v-58.56zm0 65.316H176.24v58.558h147.52v-58.558z"/></g><g class="B"><path d="M323.76 235.306H176.24v9h147.52v-9zm0 65.314H176.24v9h147.52v-9zm0 65.317H176.24v9h147.52v-9zM295.045 222.3a3.38 3.38 0 0 0 3.378-3.378 3.38 3.38 0 0 0-3.378-3.378 3.38 3.38 0 0 0-3.378 3.378 3.38 3.38 0 0 0 3.378 3.378zm11.825 0a3.38 3.38 0 0 0 3.379-3.378 3.38 3.38 0 0 0-3.379-3.378 3.38 3.38 0 0 0-3.378 3.378 3.38 3.38 0 0 0 3.378 3.378zm11.824 0a3.38 3.38 0 0 0 3.378-3.378 3.38 3.38 0 0 0-3.378-3.378 3.38 3.38 0 0 0-3.379 3.378 3.38 3.38 0 0 0 3.379 3.378z"/><use xlink:href="#B"/><use xlink:href="#C"/><use xlink:href="#D"/><path d="M295.045 350.68a3.38 3.38 0 0 0 3.378-3.379 3.38 3.38 0 0 0-3.378-3.378 3.38 3.38 0 0 0-3.378 3.378 3.38 3.38 0 0 0 3.378 3.379zm11.825 0a3.38 3.38 0 0 0 3.379-3.379 3.38 3.38 0 0 0-3.379-3.378 3.38 3.38 0 0 0-3.378 3.378 3.38 3.38 0 0 0 3.378 3.379zm11.824 0a3.38 3.38 0 0 0 3.378-3.379 3.38 3.38 0 0 0-3.378-3.378 3.38 3.38 0 0 0-3.379 3.378 3.38 3.38 0 0 0 3.379 3.379z"/></g><path d="M500 399.103H0v1.126h500v-1.126z" fill="#3f3d56"/><path d="M136.193 152.627v104.725c0 2.2-.87 4.292-2.42 5.84s-3.65 2.42-5.84 2.42H87.234c-2.19 0-4.293-.87-5.843-2.42s-2.42-3.65-2.422-5.842V152.627c.001-2.192.872-4.293 2.422-5.843s3.652-2.42 5.843-2.42h4.937a3.93 3.93 0 0 0-.269 1.883c.066.64.288 1.254.647 1.788a3.92 3.92 0 0 0 1.411 1.275 3.93 3.93 0 0 0 1.845.463h23.203c.643-.001 1.277-.16 1.844-.463a3.92 3.92 0 0 0 1.412-1.275c.36-.534.58-1.148.647-1.788s-.026-1.287-.27-1.883h5.29c2.2.001 4.292.87 5.84 2.42s2.42 3.65 2.42 5.842h0z" class="C"/><path d="M133.482 164.364H81.68v72.072h51.802v-72.072z" fill="#fff"/><path d="M117.064 213.923H96.388v1.18h20.676v-1.18z" class="C"/><path d="M128.36 218.26H96.368v1.18h31.992v-1.18z" class="B"/><g class="C"><path d="M121.474 222.348H96.368v1.18h25.106v-1.18zm-10.338 4.087H96.368v1.182h14.768v-1.182zm7.384 4.087H96.368v1.182h22.152v-1.182z"/><use xlink:href="#E"/></g><path d="M89.375 217.67h-2.363v2.363h2.363v-2.363z" class="B"/><g class="C"><path d="M89.375 221.757h-2.363v2.363h2.363v-2.363zm0 4.087h-2.363v2.363h2.363v-2.363zm0 4.086h-2.363v2.363h2.363v-2.363zm28.727-56.557H97.27v20.832h20.832v-20.832zM319.254.078h-138.45v88.668h138.45V.078z"/></g><path d="M306.03 24.885H191.242V68.26H306.03V24.885z" fill="#fff"/><path d="M239.705 32.4h-27.55v1.574h27.55V32.4z" class="C"/><path d="M254.755 38.18H212.13v1.574h42.626V38.18z" class="B"/><g class="C"><path d="M245.58 43.626h-33.45V45.2h33.452v-1.574zm-13.774 5.444H212.13v1.574h19.677V49.07zm9.84 5.447H212.13v1.574h29.516v-1.574zM202.8 31.947h-3.148v3.15h3.148v-3.15z"/></g><path d="M202.81 37.393h-3.148v3.148h3.148v-3.148z" class="B"/><g class="C"><path d="M202.8 42.838h-3.148v3.148h3.148v-3.148zm0 5.446h-3.148v3.148h3.148v-3.148zm0 5.446h-3.148v3.148h3.148V53.73zm97.586-23.4H272.2v28.186h28.186V30.32z"/></g><path d="M319.194 0H180.746v5.882h138.448V0z" class="B"/><g fill="#fff"><use xlink:href="#F"/><path d="M189.255 4.188a1.18 1.18 0 1 0 0-2.361 1.18 1.18 0 1 0 0 2.361zm4.138 0a1.18 1.18 0 1 0 0-2.361 1.18 1.18 0 1 0 0 2.361z"/></g><g class="C"><path d="M411.964 165.995H378.18v17.455h33.784v-17.455zm0 62.5H378.18v17.455h33.784v-17.455z"/><path d="M395.072 234.126c15.548 0 28.153-12.605 28.153-28.153s-12.605-28.154-28.153-28.154-28.153 12.605-28.153 28.154 12.604 28.153 28.153 28.153z"/></g><path d="M395.072 227.932c12.128 0 21.96-9.83 21.96-21.96s-9.83-21.96-21.96-21.96-21.96 9.832-21.96 21.96 9.832 21.96 21.96 21.96z" fill="#fff"/><path d="M404.912 199.956h-17.03v.973h17.03v-.973z" class="D"/><path d="M414.216 203.53h-26.352v.973h26.352v-.973z" class="B"/><g class="D"><path d="M408.544 206.896h-20.68v.973h20.68v-.973zm-8.514 3.366h-12.165v.974h12.165v-.974zm6.08 3.368h-18.247v.973H406.1v-.973zm-24.006-13.954h-1.946v1.946h1.946v-1.946z"/></g><path d="M382.104 203.043h-1.946v1.946h1.946v-1.946z" class="B"/><g class="D"><path d="M382.104 206.4h-1.946v1.947h1.946V206.4zm0 3.366h-1.946v1.946h1.946v-1.946zm0 3.366h-1.946v1.947h1.946v-1.947z"/></g></g><defs><clipPath id="A"><path fill="#fff" d="M0 0h500v400.23H0z"/></clipPath><path id="B" d="M295.045 286.49a3.38 3.38 0 0 0 3.378-3.379 3.38 3.38 0 0 0-3.378-3.378 3.38 3.38 0 0 0-3.378 3.378 3.38 3.38 0 0 0 3.378 3.379z"/><path id="C" d="M306.87 286.49a3.38 3.38 0 0 0 3.379-3.379 3.38 3.38 0 0 0-3.379-3.378 3.38 3.38 0 0 0-3.378 3.378 3.38 3.38 0 0 0 3.378 3.379z"/><path id="D" d="M318.694 286.49a3.38 3.38 0 0 0 3.378-3.379 3.38 3.38 0 0 0-3.378-3.378 3.38 3.38 0 0 0-3.379 3.378 3.38 3.38 0 0 0 3.379 3.379z"/><path id="E" d="M89.375 213.583h-2.363v2.363h2.363v-2.363z"/><path id="F" d="M185.117 4.188a1.18 1.18 0 1 0 0-2.361 1.18 1.18 0 1 0 0 2.361z"/></defs></svg>