<svg xmlns="http://www.w3.org/2000/svg" width="378" height="266" fill="none" xmlns:v="https://vecta.io/nano"><g clip-path="url(#A)"><path d="M16.837 102.223c.36 22.315 8.702 24.73 18.944 22.403 11.7-2.66 21.304-10.992 26.037-22.018l3.264-7.603c2.17-5.055 2.243-10.765.203-15.874a20.74 20.74 0 0 0-11.081-11.368h0a20.74 20.74 0 0 0-7.917-1.68c-2.724-.035-5.428.467-7.957 1.477a20.74 20.74 0 0 0-6.786 4.41c-1.95 1.9-3.508 4.168-4.582 6.67-10.504 4.126-12.578 12.668-10.124 23.583z" fill="#2f2e41"/><g fill="#9f616a"><path d="M82.695 57.312l3.144-5.32a5 5 0 0 0 .36-4.342c-.272-.704-.7-1.337-1.25-1.852a4.97 4.97 0 0 0-1.933-1.122h0a4.99 4.99 0 0 0-2.35-.147 5 5 0 0 0-4.122 5.082l.185 5.718-14.773 40.487 8.056 1.682 12.686-40.186zM4.972 157.12l-3.87 4.817a5 5 0 0 0-.974 2.012 4.96 4.96 0 0 0 0 2.235c.17.735.502 1.423.974 2a5.02 5.02 0 0 0 1.753 1.386h0a4.99 4.99 0 0 0 2.306.48 4.96 4.96 0 0 0 2.27-.63c.696-.388 1.3-.936 1.73-1.6a5.01 5.01 0 0 0 .805-2.214l.632-5.686 20.4-37.97-7.735-2.812-18.28 37.97z"/></g><g fill="#2f2e41"><path d="M28.878 197.197l.703 8.438 37.87-3.642a8.34 8.34 0 0 0 3.655-1.323c1.097-.722 2.01-1.693 2.66-2.833a8.35 8.35 0 0 0 .371-7.551L57.707 155.01l-18.28-4.218c-15.075 11.538-1.512 24.272 15.553 37.153l2.025 1.52-28.125 7.734z"/><path d="M16.118 220.888c.462.066.932.012 1.367-.156a2.72 2.72 0 0 0 1.116-.804l12.388-14.996-.703-7.03-4.224-2.535c-.346-.207-.732-.337-1.133-.38a2.78 2.78 0 0 0-1.187.131 2.79 2.79 0 0 0-1.022.618c-.292.278-.52.616-.667.99l-8.08 20.47c-.15.382-.213.793-.182 1.203a2.72 2.72 0 0 0 .361 1.163c.207.355.49.66.832.89s.73.38 1.136.437h0z"/></g><path opacity=".2" d="M26.77 195.79l.703 8.438 37.87-3.642c1.305-.148 2.558-.6 3.655-1.323s2.01-1.693 2.66-2.834 1.025-2.42 1.09-3.73a8.35 8.35 0 0 0-.718-3.82l-10.104-22.62v-2.194l-4.22-9.057-18.28-4.218c-15.075 11.538-1.512 24.272 15.553 37.153l-.084.113-28.125 7.734z" fill="#000"/><g fill="#2f2e41"><path d="M12.602 218.076c.46.066.932.012 1.367-.156a2.73 2.73 0 0 0 1.116-.805l12.388-14.996-.703-7.03-4.224-2.534a2.77 2.77 0 0 0-1.133-.38 2.78 2.78 0 0 0-1.187.131c-.382.13-.73.34-1.022.62s-.52.616-.668.99l-8.08 20.468a2.72 2.72 0 0 0-.182 1.204c.03.4.154.807.36 1.162s.49.66.832.89.73.38 1.136.438h0z"/><path d="M25.363 194.385l.703 8.438 37.87-3.644a8.35 8.35 0 0 0 3.655-1.322c1.097-.722 2.01-1.692 2.66-2.833s1.025-2.418 1.1-3.73a8.35 8.35 0 0 0-.716-3.82l-10.107-22.62v-12.656l-24.6-4.22c-15.668 11.992-.402 25.275 17.578 38.672l-28.125 7.735z"/></g><g fill="#9f616a"><path d="M49.27 95.243a10.55 10.55 0 0 0 10.547-10.547 10.55 10.55 0 0 0-10.547-10.547 10.55 10.55 0 0 0-10.547 10.547 10.55 10.55 0 0 0 10.547 10.547z"/><path d="M35.207 102.274l14.766 9.844 12.656-2.812-7.03-7.032V91.728l-11.25-.703c-.236 4.212-2.65 8.066-9.14 11.25z"/></g><g fill="#f9a826"><path d="M33.097 151.494l27.422 3.515 6.328-29.53c2.94-7.84 1.253-14.765-4.2-20.95-.208-1.04-.763-1.98-1.573-2.666a4.7 4.7 0 0 0-2.89-1.108l-2.597.113c.294 9.326-6.577 7.08-16.875-.703l-1.244.373a6.98 6.98 0 0 0-3.888 2.944c-.9 1.416-1.26 3.1-1.014 4.77l1.134 7.654c.48 3.034 1.228 6.02 2.232 8.924 2.812 8.402 1.807 17.298-2.845 26.664z"/><path d="M20.44 119.853l12.656 4.22 5.625-20.4-1.906-.866a6.83 6.83 0 0 0-8.852 2.994l-7.524 14.044zm37.267-18.985l7.032 7.735 8.437-13.36-10.547-5.625-4.922 11.25z"/></g><g fill="#2f2e41"><path d="M36.964 81.532c6.628 2.5 13.7 2.24 21.094 0v-8.438H36.964v8.438zM365.9 226.372l-7.272 3.03-48.474-66.046-35.144 67.258-9.1-1.817 26.66-92.708h30.902l42.416 90.284z"/><path d="M375.663 241.78c-.403.1-.824.14-1.238.086a3.17 3.17 0 0 1-1.176-.397l-15.335-8.83c-.413-.238-.767-.57-1.033-.965a3.13 3.13 0 0 1-.499-1.323c-.062-.474-.015-.956.138-1.408a3.12 3.12 0 0 1 .747-1.201l1.37-1.37 7.27-.606 11.116 10.67a3.17 3.17 0 0 1-1.361 5.342zm-118.883 2.423a3.15 3.15 0 0 0 1.238.085 3.17 3.17 0 0 0 1.176-.396l15.335-8.83a3.12 3.12 0 0 0 1.033-.966c.265-.397.436-.85.5-1.323s.015-.955-.138-1.407a3.12 3.12 0 0 0-.747-1.201l-1.37-1.37-7.27-.606-11.116 10.67c-.404.4-.698.877-.852 1.416a3.17 3.17 0 0 0-.024 1.652 3.16 3.16 0 0 0 .811 1.439 3.17 3.17 0 0 0 1.426.836h0z"/></g><g fill="#ffb9b9"><path d="M272 39.745l-3.03 1.818-6.278-10.202a4.59 4.59 0 0 1-.308-4.216c.3-.676.74-1.272 1.308-1.738s1.242-.8 1.962-.94a4.59 4.59 0 0 1 3.703.823 4.58 4.58 0 0 1 1.269 1.468c.314.574.5 1.2.55 1.86L272 39.746zm83.925 79.43l1.256-3.302 11.243 4.136a4.58 4.58 0 0 1 1.806 1.214 4.57 4.57 0 0 1 1.043 1.91 4.6 4.6 0 0 1 .047 2.175 4.58 4.58 0 0 1-.96 1.952h0c-.42.502-.942.908-1.532 1.192a4.59 4.59 0 0 1-1.887.452c-.654.015-1.304-.112-1.905-.37s-1.14-.64-1.582-1.123l-7.53-8.236zM308.345 76.1a9.09 9.09 0 0 0 9.089-9.089 9.09 9.09 0 0 0-9.089-9.089 9.09 9.09 0 0 0-9.089 9.089 9.09 9.09 0 0 0 9.089 9.089z"/><path d="M316.222 86.4h-12.725V72.465l10.907-1.212 1.818 15.148z"/></g><g fill="#3f3d56"><path d="M325.31 139.723h-34.538c1.218-19.27 2.182-37.893 0-48.474l2.008-9.64a5.43 5.43 0 0 1 5.991-4.281l4.725.59c3.2 5.626 7.068 5.572 11.513.606h5.692a5.71 5.71 0 0 1 2.21.445 5.7 5.7 0 0 1 1.865 1.266 5.71 5.71 0 0 1 1.229 1.89c.28.705.417 1.46.402 2.218 1.482 6.8 1.976 13.758 1.464 20.688l-2.56 34.69z"/><path d="M267.14 39.745l4.848-2.424 26.055 43.02-7.27 10.907-23.632-51.504zm88.843 81.155l4.143-3.494-22.012-30.845a19.5 19.5 0 0 0-8.56-6.75 19.51 19.51 0 0 0-10.844-1.105l-.694.128L326.34 93.4l10.963 8.3 18.68 19.2z"/></g><path d="M318.856 61.646s1.7-3.736-2.717-5.435c0 0-3.737-6.114-11.21-2.038 0 0-5.096 2.038-5.096 7.473s-1.698 6.454-1.698 6.454 2.53-2.595 3.21-4.633 5.962-2.5 8-.462 7.134 1.698 7.134 1.698l-.34 7.473s1.698-4.416 2.378-4.416 1.358-6.114.34-6.114z" fill="#2f2e41"/><g fill="#e6e6e6"><path d="M318.017 265.042c30.714 0 55.613-1.297 55.613-2.896s-24.9-2.897-55.613-2.897-55.613 1.297-55.613 2.897 24.9 2.896 55.613 2.896zm-277.67-1.365c16.235 0 29.396-.686 29.396-1.53s-13.16-1.53-29.396-1.53-29.396.685-29.396 1.53 13.16 1.53 29.396 1.53z"/></g><path d="M264.94 51.79L86.235 67.806c-.877.078-1.75-.196-2.426-.76s-1.1-1.375-1.18-2.252l-3.973-44.33c-.078-.877.196-1.75.76-2.426s1.375-1.1 2.252-1.18L260.373.842c.878-.078 1.75.196 2.426.76s1.1 1.375 1.18 2.252l3.973 44.33c.078.877-.196 1.75-.76 2.426s-1.374 1.1-2.25 1.18h0z" fill="#f9a826"/><g fill="#fff"><path d="M107.117 54.2a13.96 13.96 0 0 0 13.955-13.955 13.96 13.96 0 0 0-13.955-13.955 13.96 13.96 0 0 0-13.955 13.955A13.95 13.95 0 0 0 107.117 54.2zm31.27-26.088a2.32 2.32 0 0 0-1.574.827 2.33 2.33 0 0 0-.53 1.697c.055.613.35 1.18.823 1.576a2.33 2.33 0 0 0 1.696.534l109.2-9.788a2.33 2.33 0 0 0 .872-.255 2.35 2.35 0 0 0 .707-.57 2.34 2.34 0 0 0 .533-1.7 2.31 2.31 0 0 0-.256-.87c-.142-.27-.336-.5-.57-.707s-.505-.343-.797-.434-.6-.124-.903-.096l-109.2 9.788zm1.246 13.9a2.32 2.32 0 0 0-.872.255 2.31 2.31 0 0 0-.708.57c-.196.235-.345.505-.436.797a2.32 2.32 0 0 0-.098.903 2.34 2.34 0 0 0 .257.872c.142.27.336.5.57.707a2.3 2.3 0 0 0 .798.434 2.32 2.32 0 0 0 .903.095l109.208-9.788a2.32 2.32 0 0 0 .872-.255 2.31 2.31 0 0 0 .708-.57 2.32 2.32 0 0 0 .533-1.7c-.028-.305-.115-.6-.257-.87a2.35 2.35 0 0 0-.57-.707 2.31 2.31 0 0 0-.798-.434 2.32 2.32 0 0 0-.903-.096l-109.208 9.788z"/></g></g><defs><clipPath id="A"><path fill="#fff" d="M0 .828h378v264.214H0z"/></clipPath></defs></svg>