<svg xmlns="http://www.w3.org/2000/svg" width="500" height="288" fill="none" xmlns:v="https://vecta.io/nano"><style><![CDATA[.B{fill:#3f3d56}.C{fill:#f9a826}.D{fill:#f2f2f2}]]></style><g clip-path="url(#A)"><path d="M108.336 255.34c14.36 0 26.003-11.642 26.003-26.002s-11.642-26.003-26.003-26.003-26.003 11.642-26.003 26.003 11.642 26.002 26.003 26.002z" class="D"/><path d="M112.564 251.536c14.36 0 26.003-11.642 26.003-26.003s-11.642-26.003-26.003-26.003-26.003 11.642-26.003 26.003 11.642 26.003 26.003 26.003z" class="C"/><g class="B"><path d="M455.23 196.762H133.506v.877H455.23v-.877zM300.127 8.514H185.935V6.16h-51.78v2.354H19.492c-1.014 0-2.02.2-2.956.588s-1.8.957-2.506 1.674a7.75 7.75 0 0 0-1.674 2.506c-.388.936-.588 1.942-.588 2.956v156.364c0 2.05.814 4.014 2.262 5.462s3.413 2.263 5.462 2.263h280.635a7.72 7.72 0 0 0 7.725-7.725V16.24c0-1.014-.2-2.02-.588-2.956a7.74 7.74 0 0 0-1.675-2.506c-.717-.717-1.57-1.286-2.506-1.674a7.72 7.72 0 0 0-2.956-.588h0z"/></g><g class="C"><path d="M297.496 22.165H22.124v155.338h275.372V22.165zm-137.92-4.235c1.56 0 2.824-1.264 2.824-2.824s-1.265-2.824-2.824-2.824-2.825 1.265-2.825 2.824 1.265 2.824 2.825 2.824z"/></g><path opacity=".1" d="M218.744 177.504H22.124V22.166l196.62 155.338z" fill="#000"/><path d="M65.21 165.88c14.62 0 26.47-11.85 26.47-26.47s-11.85-26.47-26.47-26.47-26.47 11.85-26.47 26.47 11.85 26.47 26.47 26.47z" class="D"/><g class="B"><path d="M249.55 105.94h-25.723v5.375h25.723v-5.375zm31.097-41.847H192.73v2.303h87.918v-2.303zm0 7.295H192.73v2.303h87.918v-2.303zm0 7.294H192.73v2.303h87.918v-2.303zm0 7.295H192.73v2.303h87.918v-2.303zm0 7.293H192.73v2.303h87.918V93.27z"/></g><path d="M280.647 25.317h-10.75v10.75h10.75v-10.75z" class="D"/><g class="B"><path d="M285.638 41.058h-13.054V28.004h13.054v13.053zm-12.486-.568h11.918V28.572h-11.918V40.5zm42.432 134.2H288.7v-1.936c0-.05-.01-.1-.03-.147a.39.39 0 0 0-.355-.237h-9.214c-.05 0-.1.01-.147.03a.38.38 0 0 0-.124.083c-.034.035-.064.078-.084.125a.37.37 0 0 0-.03.147v1.936h-5.76v-1.936c0-.05-.01-.1-.03-.147a.39.39 0 0 0-.208-.208c-.046-.02-.096-.03-.147-.03h-9.214c-.05 0-.1.01-.147.03a.38.38 0 0 0-.124.083c-.034.035-.064.078-.084.125a.37.37 0 0 0-.03.147v1.936h-5.76v-1.936c0-.05-.01-.1-.03-.147a.38.38 0 0 0-.083-.125.39.39 0 0 0-.125-.083c-.046-.02-.096-.03-.146-.03h-9.215c-.05 0-.1.01-.146.03a.39.39 0 0 0-.125.083c-.036.036-.064.078-.083.125a.39.39 0 0 0-.03.147v1.936h-5.76v-1.936c0-.05-.01-.1-.03-.147a.38.38 0 0 0-.083-.125c-.036-.035-.078-.064-.124-.083a.39.39 0 0 0-.147-.03h-9.214c-.05 0-.1.01-.147.03a.39.39 0 0 0-.125.083c-.036.036-.064.078-.083.125a.39.39 0 0 0-.03.147v1.936h-5.76v-1.936c0-.05-.01-.1-.03-.147s-.048-.1-.084-.125-.078-.064-.124-.083a.39.39 0 0 0-.147-.03h-9.214a.39.39 0 0 0-.355.237c-.02.046-.03.096-.03.147v1.936h-5.76v-1.936c0-.05-.01-.1-.03-.147a.39.39 0 0 0-.208-.208c-.046-.02-.096-.03-.147-.03h-9.214c-.05 0-.1.01-.147.03a.38.38 0 0 0-.124.083c-.034.035-.064.078-.084.125a.37.37 0 0 0-.03.147v1.936h-5.76v-1.936c0-.05-.01-.1-.03-.147a.38.38 0 0 0-.083-.125.39.39 0 0 0-.125-.083c-.046-.02-.096-.03-.147-.03h-72.177c-.05 0-.1.01-.147.03a.38.38 0 0 0-.124.083c-.034.035-.064.078-.084.125a.37.37 0 0 0-.03.147v1.936h-5.76v-1.936c0-.05-.01-.1-.03-.147a.38.38 0 0 0-.083-.125.39.39 0 0 0-.125-.083c-.046-.02-.096-.03-.147-.03h-9.214c-.05 0-.1.01-.147.03s-.088.048-.124.083-.064.078-.083.125a.39.39 0 0 0-.03.147v1.936H99.82v-1.936a.38.38 0 0 0-.029-.147c-.02-.047-.048-.1-.083-.125a.39.39 0 0 0-.272-.112h-9.214a.39.39 0 0 0-.271.112c-.036.036-.064.078-.083.125a.38.38 0 0 0-.029.147v1.936h-5.76v-1.936a.38.38 0 0 0-.029-.147c-.02-.047-.048-.1-.083-.125a.39.39 0 0 0-.271-.112H74.48a.39.39 0 0 0-.272.112c-.036.036-.064.078-.083.125a.38.38 0 0 0-.029.147v1.936h-5.76v-1.936a.38.38 0 0 0-.112-.272.39.39 0 0 0-.272-.112H58.74a.39.39 0 0 0-.272.112c-.036.036-.064.078-.083.125a.38.38 0 0 0-.029.147v1.936h-5.76v-1.936a.38.38 0 0 0-.112-.272.39.39 0 0 0-.272-.112H43a.39.39 0 0 0-.272.112c-.036.036-.064.078-.083.125a.38.38 0 0 0-.029.147v1.936h-5.76v-1.936a.38.38 0 0 0-.029-.147c-.02-.047-.048-.1-.083-.125s-.078-.064-.124-.083a.39.39 0 0 0-.147-.029H27.26a.39.39 0 0 0-.147.029c-.047.02-.1.048-.125.083a.38.38 0 0 0-.112.272v1.936H9.214c-2.444 0-4.787.97-6.515 2.7S0 181.45 0 183.893v4.167c0 2.443.97 4.787 2.7 6.515a9.22 9.22 0 0 0 6.515 2.7h306.37c2.443 0 4.787-.97 6.515-2.7a9.22 9.22 0 0 0 2.7-6.515v-4.167c0-2.444-.97-4.787-2.7-6.515a9.22 9.22 0 0 0-6.515-2.7zM71.62 155.942a33.36 33.36 0 0 1-18.532-5.621c-5.486-3.666-9.76-8.876-12.286-14.97s-3.185-12.802-1.898-19.273a33.36 33.36 0 0 1 9.129-17.08 33.37 33.37 0 0 1 17.08-9.13 33.36 33.36 0 0 1 34.244 14.184c3.666 5.486 5.622 11.935 5.622 18.533a33.4 33.4 0 0 1-9.78 23.576 33.39 33.39 0 0 1-23.576 9.78zm0-65.837a32.48 32.48 0 0 0-31.855 38.816c1.253 6.3 4.347 12.088 8.9 16.63s10.33 7.636 16.63 8.9a32.56 32.56 0 0 0 18.766-1.848 32.48 32.48 0 0 0 14.576-11.962 32.47 32.47 0 0 0 5.474-18.045 32.52 32.52 0 0 0-9.524-22.956c-6.09-6.09-14.347-9.515-22.957-9.525h0zm297.583-75.493H257.28v.878h111.923v-.878zM500 246.36H178.275v.878H500v-.878zm-303.5 40.38H84.567v.878H196.5v-.878z"/></g><path d="M219.02 241.73h-12.3v12.3h12.3v-12.3z" class="C"/><path d="M226.48 246.998h-14.923v-14.923h14.923v14.923zm-14.274-.648h13.626v-13.626h-13.626v13.626z" class="B"/><path d="M361.667 9.984h-12.3v12.3h12.3v-12.3z" class="C"/><path d="M369.128 15.25h-14.923V.328h14.923V15.25zm-14.274-.65h13.625V.977h-13.625v13.625z" class="B"/><path d="M485.44 241.73h-12.3v12.3h12.3v-12.3z" class="C"/><g class="B"><path d="M492.902 246.998H477.98v-14.923h14.923v14.923zm-14.274-.648h13.626v-13.626h-13.626v13.626zM464 102.138h-1.044v-28.6a16.55 16.55 0 0 0-1.26-6.335 16.54 16.54 0 0 0-3.588-5.37 16.57 16.57 0 0 0-5.37-3.588c-2.008-.832-4.16-1.26-6.335-1.26H385.82c-2.174 0-4.326.428-6.335 1.26a16.53 16.53 0 0 0-5.37 3.588 16.57 16.57 0 0 0-3.588 5.37 16.55 16.55 0 0 0-1.26 6.335v156.905a16.55 16.55 0 0 0 1.26 6.334 16.52 16.52 0 0 0 3.588 5.37 16.59 16.59 0 0 0 5.37 3.59 16.53 16.53 0 0 0 6.335 1.26h60.594c2.174 0 4.326-.428 6.335-1.26s3.833-2.05 5.37-3.6a16.57 16.57 0 0 0 3.588-5.37 16.55 16.55 0 0 0 1.26-6.334V122.496H464v-20.358z"/></g><path d="M459.44 74.5v156.676a12.36 12.36 0 0 1-3.619 8.742c-2.318 2.318-5.462 3.62-8.74 3.622h-60.886c-3.28-.001-6.423-1.304-8.74-3.622a12.36 12.36 0 0 1-3.619-8.742V74.5a12.36 12.36 0 0 1 12.36-12.36h7.387a5.87 5.87 0 0 0 .564 5.493 5.87 5.87 0 0 0 4.874 2.596h34.714c.963 0 1.91-.237 2.76-.69a5.88 5.88 0 0 0 3.081-4.583 5.87 5.87 0 0 0-.404-2.817h7.91c3.278 0 6.422 1.303 8.74 3.62s3.62 5.462 3.62 8.74h0z" class="C"/><g class="B"><path d="M425.706 165.456h-18.138v5.375h18.138v-5.375zm21.927-41.848H385.64v2.304h61.992v-2.304zm0 7.295H385.64v2.303h61.992v-2.303zm0 7.294H385.64v2.304h61.992v-2.304zm0 7.295H385.64v2.303h61.992v-2.303zm0 7.294H385.64v2.304h61.992v-2.304z"/></g><path d="M418.803 93.017h-10.75v10.75h10.75v-10.75z" class="D"/><path d="M412.168 95.706v13.054h13.053V95.706h-13.053zm12.487 12.487h-11.92v-11.92h11.92v11.92z" class="B"/><path opacity=".1" d="M459.44 214.454v16.732a12.36 12.36 0 0 1-3.619 8.742c-2.318 2.318-5.462 3.62-8.74 3.622h-60.886c-3.28-.001-6.423-1.304-8.74-3.622a12.36 12.36 0 0 1-3.619-8.742v-84.364l85.606 67.632z" fill="#000"/><path d="M411.37 238.472c10.634 0 19.254-8.62 19.254-19.254s-8.62-19.254-19.254-19.254-19.254 8.62-19.254 19.254 8.62 19.254 19.254 19.254z" class="D"/><g class="B"><path d="M140.528 287.617c-7.552 0-14.935-2.24-21.215-6.435a38.19 38.19 0 0 1 13.766-69.203 38.19 38.19 0 0 1 22.062 2.173c6.978 2.9 12.942 7.785 17.137 14.065a38.18 38.18 0 0 1 6.436 21.214 38.23 38.23 0 0 1-11.197 26.989c-7.16 7.16-16.865 11.186-27 11.197zm0-75.493a37.31 37.31 0 0 0-20.727 6.287c-6.135 4.1-10.917 9.926-13.74 16.743a37.32 37.32 0 0 0-2.123 21.556 37.31 37.31 0 0 0 10.211 19.102c5.217 5.218 11.865 8.77 19.102 10.2a37.3 37.3 0 0 0 21.555-2.123 37.31 37.31 0 0 0 23.031-34.468c-.01-9.9-3.945-19.374-10.94-26.368a37.35 37.35 0 0 0-26.368-10.939h0zm276.517 21.946a24.14 24.14 0 0 1-22.302-14.902 24.14 24.14 0 0 1 5.233-26.308c3.376-3.376 7.678-5.675 12.36-6.607s9.536-.453 13.947 1.374 8.182 4.92 10.834 8.9a24.14 24.14 0 0 1 4.069 13.412 24.17 24.17 0 0 1-24.141 24.14h0zm0-47.403c-4.6 0-9.098 1.365-12.924 3.92a23.26 23.26 0 0 0-8.568 10.44c-1.76 4.25-2.22 8.928-1.323 13.44s3.113 8.658 6.366 11.9 7.398 5.47 11.9 6.367a23.27 23.27 0 0 0 13.44-1.324c4.25-1.76 7.884-4.743 10.44-8.568a23.26 23.26 0 0 0 3.92-12.924c-.007-6.168-2.46-12.08-6.82-16.44s-10.274-6.815-16.442-6.822z"/></g></g><defs><clipPath id="A"><path fill="#fff" d="M0 .328h500v287.29H0z"/></clipPath></defs></svg>