<svg xmlns="http://www.w3.org/2000/svg" xmlns:xlink="http://www.w3.org/1999/xlink" width="500" height="336" fill="none" xmlns:v="https://vecta.io/nano"><style><![CDATA[.B{opacity:.1}.C{fill:#000}.D{fill:#f9a826}.E{fill:#3f3d56}.F{fill:#2f2e41}.G{opacity:.03}.H{fill:#fbbebe}.I{stroke-width:4}.J{stroke-miterlimit:10}.K{fill:#ff6f61}]]></style><g clip-path="url(#C)"><path d="M478.236 150.834c-1.964-2.755-4.05-5.42-6.258-7.997-11.174-13.074-25.087-23.53-40.753-30.627-4.28-1.94-8.676-3.617-13.16-5.02-3.115-.976-6.282-1.818-9.503-2.525l-6.078-1.19c-15.305-2.56-30.966-2.057-46.075 1.484a117.17 117.17 0 0 0-41.938 19.139 113.47 113.47 0 0 0-9.175-.737l-.367-.976a151.61 151.61 0 0 0-3.32-8.081C295 99.437 286.15 85.682 275.345 73.528l-1.498-1.658c-7.2-7.875-15.176-15.005-23.805-21.284-26.823-19.482-59.122-29.977-92.273-29.983h-.223a154.64 154.64 0 0 0-7.327.173l-9.373.707-2.306.26-9.474 1.43a146.27 146.27 0 0 0-7.462 1.553c-33.52 7.89-63.542 26.52-85.493 53.05a150.97 150.97 0 0 0-7.576 9.945c-1.14 1.625-2.252 3.262-3.325 4.93l-1.532 2.407c-1.667 2.668-3.246 5.388-4.74 8.16-1.59 2.938-3.09 5.93-4.495 8.973a.64.64 0 0 0-.034.076c-4.514 9.783-8.002 20.007-10.408 30.51h0a152.84 152.84 0 0 0-1.683 8.359l-.53 3.24-.05.362c-.42 2.946-.795 5.892-1.07 8.893l-.366.033c.03.09.06.177.08.27a2.79 2.79 0 0 0 .244.13l-.093 1.145a3.62 3.62 0 0 1-.08 1.014A155.03 155.03 0 0 0 0 178.153c-.042 25.427 6.103 50.482 17.904 73.005l.164.31a158.18 158.18 0 0 0 50.354 56.591c16.793 11.566 35.683 19.74 55.6 24.062l3.48.71c4.81.932 9.695 1.633 14.66 2.104 5.05.49 10.175.734 15.374.737a158.49 158.49 0 0 0 21.604-1.473H364.5l1.507.23c22.692 3.347 45.868-.054 66.64-9.78s38.228-25.347 50.19-44.92 17.904-42.23 17.086-65.152-8.36-45.1-21.688-63.768v.02z" fill="url(#A)"/><g class="D"><path opacity=".3" d="M416.246 237.05l-.143-4.1-.375-5.114a115.3 115.3 0 0 0-2.285-14.309l-.148-.636c-.84-3.634-1.847-7.2-3.017-10.703a110.79 110.79 0 0 0-2.589-6.923c-.33-.817-.673-1.623-1.027-2.42-1.627-3.743-3.453-7.396-5.47-10.943h0l-.265-.463c-.6-1.06-1.263-2.104-1.886-3.16l-.256-.42c-.122-.197-.244-.366-.35-.555v-.025a109.39 109.39 0 0 0-2.55-3.868c-2.748-3.985-5.742-7.794-8.965-11.406h0a116.93 116.93 0 0 0-15.61-14.554c-1.402-1.073-2.82-2.125-4.272-3.144a115.07 115.07 0 0 0-52.517-20.151c-3.022-.368-6.08-.613-9.175-.737a79.32 79.32 0 0 0-2.285-.067 85.1 85.1 0 0 0-2.526-.03c-4.94 0-9.878.312-14.78.935-8.187 1.046-16.238 2.968-24.015 5.732A115.83 115.83 0 0 0 161.616 72.37a114.11 114.11 0 0 0-12.357.661 37.51 37.51 0 0 0-1.363.147 115.24 115.24 0 0 0-16.486 3.178 115.71 115.71 0 0 0-5.135-7.736c-1.814-2.504-3.657-4.878-5.627-7.193-1.683-1.964-3.42-3.875-5.2-5.732a2.4 2.4 0 0 0-.177-.177 115.25 115.25 0 0 0-8.813-8.148c-1.642-1.372-3.32-2.702-5.05-3.973a109.63 109.63 0 0 0-6.662-4.604c-1.6-1.027-3.224-2.01-4.874-2.946-20.75 9.91-39.1 24.218-53.75 41.932-2.66 3.207-5.185 6.522-7.576 9.945-1.14 1.625-2.252 3.262-3.325 4.928l-1.532 2.407a146.69 146.69 0 0 0-4.739 8.16c-1.59 2.938-3.09 5.93-4.495 8.973a.64.64 0 0 0-.034.076c-4.514 9.783-8.002 20.007-10.408 30.51h0a152.84 152.84 0 0 0-1.683 8.359l-.53 3.24-.05.362c-.42 2.946-.795 5.892-1.07 8.893l-.366.033c.03.09.06.177.08.27a2.79 2.79 0 0 0 .244.13l-.093 1.145a3.62 3.62 0 0 1-.08 1.014A155.03 155.03 0 0 0 0 178.153c-.042 25.427 6.103 50.482 17.904 73.005.14.02.282.042.42.055 14.825 1.807 29.86.74 44.28-3.14 1.313 2.166 2.696 4.284 4.15 6.355a110.24 110.24 0 0 0 3.333 4.52 116.31 116.31 0 0 0 34.996 30.173c.594.337 1.195.66 1.797.985a113.98 113.98 0 0 0 16.856 7.382c2.245.783 4.533 1.497 6.865 2.142.13.034.26.076.39.105 7.31 1.998 14.8 3.266 22.36 3.788 2.728.2 5.48.3 8.258.3a117.01 117.01 0 0 0 18.662-1.498 114.29 114.29 0 0 0 11.439-2.471h0a111.94 111.94 0 0 0 8.691-2.706c.8 1.372 1.626 2.724 2.48 4.057 2.907 4.567 6.135 8.92 9.66 13.03 1.765 2.07 3.604 4.075 5.518 6.014a116.17 116.17 0 0 0 16.603 13.973H364.5l1.507.23a116.82 116.82 0 0 0 16.948-14.187 115.44 115.44 0 0 0 31.608-61.579 116.62 116.62 0 0 0 .956-6.759 116.89 116.89 0 0 0 .728-12.891v-1.987z"/><use xlink:href="#D"/></g><use xlink:href="#D" opacity=".2" class="C"/><g class="E"><use xlink:href="#E"/><path d="M83.035 212.75c1.258 0 2.277-1.336 2.277-2.984s-1.02-2.984-2.277-2.984-2.277 1.336-2.277 2.984 1.02 2.984 2.277 2.984z"/><path d="M83.035 209.104c1.258 0 2.277-1.336 2.277-2.984s-1.02-2.984-2.277-2.984-2.277 1.336-2.277 2.984 1.02 2.984 2.277 2.984z"/><path d="M83.035 205.46c1.258 0 2.277-1.336 2.277-2.984s-1.02-2.984-2.277-2.984-2.277 1.336-2.277 2.984 1.02 2.984 2.277 2.984z"/><path d="M83.035 201.815c1.258 0 2.277-1.336 2.277-2.984s-1.02-2.984-2.277-2.984-2.277 1.336-2.277 2.984 1.02 2.984 2.277 2.984z"/><path d="M83.035 198.17c1.258 0 2.277-1.336 2.277-2.984s-1.02-2.984-2.277-2.984-2.277 1.336-2.277 2.984 1.02 2.984 2.277 2.984z"/><path d="M83.035 194.525c1.258 0 2.277-1.336 2.277-2.984s-1.02-2.984-2.277-2.984-2.277 1.336-2.277 2.984 1.02 2.984 2.277 2.984z"/></g><path d="M91.56 166.596a11.04 11.04 0 0 0 .842-1.263l-5.985-.98 6.473.046c.62-1.352.958-2.815.993-4.3a10.94 10.94 0 0 0-.787-4.344l-8.687 4.503 7.997-5.892c-.75-1.3-1.757-2.43-2.963-3.322s-2.582-1.527-4.043-1.863-2.976-.37-4.45-.094a10.91 10.91 0 0 0-7.217 4.887c-.803 1.267-1.336 2.685-1.566 4.167s-.152 2.995.228 4.446a10.92 10.92 0 0 0 1.985 3.985c-.492.616-.915 1.283-1.263 2l7.774 4.036-8.287-2.782c-.582 1.72-.727 3.558-.42 5.348s1.056 3.474 2.18 4.9c-1.266 1.6-2.054 3.543-2.273 5.58s.14 4.094 1.034 5.936a10.91 10.91 0 0 0 9.817 6.146 10.91 10.91 0 0 0 9.817-6.146c.895-1.842 1.253-3.9 1.034-5.936s-1.007-3.97-2.273-5.58a10.91 10.91 0 0 0 0-13.493l.042.025z" class="D"/><path d="M72.07 173.342c0 2.444.823 4.816 2.336 6.734a10.92 10.92 0 0 0-1.239 11.516c.895 1.842 2.3 3.395 4.026 4.482a10.91 10.91 0 0 0 11.582 0c1.736-1.087 3.13-2.64 4.026-4.482s1.253-3.9 1.034-5.936-1.007-3.97-2.273-5.58c1.452-1.843-19.49-7.958-19.49-6.734z" class="C G"/><g class="E"><path d="M107.024 226.074c1.258 0 2.277-1.336 2.277-2.984s-1.02-2.984-2.277-2.984-2.277 1.336-2.277 2.984 1.02 2.984 2.277 2.984z"/><path d="M107.024 222.43c1.258 0 2.277-1.336 2.277-2.984s-1.02-2.984-2.277-2.984-2.277 1.336-2.277 2.984 1.02 2.984 2.277 2.984z"/><path d="M107.024 218.784c1.258 0 2.277-1.336 2.277-2.984s-1.02-2.984-2.277-2.984-2.277 1.336-2.277 2.984 1.02 2.984 2.277 2.984z"/><path d="M107.024 215.14c1.258 0 2.277-1.336 2.277-2.984s-1.02-2.984-2.277-2.984-2.277 1.335-2.277 2.984 1.02 2.984 2.277 2.984z"/><path d="M107.024 211.495c1.258 0 2.277-1.336 2.277-2.984s-1.02-2.984-2.277-2.984-2.277 1.336-2.277 2.984 1.02 2.984 2.277 2.984z"/><path d="M107.024 207.85c1.258 0 2.277-1.336 2.277-2.984s-1.02-2.984-2.277-2.984-2.277 1.336-2.277 2.984 1.02 2.984 2.277 2.984z"/><path d="M107.024 204.205c1.258 0 2.277-1.336 2.277-2.984s-1.02-2.984-2.277-2.984-2.277 1.336-2.277 2.984 1.02 2.984 2.277 2.984z"/></g><path d="M115.55 176.276c.3-.4.59-.823.842-1.263l-5.985-.98 6.473.046a10.95 10.95 0 0 0 .994-4.301 10.96 10.96 0 0 0-.787-4.344l-8.687 4.503 7.996-5.892c-.748-1.3-1.757-2.43-2.962-3.322s-2.582-1.527-4.043-1.863a10.91 10.91 0 0 0-4.451-.094c-1.474.275-2.876.85-4.118 1.692s-2.296 1.93-3.1 3.195a10.91 10.91 0 0 0-1.566 4.167c-.23 1.482-.152 2.996.228 4.446a10.92 10.92 0 0 0 1.985 3.985 10.91 10.91 0 0 0-1.263 1.99l7.773 4.037-8.287-2.782a10.91 10.91 0 0 0-.419 5.347c.307 1.79 1.056 3.474 2.18 4.9-1.266 1.6-2.054 3.543-2.273 5.58s.14 4.094 1.034 5.936a10.91 10.91 0 0 0 4.026 4.482c1.736 1.087 3.743 1.664 5.79 1.664s4.055-.577 5.79-1.664a10.91 10.91 0 0 0 4.026-4.482 10.92 10.92 0 0 0 1.034-5.936c-.22-2.036-1.007-3.97-2.274-5.58a10.91 10.91 0 0 0 2.337-6.747c0-2.447-.823-4.823-2.337-6.746l.042.025z" class="D"/><path d="M96.06 183.022c0 2.444.823 4.816 2.336 6.734-1.266 1.6-2.054 3.544-2.273 5.58s.14 4.093 1.034 5.936 2.3 3.395 4.026 4.482a10.91 10.91 0 0 0 11.582 0c1.736-1.087 3.13-2.64 4.026-4.482s1.253-3.9 1.034-5.936a10.92 10.92 0 0 0-2.274-5.58c1.452-1.843-19.5-7.958-19.5-6.734z" class="C G"/><g class="E"><use xlink:href="#F"/><path d="M261.486 231.267c1.257 0 2.277-1.336 2.277-2.984s-1.02-2.984-2.277-2.984-2.277 1.336-2.277 2.984 1.02 2.984 2.277 2.984z"/><path d="M261.486 227.623c1.257 0 2.277-1.336 2.277-2.984s-1.02-2.984-2.277-2.984-2.277 1.336-2.277 2.984 1.02 2.984 2.277 2.984z"/><path d="M261.486 223.978c1.257 0 2.277-1.336 2.277-2.984s-1.02-2.984-2.277-2.984-2.277 1.336-2.277 2.984 1.02 2.984 2.277 2.984z"/><path d="M261.486 220.333c1.257 0 2.277-1.336 2.277-2.984s-1.02-2.984-2.277-2.984-2.277 1.336-2.277 2.984 1.02 2.984 2.277 2.984z"/><path d="M261.486 216.688c1.257 0 2.277-1.336 2.277-2.984s-1.02-2.984-2.277-2.984-2.277 1.336-2.277 2.984 1.02 2.984 2.277 2.984z"/><path d="M261.486 213.044c1.257 0 2.277-1.336 2.277-2.984s-1.02-2.984-2.277-2.984-2.277 1.336-2.277 2.984 1.02 2.984 2.277 2.984z"/></g><path d="M270.013 185.114a11.07 11.07 0 0 0 .841-1.262l-5.984-.98 6.473.046a10.95 10.95 0 0 0 .206-8.645l-8.687 4.504 7.997-5.892c-.75-1.3-1.758-2.43-2.963-3.323a10.92 10.92 0 0 0-4.043-1.863c-1.46-.336-2.977-.368-4.45-.093a10.92 10.92 0 0 0-4.117 1.691c-1.242.84-2.297 1.93-3.1 3.196a10.9 10.9 0 0 0-1.566 4.167 10.91 10.91 0 0 0 .229 4.445c.38 1.45 1.056 2.807 1.985 3.985-.492.616-.915 1.283-1.263 1.99l7.774 4.036-8.288-2.782a10.92 10.92 0 0 0-.419 5.347c.307 1.8 1.056 3.474 2.18 4.9a10.91 10.91 0 0 0-1.24 11.515c.895 1.843 2.3 3.396 4.026 4.483a10.91 10.91 0 0 0 11.582 0c1.736-1.087 3.13-2.64 4.026-4.483a10.91 10.91 0 0 0 1.034-5.935c-.22-2.036-1.007-3.97-2.273-5.58a10.91 10.91 0 0 0 0-13.493l.042.025z" class="D"/><path d="M250.522 191.86c0 2.443.823 4.815 2.336 6.734-1.266 1.6-2.054 3.543-2.273 5.58a10.9 10.9 0 0 0 5.059 10.417c1.736 1.087 3.743 1.664 5.79 1.664s4.055-.577 5.79-1.664a10.91 10.91 0 0 0 5.06-10.417c-.22-2.037-1.007-3.97-2.273-5.58 1.452-1.844-19.49-7.96-19.49-6.734z" class="C G"/><g class="E"><path d="M285.476 249.643c1.257 0 2.277-1.336 2.277-2.984s-1.02-2.984-2.277-2.984-2.277 1.336-2.277 2.984 1.02 2.984 2.277 2.984z"/><path d="M285.476 245.998c1.257 0 2.277-1.336 2.277-2.984s-1.02-2.984-2.277-2.984-2.277 1.336-2.277 2.984 1.02 2.984 2.277 2.984z"/><path d="M285.476 242.353c1.257 0 2.277-1.336 2.277-2.984s-1.02-2.984-2.277-2.984-2.277 1.336-2.277 2.984 1.02 2.984 2.277 2.984z"/><path d="M285.476 238.71c1.257 0 2.277-1.336 2.277-2.985s-1.02-2.984-2.277-2.984-2.277 1.336-2.277 2.984 1.02 2.985 2.277 2.985z"/><path d="M285.476 235.064c1.257 0 2.277-1.336 2.277-2.984s-1.02-2.984-2.277-2.984-2.277 1.336-2.277 2.984 1.02 2.984 2.277 2.984z"/><path d="M285.476 231.42c1.257 0 2.277-1.336 2.277-2.984s-1.02-2.984-2.277-2.984-2.277 1.336-2.277 2.984 1.02 2.984 2.277 2.984z"/><path d="M285.476 227.774c1.257 0 2.277-1.336 2.277-2.984s-1.02-2.984-2.277-2.984-2.277 1.336-2.277 2.984 1.02 2.984 2.277 2.984z"/></g><path d="M294.003 199.845c.31-.4.6-.823.84-1.263l-5.985-.98 6.474.046c.62-1.35.957-2.815.993-4.3s-.233-2.964-.787-4.344l-8.687 4.504 7.997-5.893a10.92 10.92 0 0 0-2.963-3.322 10.93 10.93 0 0 0-4.043-1.863 10.91 10.91 0 0 0-4.451-.093c-1.474.275-2.876.85-4.117 1.69s-2.297 1.93-3.1 3.195-1.336 2.686-1.566 4.167a10.91 10.91 0 0 0 .229 4.446c.38 1.45 1.056 2.807 1.984 3.985a10.9 10.9 0 0 0-1.262 1.99l7.773 4.037-8.287-2.782a10.92 10.92 0 0 0-.419 5.347 10.91 10.91 0 0 0 2.179 4.901c-1.267 1.6-2.054 3.543-2.274 5.58a10.92 10.92 0 0 0 5.06 10.418 10.92 10.92 0 0 0 11.582 0 10.92 10.92 0 0 0 4.026-4.483 10.91 10.91 0 0 0 1.034-5.935c-.22-2.037-1.007-3.97-2.274-5.58 1.514-1.923 2.337-4.3 2.337-6.747s-.823-4.823-2.337-6.746l.043.025z" class="D"/><path d="M274.512 206.59a10.87 10.87 0 0 0 2.336 6.734 10.92 10.92 0 0 0-2.274 5.58c-.22 2.036.14 4.093 1.034 5.936s2.3 3.395 4.026 4.482a10.91 10.91 0 0 0 11.582 0c1.736-1.087 3.13-2.64 4.026-4.482s1.253-3.9 1.034-5.936a10.91 10.91 0 0 0-2.274-5.58c1.453-1.843-19.5-7.958-19.5-6.734z" class="C G"/><g class="E"><path d="M309.886 268.582c1.258 0 2.277-1.336 2.277-2.984s-1.02-2.984-2.277-2.984-2.277 1.336-2.277 2.984 1.02 2.984 2.277 2.984z"/><path d="M309.886 264.938c1.258 0 2.277-1.336 2.277-2.985s-1.02-2.984-2.277-2.984-2.277 1.336-2.277 2.984 1.02 2.985 2.277 2.985z"/><path d="M309.886 261.293c1.258 0 2.277-1.336 2.277-2.984s-1.02-2.984-2.277-2.984-2.277 1.336-2.277 2.984 1.02 2.984 2.277 2.984z"/><path d="M309.886 257.648c1.258 0 2.277-1.336 2.277-2.984s-1.02-2.984-2.277-2.984-2.277 1.336-2.277 2.984 1.02 2.984 2.277 2.984z"/><path d="M309.886 254.003c1.258 0 2.277-1.336 2.277-2.984s-1.02-2.984-2.277-2.984-2.277 1.336-2.277 2.984 1.02 2.984 2.277 2.984z"/><path d="M309.886 250.358c1.258 0 2.277-1.336 2.277-2.984s-1.02-2.984-2.277-2.984-2.277 1.336-2.277 2.984 1.02 2.984 2.277 2.984z"/><path d="M309.886 246.714c1.258 0 2.277-1.336 2.277-2.984s-1.02-2.984-2.277-2.984-2.277 1.336-2.277 2.984 1.02 2.984 2.277 2.984z"/></g><path d="M318.413 218.784a11.08 11.08 0 0 0 .842-1.262l-5.985-.98 6.473.046a10.95 10.95 0 0 0 .994-4.301 10.97 10.97 0 0 0-.787-4.344l-8.687 4.504 7.996-5.892a10.91 10.91 0 0 0-2.962-3.323c-1.206-.892-2.582-1.526-4.044-1.863a10.92 10.92 0 0 0-4.45-.093 10.93 10.93 0 0 0-4.118 1.691c-1.24.84-2.297 1.93-3.1 3.196a10.9 10.9 0 0 0-1.566 4.167c-.23 1.482-.152 2.995.228 4.445a10.92 10.92 0 0 0 1.985 3.985 10.87 10.87 0 0 0-1.262 1.991l7.773 4.036-8.287-2.782a10.92 10.92 0 0 0-.419 5.347c.307 1.8 1.056 3.474 2.178 4.9-1.266 1.6-2.054 3.544-2.273 5.58a10.91 10.91 0 0 0 1.034 5.935c.895 1.843 2.3 3.396 4.026 4.483a10.91 10.91 0 0 0 11.582 0c1.736-1.087 3.13-2.64 4.026-4.483a10.91 10.91 0 0 0-1.24-11.515c1.514-1.923 2.337-4.3 2.337-6.746s-.823-4.824-2.337-6.747l.042.025z" class="D"/><path d="M298.922 225.53a10.89 10.89 0 0 0 2.336 6.734c-1.266 1.6-2.054 3.543-2.273 5.58a10.91 10.91 0 0 0 1.034 5.935 10.92 10.92 0 0 0 9.817 6.146 10.92 10.92 0 0 0 9.817-6.146 10.91 10.91 0 0 0 1.033-5.935c-.22-2.037-1.006-3.97-2.273-5.58 1.452-1.844-19.49-7.96-19.49-6.734z" class="C G"/><g class="E"><path d="M328.826 235.754c1.257 0 2.277-1.336 2.277-2.984s-1.02-2.984-2.277-2.984-2.277 1.336-2.277 2.984 1.02 2.984 2.277 2.984z"/><path d="M328.826 232.11c1.257 0 2.277-1.336 2.277-2.984s-1.02-2.984-2.277-2.984-2.277 1.336-2.277 2.984 1.02 2.984 2.277 2.984z"/><path d="M328.826 228.464c1.257 0 2.277-1.336 2.277-2.984s-1.02-2.984-2.277-2.984-2.277 1.336-2.277 2.984 1.02 2.984 2.277 2.984z"/><path d="M328.826 224.82c1.257 0 2.277-1.336 2.277-2.984s-1.02-2.984-2.277-2.984-2.277 1.336-2.277 2.984 1.02 2.984 2.277 2.984z"/><path d="M328.826 221.175c1.257 0 2.277-1.336 2.277-2.984s-1.02-2.984-2.277-2.984-2.277 1.336-2.277 2.984 1.02 2.984 2.277 2.984z"/><path d="M328.826 217.53c1.257 0 2.277-1.336 2.277-2.984s-1.02-2.984-2.277-2.984-2.277 1.336-2.277 2.984 1.02 2.984 2.277 2.984z"/><path d="M328.826 213.885c1.257 0 2.277-1.336 2.277-2.984s-1.02-2.984-2.277-2.984-2.277 1.336-2.277 2.984 1.02 2.984 2.277 2.984z"/></g><path d="M337.353 185.956c.31-.4.6-.823.84-1.263l-5.984-.98 6.473.046c.62-1.35.957-2.815.993-4.3a10.95 10.95 0 0 0-.787-4.344l-8.687 4.504 7.997-5.893a10.92 10.92 0 0 0-7.006-5.185 10.91 10.91 0 0 0-4.451-.093c-1.474.275-2.876.85-4.117 1.69s-2.297 1.93-3.1 3.195-1.336 2.686-1.566 4.167a10.91 10.91 0 0 0 .229 4.446c.38 1.45 1.056 2.807 1.985 3.985-.492.616-.915 1.283-1.263 1.99l7.773 4.036-8.287-2.782a10.92 10.92 0 0 0-.419 5.347 10.91 10.91 0 0 0 2.179 4.901c-1.267 1.6-2.054 3.543-2.274 5.58a10.92 10.92 0 0 0 1.034 5.935c.895 1.843 2.3 3.396 4.026 4.483a10.92 10.92 0 0 0 11.582 0c1.736-1.087 3.13-2.64 4.026-4.483a10.91 10.91 0 0 0 1.034-5.935c-.22-2.037-1.007-3.97-2.273-5.58a10.91 10.91 0 0 0 0-13.493l.042.025z" class="D"/><path d="M317.862 192.703c0 2.443.823 4.815 2.336 6.734a10.91 10.91 0 0 0-2.273 5.579c-.22 2.037.14 4.094 1.034 5.936a10.91 10.91 0 0 0 9.816 6.145 10.91 10.91 0 0 0 5.791-1.663c1.736-1.087 3.13-2.64 4.026-4.482s1.253-3.9 1.034-5.936a10.91 10.91 0 0 0-2.273-5.579c1.452-1.844-19.49-7.96-19.49-6.734z" class="C G"/><g class="E"><use xlink:href="#G"/><path d="M468.136 186.234c1.257 0 2.276-1.336 2.276-2.984s-1.02-2.984-2.276-2.984-2.277 1.336-2.277 2.984 1.02 2.984 2.277 2.984z"/><path d="M468.136 182.59c1.257 0 2.276-1.336 2.276-2.984s-1.02-2.984-2.276-2.984-2.277 1.336-2.277 2.984 1.02 2.984 2.277 2.984z"/><path d="M468.136 178.944c1.257 0 2.276-1.336 2.276-2.984s-1.02-2.984-2.276-2.984-2.277 1.336-2.277 2.984 1.02 2.984 2.277 2.984z"/><path d="M468.136 175.3c1.257 0 2.276-1.336 2.276-2.984s-1.02-2.984-2.276-2.984-2.277 1.336-2.277 2.984 1.02 2.984 2.277 2.984z"/><path d="M468.136 171.655c1.257 0 2.276-1.336 2.276-2.984s-1.02-2.984-2.276-2.984-2.277 1.336-2.277 2.984 1.02 2.984 2.277 2.984z"/><path d="M468.136 168c1.257 0 2.276-1.336 2.276-2.984s-1.02-2.984-2.276-2.984-2.277 1.336-2.277 2.984 1.02 2.984 2.277 2.984z"/></g><path d="M478.998 160.333v1.25c0 .063-.03.232-.046.35v.144c0 .126-.042.24-.067.362l-.042.2-.1.455-.126.45a9.01 9.01 0 0 1-.375 1.027l-.218.488-.22.42-.185.337-.198.315c-.072.105-.05.084-.08.13l-.177.265-.063.084-.236.324c-.416.546-.882 1.052-1.393 1.51l-.332.286-.038.03-.3.24-.16.113-.303.215c-.477.33-.98.618-1.507.863a3.73 3.73 0 0 1-.421.181 3.84 3.84 0 0 1-.421.16c-.15.046-.172.07-.26.096l-.15.055-.42.118-.42.114a1.08 1.08 0 0 1-.16.033l-.358.076-.787.13h-.042c-.092 0-.19.026-.282.03-.108.015-.218.023-.328.025h-1.25a2.7 2.7 0 0 1-.324-.025c-.1-.002-.18-.01-.27-.025h0l-.808-.118-.42-.093c-.032-.001-.064-.008-.093-.02a10.99 10.99 0 0 1-1.725-.56c-.302-.125-.597-.265-.884-.42l-.42-.228-.295-.18-.568-.383-.227-.172a1.73 1.73 0 0 1-.16-.122l-.24-.198c-.025-.014-.046-.032-.063-.055l-.307-.27c-.343-.316-.665-.653-.964-1l-.29-.358-.193-.265-.148-.206-.193-.29-.232-.38-.42-.778-.164-.366-.265-.66-.156-.463-.143-.51c-.002-.007-.002-.015 0-.02l-.105-.455-.07-.39-.06-.354a.47.47 0 0 1 0-.092c-.026-.14-.038-.287-.05-.42l-.034-.49v-.5c.001-2.444.824-4.816 2.336-6.734l-.522-.724-.15-.236-.202-.34-.232-.42c-.008-.012-.015-.024-.02-.038l-.395-.84-.118-.295-.282-.842c-.095-.33-.172-.667-.232-1.006l-.05-.307c-.002-.008-.002-.017 0-.025 0-.1-.034-.198-.046-.3l-.063-.737v-.606a10.92 10.92 0 0 1 .576-3.497l8.287 2.782-7.773-4.045a11.01 11.01 0 0 1 1.262-1.986 10.95 10.95 0 0 1-2.238-5.314c-.257-1.94.01-3.912.774-5.713a117.49 117.49 0 0 1 13.935 13.783 115.59 115.59 0 0 1 6.258 7.997 10.76 10.76 0 0 1-1.54 2.698l-.034.042c1.473 1.92 2.263 4.276 2.243 6.696h0z" class="D"/><path d="M457.172 146.827a10.87 10.87 0 0 0 2.336 6.734 10.92 10.92 0 0 0-1.24 11.515c.895 1.843 2.3 3.396 4.026 4.483a10.91 10.91 0 0 0 11.582 0c1.736-1.087 3.13-2.64 4.026-4.483a10.91 10.91 0 0 0-1.24-11.515c1.452-1.843-19.5-7.958-19.5-6.734z" class="C G"/><g class="D"><path opacity=".3" d="M275.345 73.544a219.08 219.08 0 0 1-14.655 4.339l13.157-5.998 1.498 1.658zM150.22 20.78l7.55-.172c-2.996 1.974-6 3.868-9.044 5.644l-2.3 1.3-1.734.964-13.762 7.243-10.56 5.2a464.05 464.05 0 0 1-13.931 6.393c-11.33 4.962-22.76 9.428-34.3 13.262l29.26-17.248 23.034-12.963 16.402-8.944 9.373-.7zm151.388 93.54l3.32 8.08-1.92.9c-14.802 6.906-29.764 13.135-44.844 18.548l27.56-17.644 15.884-9.894z"/></g><path d="M306.747 320.266c-.076-10.345-1.5-20.543-5.62-29.773a49.68 49.68 0 0 0-2.391-4.739c-1.285-2.23-2.732-4.363-4.33-6.38a56.08 56.08 0 0 0-3.969-4.508 72.18 72.18 0 0 0-11.398-9.402c-6.84-4.63-14.427-8.36-22.032-11.5a218.03 218.03 0 0 0-29.041-9.68l-3.53-.875-1.103-.265-1.19-.274-2.037-.46-6.11-1.262a213.43 213.43 0 0 0-10.656-1.751c-7.71-1.06-15.472-1.722-23.237-2.3l-3.742-.27-10-.707-10-.842-.803-.042-1.562-.156-4.146-.446c-2.668-.303-5.333-.652-7.996-1.048-2.96-.44-5.915-.96-8.864-1.557l-.484-.1-2.344-.505-1.38-.316c-2.828-.665-5.634-1.417-8.417-2.256a109.23 109.23 0 0 1-11.435-4.154 80.5 80.5 0 0 1-3.687-1.683l-.497-.25a78.09 78.09 0 0 1-18.981-12.756l-.476-.42-1-.968c-.594-.577-1.174-1.17-1.747-1.764l-1.654-1.746c-3.178-3.44-6.15-7.084-9.188-10.665-2.63-3.094-5.307-6.137-8.21-8.973a61.86 61.86 0 0 0-1.629-1.528 71.45 71.45 0 0 0-8.001-6.368c-.396-.274-.796-.54-1.195-.8-1.577-1.043-3.194-2.025-4.853-2.946-1.62-.9-3.28-1.742-4.962-2.525a81.97 81.97 0 0 0-6.848-2.816c-3.927-1.403-7.952-2.518-12.04-3.337a86.94 86.94 0 0 0-17.967-1.76h0c-1.776.022-3.552.093-5.316.232l-.366.034c.03.088.06.176.08.27.08.048.16.09.244.13l-.093 1.145a3.62 3.62 0 0 1-.076 1.01C.15 170.154 0 174.13 0 178.153c-.042 25.427 6.103 50.482 17.904 73.005l.164.31c11.953 22.664 29.233 42.084 50.354 56.59 16.793 11.566 35.683 19.74 55.6 24.062l3.48.71c4.81.932 9.695 1.633 14.66 2.104 5.05.49 10.175.734 15.374.737a158.49 158.49 0 0 0 21.604-1.473h127.003c.387-4.613.627-9.306.594-13.935z" class="E"/><g class="D"><path d="M241.603 54.05c-1.495-.283-3.04-.115-4.44.484a6.54 6.54 0 0 1-5.324 0c-.99-.434-2.065-.65-3.147-.627s-2.146.277-3.12.75c-.557.293-1.176.447-1.805.45-2.525 0-4.655-2.56-5.093-5.934a4.82 4.82 0 0 0 1.263-1.368c1.486-2.4 3.788-3.94 6.384-3.94s4.87 1.52 6.36 3.893c.443.716 1.063 1.305 1.8 1.712s1.567.615 2.41.608h.063c2.045-.013 3.788 1.608 4.65 3.973z" class="B"/><path d="M250.042 50.603c-.77 2.647-2.63 4.52-4.798 4.52a3.87 3.87 0 0 1-1.784-.442 7.48 7.48 0 0 0-3.093-.737c-1.072-.02-2.136.2-3.12.615a6.6 6.6 0 0 1-2.651.564 6.52 6.52 0 0 1-2.037-.333l-.333-.114a3.37 3.37 0 0 1-.307-.126.2.2 0 0 0-.08-.029 3.16 3.16 0 0 0-.328-.135l-.316-.114a7.44 7.44 0 0 0-5.543.396 3.9 3.9 0 0 1-1.801.455c-.342 0-.682-.05-1-.147-.046 0-.088-.025-.135-.034a.88.88 0 0 1-.15-.05c-1.957-.703-3.464-2.97-3.788-5.787-.05-.406-.077-.815-.076-1.225 0-4.002 2.315-7.243 5.177-7.243h.14c.84.025 1.67-.173 2.4-.572a4.77 4.77 0 0 0 1.799-1.701 7.71 7.71 0 0 1 .543-.783c7.428 3.77 14.545 8.125 21.284 13.022h0zm-220.14 61.254a7.39 7.39 0 0 0-1.469-.135c-1.023.006-2.034.22-2.97.63l-.282.114a6.51 6.51 0 0 1-2.365.446c-.664-.001-1.323-.102-1.957-.3l-.332-.122-.387-.156-.328-.134-.316-.1a7.52 7.52 0 0 0-5.051.114 151.39 151.39 0 0 1 4.495-8.973 9.15 9.15 0 0 1 2.062 2.336c.444.714 1.065 1.302 1.802 1.707s1.566.615 2.407.608h.063a3.7 3.7 0 0 1 .72.071 4.16 4.16 0 0 1 1.263.467c1.255.802 2.2 2.017 2.647 3.435h0z" class="B"/><path d="M38.72 105.687c0 3.998-2.32 7.24-5.177 7.24a3.88 3.88 0 0 1-1.784-.442c-1.026-.51-2.16-.76-3.304-.733a7.59 7.59 0 0 0-2.908.602l-.39.156c-.722.274-1.488.417-2.26.42-.606 0-1.2-.084-1.793-.248l-.244-.076-.332-.122c-.1-.038-.218-.08-.324-.13l-.08-.03-.328-.135-.316-.11-.3-.084c-1.588-.443-3.28-.347-4.806.273.01-.026.02-.05.034-.076 1.403-3.047 2.9-6.038 4.495-8.973 1.498-2.77 3.078-5.49 4.74-8.16l1.532-2.407c1.284.502 2.414 1.33 3.28 2.403L26.9 97.91l2.487-1.578a4.92 4.92 0 0 0 2.437 1.848l-.598 1.1 1.393-.888c.278.047.56.07.842.067h.067c.903.01 1.777.32 2.483.884l-1.684 3.094-.79 1.443 4.116-2.605c.07.12.133.244.19.37.598 1.266.9 2.652.888 4.053h0z" class="B"/></g><g class="F"><use xlink:href="#H"/><path d="M416.166 227.846c8.32 0 15.063-8.828 15.063-19.718s-6.744-19.718-15.063-19.718-15.063 8.828-15.063 19.718 6.744 19.718 15.063 19.718z"/><path d="M416.166 203.746c8.32 0 15.063-8.828 15.063-19.718s-6.744-19.718-15.063-19.718-15.063 8.828-15.063 19.718 6.744 19.718 15.063 19.718z"/><path d="M416.166 179.647c8.32 0 15.063-8.828 15.063-19.718s-6.744-19.718-15.063-19.718-15.063 8.828-15.063 19.718 6.744 19.718 15.063 19.718z"/><path d="M416.166 155.544c8.32 0 15.063-8.828 15.063-19.718s-6.744-19.718-15.063-19.718-15.063 8.828-15.063 19.718 6.744 19.718 15.063 19.718z"/><path d="M402.483 103.473c-.927 2.654-1.397 5.446-1.39 8.257-.043 4.225 1.04 8.384 3.14 12.05 2.753 4.663 7.07 7.668 11.923 7.668s9.167-3.005 11.924-7.668c2.02-3.524 3.1-7.508 3.135-11.57-4.28-1.94-8.675-3.615-13.16-5.017a112.29 112.29 0 0 0-9.504-2.525l-6.07-1.195z"/><path d="M408.56 104.656l9.503 2.525a11.72 11.72 0 0 1-1.898.155c-2.763-.022-5.44-.966-7.605-2.68h0z"/></g><g class="E"><path d="M135.442 248.582c8.32 0 15.063-8.828 15.063-19.718s-6.744-19.718-15.063-19.718-15.063 8.828-15.063 19.718 6.744 19.718 15.063 19.718z"/><path d="M135.442 224.48c8.32 0 15.063-8.828 15.063-19.718s-6.744-19.718-15.063-19.718-15.063 8.828-15.063 19.718 6.744 19.718 15.063 19.718z"/><path d="M135.442 200.38c8.32 0 15.063-8.828 15.063-19.718s-6.744-19.718-15.063-19.718-15.063 8.828-15.063 19.718 6.744 19.718 15.063 19.718z"/><path d="M135.442 176.28c8.32 0 15.063-8.828 15.063-19.718s-6.744-19.718-15.063-19.718-15.063 8.828-15.063 19.718 6.744 19.718 15.063 19.718z"/><path d="M135.442 152.177c8.32 0 15.063-8.83 15.063-19.72s-6.744-19.718-15.063-19.718-15.063 8.83-15.063 19.718 6.744 19.72 15.063 19.72z"/><path d="M135.442 128.077c8.32 0 15.063-8.828 15.063-19.718S143.76 88.64 135.442 88.64 120.38 97.47 120.38 108.36s6.744 19.718 15.063 19.718z"/><path d="M135.442 103.978c8.32 0 15.063-8.828 15.063-19.718s-6.744-19.718-15.063-19.718S120.38 73.37 120.38 84.26s6.744 19.718 15.063 19.718z"/><path d="M135.442 84.862c8.32 0 15.063-8.828 15.063-19.718s-6.744-19.718-15.063-19.718-15.063 8.828-15.063 19.718 6.744 19.718 15.063 19.718z"/><path d="M129.06 23.178a16.71 16.71 0 0 0-5.542 5.817c-.5.86-.956 1.756-1.335 2.68a24.57 24.57 0 0 0-1.805 9.301v.067c-.043 4.224 1.04 8.383 3.14 12.05 2.752 4.663 7.07 7.668 11.923 7.668s9.167-3.005 11.923-7.668a24.69 24.69 0 0 0 0-24.099c-.294-.497-.606-.976-.93-1.435a15.12 15.12 0 0 0-6.763-5.442c-.37-.146-.748-.27-1.132-.375h0l-9.48 1.435z"/><path d="M138.535 21.743l2.307-.26 9.373-.703a23.7 23.7 0 0 1-1.494 5.471 21.4 21.4 0 0 1-1.36 2.744c-2.757 4.663-7.07 7.668-11.923 7.668-1.546-.001-3.076-.305-4.504-.896-2.622-1.136-4.872-2.987-6.494-5.34-.324-.46-.635-.934-.926-1.43a21.49 21.49 0 0 1-1.919-4.264 145.74 145.74 0 0 1 7.462-1.553l9.478-1.435zM38.64 189.24c8.32 0 15.063-8.828 15.063-19.718s-6.744-19.718-15.063-19.718-15.063 8.828-15.063 19.718S30.32 189.24 38.64 189.24z"/><path d="M38.64 165.135c8.32 0 15.063-8.828 15.063-19.718S46.96 125.7 38.64 125.7s-15.063 8.828-15.063 19.718 6.744 19.718 15.063 19.718z"/><path d="M38.64 141.036c8.32 0 15.063-8.828 15.063-19.718S46.96 101.6 38.64 101.6s-15.063 8.828-15.063 19.718 6.744 19.718 15.063 19.718z"/><path d="M53.704 97.202c.042 4.224-1.04 8.383-3.14 12.05-2.757 4.664-7.07 7.673-11.923 7.673-3.927 0-7.5-1.97-10.185-5.19v-.03a18.3 18.3 0 0 1-1.717-2.454 17.98 17.98 0 0 1-.724-1.325c-1.625-3.34-2.462-7-2.445-10.724a26.06 26.06 0 0 1 .088-2.159l1.532-2.407c1.073-1.683 2.184-3.304 3.325-4.928 2.393-3.418 4.92-6.733 7.576-9.945.83-.187 1.676-.282 2.525-.282 4.853 0 9.167 3.005 11.923 7.673a23.79 23.79 0 0 1 3.165 12.05h0z"/><path d="M53.704 73.12c.04 4.224-1.043 8.383-3.14 12.05-2.757 4.663-7.075 7.664-11.923 7.664-3.897 0-7.445-1.932-10.1-5.11 2.393-3.417 4.92-6.733 7.576-9.945 4.623-5.595 9.63-10.862 14.983-15.762 1.743 3.44 2.637 7.247 2.605 11.103z"/></g><path d="M127.525 332.837c4.81.932 9.696 1.633 14.66 2.105 5.05.494 10.176.74 15.375.74a158.17 158.17 0 0 0 21.603-1.477H364.5l1.507.232a117.08 117.08 0 0 0 75.027-14.151c22.725-12.97 40.45-33.177 50.348-57.398-3.288-2.134-6.596-4.21-9.942-6.242a183.42 183.42 0 0 0-10.269-5.787l-1.59-.842c-6.454-3.34-13.16-6.17-20.055-8.463-2.988-.98-6-1.83-9.032-2.526-1.433-.333-2.87-.63-4.314-.892-1.812-.334-3.636-.606-5.47-.816a74.06 74.06 0 0 0-14.486-.312 59.5 59.5 0 0 0-2.669.265 64.91 64.91 0 0 0-5.13.808c-2.105.42-4.175.938-6.212 1.55-17.55 5.215-32.753 16.87-48.494 26.59l-.6.375a239.8 239.8 0 0 1-51.987 23.842c-3.398 1.095-6.818 2.113-10.26 3.056a258.79 258.79 0 0 1-11.827 2.946l-2.264.488a227.85 227.85 0 0 1-9.116 1.759c-18.59 3.234-37.494 4.296-56.33 3.165-2.806-.168-5.62-.388-8.44-.66-3.734-.36-7.457-.8-11.17-1.35l-.766-.1-9.63-1.56-11.545-1.8-3.9-.488a101.77 101.77 0 0 0-12.352-.682c-.653 0-1.305.025-1.962.055-7.04.273-14.183 1.64-20.555 4.465l-.362.16c-3.37 1.497-6.505 3.468-9.314 5.855-.803.684-1.577 1.41-2.323 2.18-5.438 5.6-8.692 12.49-11.364 19.688 5.385 1.8 10.864 3.304 16.414 4.504l3.472.74z" class="F"/><g fill="#fff"><path opacity=".6" d="M163.72 106.86a.842.842 0 0 0 0-1.684.842.842 0 1 0 0 1.684zm-85.437.843a.842.842 0 0 0 0-1.684.842.842 0 0 0 0 1.684zm180.555 43.77a.842.842 0 1 0 0-1.684.842.842 0 0 0 0 1.684zm63.972-29.462a.842.842 0 1 0 0-1.683.842.842 0 1 0 0 1.683z"/></g><path d="M127.525 332.837a45.58 45.58 0 0 0 1.511-11.696 48.26 48.26 0 0 0-.101-3.03 45.81 45.81 0 0 0 1.957-13.325c0-1.632-.086-3.263-.256-4.886 0-.09-.022-.18-.03-.27-.6-5.394-2.17-10.637-4.63-15.475l-26.46 8.24 5.568-3.274 17.677-10.387c-3.9-5.636-9.017-10.324-14.97-13.717s-12.595-5.408-19.43-5.892a46.07 46.07 0 0 0-3.569-4.726l-38.072 11.83 20.067-11.785 11.12-6.57a45.78 45.78 0 0 0-59.571 3.338h0l-.26.256a158.22 158.22 0 0 0 50.354 56.608c16.793 11.56 35.682 19.73 55.606 24.05l3.493.71z" class="F"/><use xlink:href="#I" class="E"/><use xlink:href="#I" class="B C"/><g class="F"><path d="M127.525 332.837a153.3 153.3 0 0 0 14.66 2.105 158.19 158.19 0 0 0 15.375.74c7.226.001 14.444-.492 21.604-1.477h81.94c3.096-6.296 4.706-13.22 4.705-20.236a48.26 48.26 0 0 0-.101-3.03c1.208-3.966 1.87-8.078 1.97-12.222v-1.086a45.59 45.59 0 0 0-4.903-20.623l-26.516 8.24 23.258-13.674a45.76 45.76 0 0 0-14.971-13.718 45.78 45.78 0 0 0-19.431-5.891c-.56-.867-1.16-1.7-1.797-2.525l-.527-.678a33.76 33.76 0 0 0-1.262-1.511l-38.026 11.823L214.7 240.72a45.8 45.8 0 0 0-16.663-8.043 45.82 45.82 0 0 0-18.485-.795 34.98 34.98 0 0 0-2.083.383c-6.166 1.287-12 3.837-17.13 7.5a45.87 45.87 0 0 0-17.697 25.375l32.605 37.525-9.37-6.755-26.048-18.813a45.93 45.93 0 0 0-11.675 12.033 45.47 45.47 0 0 0-6.822 16.637c-1.702 8.866-.76 18.037 2.7 26.372l3.493.707zm157.02-14.053c2.715-4.507.148-10.303-2.916-14.575s-6.827-8.75-6.5-13.994c.476-7.542 8.696-11.624 15.282-15.324 4.888-2.748 9.432-6.065 13.54-9.882 1.646-1.532 3.245-3.178 4.26-5.18 1.46-2.887 1.583-6.246 1.65-9.486.216-10.78.184-21.563-.097-32.35l-25.22 100.8z"/></g><path d="M459.53 199.53l4.667 10.796 7.723 19.086c1.17 3.018 2.336 6.17 2.104 9.4-.176 2.243-1.026 4.372-1.97 6.414l-.09.193a69.96 69.96 0 0 1-2.365 4.63 70.51 70.51 0 0 1-4.684 7.315l-1.62 2.138c-2.163 2.74-4.63 5.7-6.393 8.775-1.422 2.466-2.407 5.02-2.458 7.626-.027 1.22.16 2.432.552 3.586 1.683 4.98 6.877 7.68 11.338 10.467 2.122 1.282 4.033 2.885 5.665 4.752" stroke="#2f2e41" class="I J"/><g class="F"><path d="M459.9 211.137a11.79 11.79 0 0 0 11.785-11.784 11.79 11.79 0 0 0-11.785-11.785 11.79 11.79 0 0 0-11.785 11.785 11.79 11.79 0 0 0 11.785 11.784z"/><use xlink:href="#J"/><path d="M460.2 258.342c6.5 0 11.785-5.276 11.785-11.784a11.79 11.79 0 0 0-11.785-11.785c-6.51 0-11.784 5.276-11.784 11.785s5.276 11.784 11.784 11.784zm6.004 28.936a11.79 11.79 0 0 0 11.784-11.785 11.79 11.79 0 0 0-11.784-11.785 11.79 11.79 0 0 0-11.785 11.785 11.79 11.79 0 0 0 11.785 11.785z"/></g><path d="M362.184 278.763c.792-5.198-3.788-9.58-8.245-12.365s-9.663-5.476-11.346-10.47c-2.43-7.155 3.615-14.053 8.3-19.984a70.89 70.89 0 0 0 8.759-14.309c.942-2.042 1.793-4.17 1.97-6.4.253-3.228-.913-6.38-2.104-9.398a676.55 676.55 0 0 0-12.391-29.883" stroke="#2f2e41" class="I J"/><g class="F"><path d="M347.525 187.568c6.5 0 11.785-5.276 11.785-11.785S354.034 164 347.525 164s-11.784 5.276-11.784 11.784a11.79 11.79 0 0 0 11.784 11.785zm20.83 19.632c6.5 0 11.785-5.276 11.785-11.784a11.79 11.79 0 0 0-11.785-11.785c-6.51 0-11.784 5.276-11.784 11.785s5.276 11.784 11.784 11.784zm-20.517 27.573c6.508 0 11.784-5.276 11.784-11.784a11.79 11.79 0 0 0-11.784-11.785 11.79 11.79 0 0 0-11.785 11.785c0 6.51 5.276 11.784 11.785 11.784zm5.993 28.937a11.79 11.79 0 0 0 11.784-11.785c0-6.508-5.276-11.784-11.784-11.784a11.79 11.79 0 0 0-11.785 11.784 11.79 11.79 0 0 0 11.785 11.785z"/></g><path d="M156.086 239.108c1.23-1.847.26-4.34-.947-6.2s-2.71-3.813-2.47-6.02c.34-3.17 3.885-4.73 6.734-6.165 2.112-1.063 4.1-2.373 5.893-3.902a8.14 8.14 0 0 0 1.898-2.104c.67-1.19.783-2.606.875-3.965a283.22 283.22 0 0 0 .581-13.632" stroke="#3f3d56" class="I J"/><g class="E"><path d="M168.822 202.092a4.971 4.971 0 1 0 0-9.941 4.971 4.971 0 1 0 0 9.941zm4.465 11.22a4.97 4.97 0 1 0 0-9.941 4.97 4.97 0 0 0 0 9.941zm-12.752 6.885a4.971 4.971 0 1 0 0-9.941 4.971 4.971 0 1 0 0 9.941zm-2.862 12.13a4.971 4.971 0 1 0 0-9.941 4.971 4.971 0 1 0 0 9.941z"/></g><path d="M386.364 156.007c-.644-3.574-.324-7.425-1.962-10.653a2.35 2.35 0 0 0-.745-.955 2.57 2.57 0 0 0-1.334-.303c-1.476-.065-2.956-.08-4.44-.042-.42 0-.9.063-1.115.42-.023.04-.043.082-.06.126-1.684-1.894-2.98-4.25-4.807-6.002.26-.084.522-.168.787-.24a7.06 7.06 0 0 0-.096-.526l-.042-.156c-.03-.122-.064-.24-.097-.357s-.042-.114-.06-.173a5.47 5.47 0 0 0-.114-.332l-.07-.173c-.042-.11-.085-.22-.135-.324s-.046-.105-.072-.16l-.16-.337c0-.046-.046-.088-.067-.134l-.185-.354-.063-.114-.215-.378-.042-.072c-.084-.143-.168-.286-.257-.42-.715-1.17-1.506-2.315-2.083-3.506-1.023-2.104-1.36-4.478-2.037-6.734s-1.856-4.52-3.914-5.585c-.977-.505-2.294-.947-2.382-2.058-.007-.355.066-.708.214-1.03.28-.717.623-1.408 1.023-2.066a11.66 11.66 0 0 1 .463-.716c.038-.06.08-.113.122-.172.126-.177.257-.346.387-.514l.164-.206a7.36 7.36 0 0 1 .421-.467l.164-.185c.194-.207.392-.42.598-.602a1.4 1.4 0 0 0 .421-.556 1.69 1.69 0 0 0 .034-.661c-.1-1.788.84-3.46 1.89-4.9s2.265-2.807 2.858-4.5c.067-.194.126-.39.177-.585 0-.067.03-.13.042-.198s.06-.265.084-.396.02-.156.034-.23a9.77 9.77 0 0 0 .046-.37c.013-.122 0-.164 0-.244V96.66c0-.08 0-.265-.034-.396s0-.143-.02-.215c-.016-.15-.038-.303-.063-.454v-.15a12.88 12.88 0 0 0-.113-.623 31.83 31.83 0 0 0-1.149-3.91 13.95 13.95 0 0 0-.952-2.281c.232-.042.463-.097.7-.16-.147-.27-.38-.585-.51-.888 1.384-2.172 2.592-4.445 3.198-6.94.375-1.766.595-3.562.657-5.366.35-5.417.694-10.863.248-16.27v-.215a13.36 13.36 0 0 0 .034-3.506c-.223-2.264-.753-4.55-1.965-6.465s-3.22-3.603-5.447-3.83c-.365.415-.773.792-1.216 1.124-.668-.59-1.158-1.353-1.414-2.205a12.02 12.02 0 0 0 10.08-10.522 9.92 9.92 0 0 0 .055-.594v-1.717c0-.135 0-.27-.034-.42V30.5c0-.147-.034-.3-.06-.42v-.093c-.025-.16-.055-.316-.084-.47-.002-.017-.002-.034 0-.05-.034-.168-.072-.332-.114-.5-.282-1.138-.727-2.23-1.32-3.24.487-1.107.808-2.28.95-3.48.025-.22.046-.42.06-.648v-1.22a12.21 12.21 0 0 0-3.367-8.047 7.53 7.53 0 0 0 .597-1.288h0c.047-.13.09-.26.13-.396.038-.126.07-.253.1-.383v-.034c.03-.118.05-.236.076-.358v-.063c.025-.14.046-.278.063-.42s.03-.295.038-.42v-1.03c-.106-1.86-.907-3.6-2.246-4.904s-3.115-2.036-4.977-2.08a7.4 7.4 0 0 0-5.066 1.85c-1.396 1.232-2.277 2.944-2.467 4.796-.092.76-.07 1.528.067 2.28-1.826.883-3.4 2.212-4.577 3.864s-1.92 3.574-2.157 5.59a12.22 12.22 0 0 0-.071 2.033c-1.085 1.7-1.735 3.62-1.894 5.623h0v.227c0 .253-.03.505-.03.762-.005 1.854.414 3.684 1.226 5.35a12.15 12.15 0 0 0 3.454 4.266 8.51 8.51 0 0 0 2.366 2.492 9.68 9.68 0 0 1 .378 1.566c.072 1.43-.353 2.946-1.435 3.885-.273.227-.576.42-.842.636-.286-.077-.588-.07-.87.02-3.228 1.014-6.313 3.022-7.807 6.103a11.59 11.59 0 0 0-.774 2.176c-.06.088-.122.177-.177.27a31.4 31.4 0 0 0-4.196 10.046c-.42 1.822-.66 3.716-1.51 5.375-.205.344-.37.71-.493 1.1-.07.585-.097 1.175-.075 1.763-.09 1.065-.708 2.008-.914 3.056-.126.623-.1 1.263-.2 1.894-.194 1.1-.787 2.075-1.166 3.12-.67 1.84-.66 3.86-1.153 5.758-.06.307-.194.596-.387.842-.337.375-.867.463-1.305.703-.345.216-.64.502-.865.84s-.377.72-.444 1.12c-.128.806-.142 1.627-.042 2.437l.244 3.178-3.552 1.078-5.838 1.785c-1.683.513-3.392 1.044-4.844 2.045a8.84 8.84 0 0 0-3.051 3.704c-.665 1.52-.897 3.2-1.133 4.84-.67 4.63-1.48 9.26-3 13.64-.118.34-.244.682-.37 1.023s-.26.67-.395 1.002l-.09.202c-.11.27-.22.534-.336.795l-.468 1.002 13.654 4.575c0 .164.033.337.058.534.472 3.367.245 6.76.682 10.1a6.59 6.59 0 0 0 .379 1.638c-.346.3-.595.698-.715 1.14-.155.715-.18 1.452-.072 2.176l.463 5.147c.083.627.1 1.262.02 1.9-.172 1.132-.816 2.126-1.178 3.21s-.337 2.47.56 3.16a2.22 2.22 0 0 0 2.151.194c.7-.318 1.3-.788 1.78-1.376 2.753-3.048 3.982-7.176 6.124-10.7.547-.815 1.035-1.667 1.46-2.55.294-.68.48-1.405.72-2.104a20.57 20.57 0 0 1 1.179-2.748c.252-.505 1.23-1.726 1.022-2.294-.35-.964-4.1-1.822-5.025-2.104-.597-.194-1.262-.367-1.835-.085-.09.045-.172.1-.248.165l-.32-4.138a23.87 23.87 0 0 0 1.654-.21l-.227-9.73c-.01-1.013-.075-2.024-.194-3.03-.215-1.54-.682-3.04-.842-4.583.225-.18.49-.302.775-.354h0a5.35 5.35 0 0 1 1.326-.046h.35c1.927.06 3.813-.623 5.53-1.524s3.312-2.02 5.02-2.946a17.6 17.6 0 0 1 .644-.332l.236-.118.4-.198.332-.16.076-.038c.997-.475 2.003-.938 2.946-1.456.064.105.134.206.21.303a1.98 1.98 0 0 0 2.104.757c-1.18 2.85-2.567 5.607-2.92 8.687-.513 4.445 1.263 8.797 3.01 12.904l5.568 13.127c.615 1.453 1.436 3.08 2.947 3.426.942.215 1.92-.143 2.794-.56 2.525-1.212 4.84-2.946 7.155-4.58.033.02.064.045.093.07 2.104 1.663 3.43 4 4.886 6.208l3.906 6.4c-.03.322.023.647.155.943.285.53.655 1.01 1.095 1.418 2.476 2.67 4.11 6.01 4.693 9.604.143.9.24 1.878.774 2.622 1.048 1.452 3.274 1.36 4.848.53a3.17 3.17 0 0 0 1.213-1.002 4.02 4.02 0 0 0 .492-1.519 21.32 21.32 0 0 0 .467-4.028c.013-2.546-.934-4.992-1.38-7.508zM363.973 38.07a11.71 11.71 0 0 0 .787-.585c-.535 1.59-1.395 3.053-2.525 4.293h0c-.265.3-.547.564-.842.842v-.198c-.034-.644 0-1.322.02-1.987 1.007-.604 1.878-1.41 2.56-2.365h0zm-22.104 49.4c0-.038.03-.08.046-.122a2.6 2.6 0 0 1 .568.589 2.34 2.34 0 0 0 .084 2.104c.33.555.918 1.07.787 1.683s-.926.88-1.578.985a59.14 59.14 0 0 0-2.525.467v-.046a6.53 6.53 0 0 0-.286-2.083c1.44-.593 2.34-2.083 2.904-3.578z" fill="url(#B)"/><path d="M367.92 14.588a7.42 7.42 0 0 0 1.009-3.115 7.43 7.43 0 0 0-.429-3.247 7.41 7.41 0 0 0-1.783-2.747c-.79-.772-1.744-1.357-2.8-1.713a7.43 7.43 0 0 0-6.346.74c-.936.588-1.73 1.377-2.32 2.3a7.44 7.44 0 0 0-1.103 3.083 7.53 7.53 0 0 0 .068 2.247c-1.816.866-3.383 2.176-4.557 3.8a11.93 11.93 0 0 0-2.156 5.534c-.08.665-.102 1.335-.072 2.003a11.95 11.95 0 0 0-1.857 5.177c-.208 1.846.018 3.716.66 5.46s1.682 3.314 3.038 4.585 2.988 2.208 4.77 2.737a11.94 11.94 0 0 0 5.491.309c1.83-.326 3.557-1.074 5.046-2.185s2.7-2.555 3.533-4.215a11.95 11.95 0 0 0 1.268-5.351v-.568c1.48-2.273 2.14-4.982 1.877-7.682s-1.44-5.228-3.333-7.17h-.013z" class="F"/><g class="B C"><path d="M354.13 10.262l.097-.05c0-.13-.038-.26-.055-.4v.08c-.03.122-.034.24-.042.362zm17.082 12.154a11.87 11.87 0 0 1-1.848 5.088v.568a11.94 11.94 0 0 1-23.825.947l-.042.972a11.96 11.96 0 0 0 .843 4.64 11.95 11.95 0 0 0 2.574 3.951c1.112 1.133 2.44 2.033 3.902 2.647a11.95 11.95 0 0 0 9.246 0c1.463-.614 2.8-1.514 3.902-2.647a11.93 11.93 0 0 0 2.573-3.951c.587-1.475.874-3.052.844-4.64v-.568c1-1.527 1.617-3.26 1.83-5.067.098-.8.112-1.608.042-2.412a2.21 2.21 0 0 1-.042.471zm-2.3-12.606a7.47 7.47 0 0 1-.981 2.841c.206.215.42.42.598.67a7.38 7.38 0 0 0 .39-1.637c.075-.622.072-1.25-.008-1.873h0z" class="B"/></g><g class="H"><path d="M319.798 142.7a5.41 5.41 0 0 0 .543 1.957c.153.305.377.568.652.77s.594.334.93.388c.62.003 1.225-.173 1.747-.505 1.06-.556 2.168-1.2 2.72-2.265s.463-2.26.37-3.417l-.7-9.104c-1.72-.05-3.45-.046-5.168.046s-2 .493-1.764 2.155c.472 3.308.24 6.667.682 9.975zm50.46 6.158l4.1 6.612c.178.385.497.687.892.842a1.42 1.42 0 0 0 .842-.151c1.363-.594 2.407-1.73 3.413-2.83.678-.75 1.38-1.536 1.637-2.525.132-.53.126-1.085-.017-1.613a3.2 3.2 0 0 0-.799-1.4c-.48-.414-.997-.783-1.545-1.103-3.236-2.18-4.697-6.313-7.887-8.57a1.22 1.22 0 0 0-.648-.278 1.34 1.34 0 0 0-.665.223l-4.365 2.395c-1.9 1.03-1.292 1.153.143 2.268 2.13 1.646 3.447 3.94 4.908 6.128z"/></g><g class="F"><path d="M328.678 137.446c-.597-.2-1.262-.358-1.835-.084a2.01 2.01 0 0 0-.653.644 2.02 2.02 0 0 0-.302.867c-.114.606-.1 1.237-.27 1.83-.286 1.006-1.048 1.8-1.785 2.526a2.64 2.64 0 0 1-1.124.778c-.6.152-1.216-.122-1.818 0a1.97 1.97 0 0 0-.92.53 1.96 1.96 0 0 0-.51.93 5.72 5.72 0 0 0-.071 2.142l.463 5.076a7.75 7.75 0 0 1 0 1.864c-.173 1.116-.82 2.105-1.18 3.165s-.34 2.437.56 3.12c.315.2.677.336 1.053.37a2.26 2.26 0 0 0 1.102-.18 5.03 5.03 0 0 0 1.784-1.355c2.757-3.005 3.986-7.08 6.128-10.547.55-.806 1.04-1.65 1.47-2.525.3-.678.48-1.4.716-2.105.33-.93.725-1.833 1.182-2.706.257-.5 1.23-1.683 1.027-2.264-.328-.94-4.086-1.78-5.017-2.075zm49.69 13.998a5.24 5.24 0 0 1-2.896 2.488 2.63 2.63 0 0 0-.976.509 1.53 1.53 0 0 0-.34.816 1.54 1.54 0 0 0 .167.867 5.42 5.42 0 0 0 1.099 1.389 18.1 18.1 0 0 1 4.701 9.47c.143.896.24 1.848.78 2.584 1.048 1.43 3.278 1.338 4.852.522a3.14 3.14 0 0 0 1.217-.985 3.94 3.94 0 0 0 .492-1.498c.283-1.306.44-2.637.467-3.973-.03-2.525-.976-4.937-1.43-7.42-.644-3.523-.32-7.32-1.96-10.5-.163-.375-.42-.7-.75-.943a2.62 2.62 0 0 0-1.334-.299 66.03 66.03 0 0 0-4.45-.038c-.42 0-.905.06-1.12.42s-.025.842.17 1.208c.917 1.793 2.407 3.228 1.313 5.383zM343.17 88.296a2.27 2.27 0 0 0-.793 1.346 2.28 2.28 0 0 0 .259 1.541c.328.547.917 1.052.787 1.683s-.93.867-1.583.972c-5.745.913-11.338 2.597-16.9 4.272l-5.846 1.76c-1.683.5-3.4 1.03-4.856 2.02-1.337.9-2.395 2.174-3.056 3.65-.665 1.5-.896 3.148-1.136 4.77-.876 5.976-1.995 12.007-4.664 17.424l14.18 4.63a20.5 20.5 0 0 0 4.246 1.07c1.382.115 2.773.048 4.137-.198l-.23-9.592a26.03 26.03 0 0 0-.194-2.992c-.2-1.515-.68-2.993-.84-4.516.652-.54 1.603-.42 2.45-.383 1.936.06 3.826-.615 5.543-1.503s3.32-2 5.05-2.9c2.85-1.507 6.1-2.525 8.266-4.903-1.107 4.208-3.725 7.904-4.2 12.24s1.262 8.67 3.013 12.723l5.58 12.942c.615 1.43 1.435 3.034 2.946 3.367.947.214 1.924-.143 2.803-.552 5.13-2.407 9.26-6.923 14.73-8.37-.42-2.715-2.55-4.958-3.767-7.42-1.023-2.075-1.36-4.4-2.04-6.625s-1.856-4.452-3.92-5.505c-.976-.496-2.297-.93-2.4-2.028a2.33 2.33 0 0 1 .219-1.019c.737-1.847 1.877-3.506 3.337-4.857.182-.146.326-.334.42-.547a1.61 1.61 0 0 0 .034-.652c-.105-1.764.842-3.413 1.894-4.828s2.268-2.765 2.862-4.427c1.018-2.862 0-6.002-1.002-8.864-.42-1.157-.842-2.353-1.683-3.25-1.314-1.406-3.367-1.8-5.274-2.02-6.195-.66-13.468-2.28-18.363 1.536z"/></g><g class="B C"><path d="M366.608 100.817c-1.057 1.42-2 3.064-1.894 4.828a1.61 1.61 0 0 1-.034.652 1.49 1.49 0 0 1-.421.551 13.36 13.36 0 0 0-3.337 4.857 2.33 2.33 0 0 0-.219 1.019c.06.686.602 1.115 1.262 1.46a13.38 13.38 0 0 1 2.315-2.82c.182-.146.326-.334.42-.547a1.61 1.61 0 0 0 .034-.652c-.105-1.764.842-3.413 1.894-4.828s2.268-2.765 2.862-4.427a9.24 9.24 0 0 0 .15-5.01l-.15.488c-.615 1.654-1.83 3-2.883 4.427zM342.525 89.15a1.19 1.19 0 0 0 .908-.787.77.77 0 0 0 0-.244l-.265.198c-.282.22-.503.505-.644.833h0zm-18.73 39.773a20.92 20.92 0 0 1-4.246-1.069l-12.517-4.103a37.25 37.25 0 0 1-1.684 3.973l14.18 4.63a20.44 20.44 0 0 0 4.246 1.07c1.382.115 2.773.05 4.137-.197l-.1-4.504a15.55 15.55 0 0 1-4.007.202zm34.29 13.733c-.88.42-1.856.766-2.803.556-1.515-.34-2.336-1.95-2.946-3.367l-5.58-12.942c-1.225-2.845-2.466-5.808-2.92-8.838l-.092.64c-.514 4.382 1.262 8.67 3.013 12.723l5.58 12.942c.614 1.43 1.435 3.035 2.946 3.367.947.215 1.923-.143 2.803-.55 5.13-2.407 9.26-6.923 14.73-8.37-.2-1.414-.9-2.702-1.684-3.96-4.68 1.823-8.455 5.665-13.047 7.803zm-10.118-40.71c-2.176 2.378-5.416 3.392-8.266 4.9l-5.05 2.896c-1.743.888-3.607 1.557-5.543 1.502-.842-.025-1.797-.16-2.45.38.135 1.4.543 2.774.775 4.17.558-.075 1.123-.087 1.683-.034 1.936.06 3.826-.614 5.543-1.502l5.05-2.892 5.724-2.87c.9-2.15 1.936-4.272 2.533-6.55z" class="B"/></g><use xlink:href="#K" class="H"/><use xlink:href="#K" class="B C"/><g class="H"><path d="M357.285 43.4c4.635 0 8.393-3.757 8.393-8.392s-3.758-8.392-8.393-8.392-8.392 3.757-8.392 8.392 3.757 8.392 8.392 8.392zm-26.477 55.995a5.69 5.69 0 0 1-.791 1.865 8.77 8.77 0 0 0-1.002 5.728 6.07 6.07 0 0 0 1.21 2.669 6.06 6.06 0 0 0 2.321 1.788c.783.312 1.755.392 2.404-.15-1.12-1.457-1.18-3.447-1.112-5.286a1.74 1.74 0 0 1 .236-.98.62.62 0 0 1 .657-.266.64.64 0 0 1 .227.106 8 8 0 0 0 .657 3.367c.176.42.48.842.925.842.64 0 .813-.884.788-1.524-.097-2.6-.228-5.3-1.482-7.597-.46-.842-1.07-1.616-1.263-2.555a1.51 1.51 0 0 0-.319-.897 1.13 1.13 0 0 0-.472-.219c-.724-.206-2.432-.842-3.03-.164s.143 2.407.046 3.274z"/></g><use xlink:href="#L" class="K"/><use xlink:href="#L" class="B C"/><path d="M364.407 46.777a10.56 10.56 0 0 1-5.106 2.946c-1.932.477-3.905.768-5.892.87-.613.102-1.24.047-1.827-.16-.564-.252-.993-.922-.76-1.494a1.66 1.66 0 0 0 .189-.56c0-.51-.762-.55-1.263-.4-3.232.997-6.313 2.976-7.82 6-.842 1.717-1.12 3.645-1.39 5.535-.7 4.975-1.402 10.06-.46 14.992.5 2.63 1.47 5.198 1.528 7.875.033 1.502-.22 2.997-.207 4.5-.045.525.095 1.05.396 1.48.232.27.585.442.745.758.27.53-.093 1.263.265 1.738.42.585 1.36.164 1.96-.248a15.62 15.62 0 0 1 10.388-2.618c4.398.476 8.767 2.816 13.047 1.646a5.82 5.82 0 0 1-.568-1.014c-2.105-6.99-1.983-14.802 1.2-21.376 1.1-2.247 2.525-4.4 2.946-6.848a12.97 12.97 0 0 0 .042-3.476c-.223-2.235-.757-4.487-1.97-6.376s-3.212-3.56-5.446-3.78z" class="K"/><path d="M344.104 101.554c-.34.913-.505 1.883-.485 2.857a16.8 16.8 0 0 0 .139 2.791c.072.79.354 1.545.817 2.188a2 2 0 0 0 .938.694 1.99 1.99 0 0 0 1.166.051c.302-.125.572-.316.79-.56s.38-.532.472-.845a12.71 12.71 0 0 0 .395-1.911c.37-1.907 1.368-3.695 1.39-5.636.013-.23-.025-.46-.11-.673-.362-.8-2.147-1.684-3.018-1.557-1.094.168-2.1 1.683-2.495 2.6z" class="H"/><path d="M368.32 53.852c-.164 1.684 1.447 2.925 2.104 4.478a7.55 7.55 0 0 1 .421 2.252c.45 5.332.1 10.7-.248 16.044a30.04 30.04 0 0 1-.649 5.295c-.9 3.653-3.118 6.814-5.3 9.886-.328.5-.707.964-1.132 1.385a8.48 8.48 0 0 1-2.104 1.263l-7.467 3.632a14.37 14.37 0 0 0-2.647 1.523 7.22 7.22 0 0 0-2.193 2.849c-1.443-.736-2.946-1.4-4.4-2.138-.34-.172-.72-.42-.774-.774-.08-.505.446-.842.808-1.22.678-.67.888-1.663 1.263-2.525 1.2-2.88 4.208-4.718 5.303-7.64.42-1.12.547-2.386 1.288-3.33a8.27 8.27 0 0 1 1.422-1.263c1.148-.975 2.202-2.056 3.148-3.228.426-.44.775-.95 1.03-1.507.33-.842.232-1.755.25-2.643.054-2.912 1.372-5.63 2.18-8.417.757-2.635 1.073-5.404 2.07-7.96s2.95-5.27 5.606-5.964z" class="B C"/><path d="M369.29 53.852c-.164 1.684 1.447 2.925 2.104 4.478a7.55 7.55 0 0 1 .421 2.252c.45 5.332.1 10.7-.248 16.044-.063 1.778-.282 3.547-.657 5.286-.9 3.653-3.12 6.814-5.3 9.886a8.6 8.6 0 0 1-1.132 1.385 8.48 8.48 0 0 1-2.105 1.263l-7.45 3.61a14.38 14.38 0 0 0-2.648 1.524c-.96.75-1.713 1.73-2.192 2.85-1.444-.737-2.947-1.4-4.4-2.138-.34-.173-.72-.42-.775-.774-.08-.505.447-.842.81-1.22.677-.67.888-1.662 1.262-2.525 1.2-2.88 4.21-4.718 5.303-7.64.42-1.12.547-2.386 1.288-3.33.424-.474.9-.898 1.423-1.263a24.38 24.38 0 0 0 3.152-3.228 5.43 5.43 0 0 0 1.027-1.507c.328-.842.23-1.755.248-2.643.055-2.912 1.372-5.63 2.18-8.418.758-2.635 1.074-5.404 2.07-7.96s2.942-5.24 5.598-5.934z" class="K"/><g class="F"><path d="M361.448 22.042c-2.585-.32-5.203.222-7.45 1.54.33 0 .66.034.998.076a11.94 11.94 0 0 1 6.651 3.064c1.84 1.693 3.105 3.92 3.612 6.37a11.95 11.95 0 0 1-.787 7.281c-1.018 2.285-2.728 4.192-4.89 5.452a11.94 11.94 0 0 0 8.359-3.032c2.292-2.05 3.705-4.903 3.946-7.968a11.94 11.94 0 0 0-10.44-12.783h0z"/><path d="M365.122 28.68c.584 1.327.617 2.832.093 4.183a4.85 4.85 0 0 0-.194-.509c-1.477-3.287-6.023-4.63-10.156-3.04-2.437.947-4.183 2.715-4.907 4.676-1.052-3.173 1.086-6.822 5.008-8.346 4.133-1.608 8.67-.248 10.156 3.034z"/></g><g class="B C"><path d="M365.143 32.602a11.95 11.95 0 0 0-7.997-10.303 12.03 12.03 0 0 0-3.165 1.263c.33 0 .66.034.998.076a11.94 11.94 0 0 1 10.164 8.965h0zm1.937-8.717a11.95 11.95 0 0 0-2.47-6.337 11.94 11.94 0 0 0-5.528-3.962 11.75 11.75 0 0 0-3.165 1.263c.33 0 .66.034.998.076a11.94 11.94 0 0 1 6.477 2.898c1.815 1.6 3.1 3.715 3.687 6.062h0zm.05-13.013c-.115-1.392-.63-2.72-1.485-3.824a7.22 7.22 0 0 0-3.33-2.396 7.09 7.09 0 0 0-1.911.8c.198 0 .4 0 .602.042a7.21 7.21 0 0 1 6.124 5.379h0zm4.465 20.108a11.94 11.94 0 0 1-2.27 8.044c-1.7 2.32-4.183 3.947-7 4.583a11.92 11.92 0 0 1-2.76 2.226c1.852.07 3.694-.295 5.38-1.062s3.172-1.916 4.337-3.356a11.94 11.94 0 0 0 2.294-10.426l.008-.008z" class="B"/></g><g class="D"><path d="M402.778 29.167a8.55 8.55 0 0 0-4.941.539 7.27 7.27 0 0 1-5.935 0 8.33 8.33 0 0 0-3.503-.698 8.34 8.34 0 0 0-3.475.833c-.618.328-1.307.502-2.007.505-2.83 0-5.18-2.85-5.67-6.612.564-.412 1.045-.93 1.414-1.524 1.658-2.672 4.208-4.385 7.108-4.385s5.425 1.683 7.084 4.34a5.46 5.46 0 0 0 2.011 1.904 5.47 5.47 0 0 0 2.686.676h.075c2.23-.013 4.18 1.793 5.152 4.423z" class="B"/><path d="M411.372 17.37l-4.57 2.9 2.774-5.05a4.5 4.5 0 0 0-2.765-.989h-.072a5.06 5.06 0 0 1-.947-.067l-1.553.968.665-1.208c-1.097-.384-2.046-1.104-2.7-2.058l-2.782 1.776 1.75-3.186c-1.62-1.944-3.788-3.14-6.212-3.14-2.883 0-5.472 1.713-7.113 4.4a5.34 5.34 0 0 1-2.01 1.895c-.824.445-1.754.66-2.7.63h-.14c-3.182 0-5.766 3.6-5.766 8.064s2.584 8.064 5.766 8.064c.7-.002 1.4-.175 2.007-.505a8.34 8.34 0 0 1 3.475-.833 8.33 8.33 0 0 1 3.503.698c.94.42 1.956.637 2.984.64a7.28 7.28 0 0 0 2.947-.627 8.33 8.33 0 0 1 3.472-.684 8.32 8.32 0 0 1 3.443.82 4.31 4.31 0 0 0 1.986.492c3.186 0 5.766-3.6 5.766-8.064.016-1.717-.4-3.4-1.208-4.924h0zM437.7 83.258a12.16 12.16 0 0 0-7.058.77 10.4 10.4 0 0 1-8.476 0 11.93 11.93 0 0 0-5.005-.998 11.89 11.89 0 0 0-4.961 1.191 6.16 6.16 0 0 1-2.87.72c-4.04 0-7.403-4.07-8.102-9.44a7.82 7.82 0 0 0 2.021-2.18c2.37-3.817 6.04-6.267 10.16-6.267s7.745 2.42 10.1 6.2c.7 1.143 1.702 2.084 2.882 2.73a7.8 7.8 0 0 0 3.853.957h.105c3.2-.02 5.976 2.56 7.352 6.317z" class="B"/><path d="M450 66.402l-6.532 4.146 3.965-7.214a6.48 6.48 0 0 0-3.952-1.41h-.106a8.2 8.2 0 0 1-1.355-.1l-2.214 1.402.952-1.726a7.87 7.87 0 0 1-3.873-2.946l-3.964 2.525 2.525-4.55c-2.32-2.782-5.442-4.5-8.876-4.5-4.12 0-7.8 2.454-10.16 6.27a7.58 7.58 0 0 1-2.877 2.721c-1.183.636-2.515.946-3.857.898h-.223c-4.55 0-8.237 5.16-8.237 11.52s3.687 11.52 8.237 11.52c1-.003 1.985-.25 2.87-.716a11.88 11.88 0 0 1 4.962-1.195c1.72-.034 3.428.306 5.005.997a10.56 10.56 0 0 0 4.236.913 10.4 10.4 0 0 0 4.24-.892 11.92 11.92 0 0 1 4.962-.98 11.88 11.88 0 0 1 4.92 1.168 6.17 6.17 0 0 0 2.837.703c4.55 0 8.236-5.156 8.236-11.52a14.63 14.63 0 0 0-1.72-7.045h0zM291.507 59.9a8.55 8.55 0 0 1 4.941.539 7.25 7.25 0 0 0 2.965.633c1.022 0 2.032-.216 2.965-.633a8.33 8.33 0 0 1 3.504-.698c1.204.024 2.4.308 3.474.833.62.328 1.307.5 2.008.505 2.828 0 5.185-2.85 5.673-6.612a5.38 5.38 0 0 1-1.414-1.524c-1.658-2.672-4.2-4.385-7.113-4.385s-5.42 1.684-7.08 4.34c-.5.797-1.195 1.452-2.02 1.9a5.48 5.48 0 0 1-2.694.666h-.07c-2.24 0-4.192 1.806-5.14 4.436z" class="B"/><path d="M282.887 48.094l4.57 2.9-2.778-5.05a4.51 4.51 0 0 1 2.765-.989h.076a5.05 5.05 0 0 0 .947-.067l1.55.98-.665-1.208a5.53 5.53 0 0 0 2.714-2.058l2.774 1.76-1.755-3.186c1.625-1.944 3.788-3.14 6.216-3.14 2.883 0 5.472 1.713 7.113 4.4.492.798 1.185 1.452 2.01 1.895s1.754.66 2.7.63h.152c3.186 0 5.766 3.61 5.766 8.064s-2.58 8.064-5.766 8.064c-.7-.003-1.4-.176-2.008-.505a8.33 8.33 0 0 0-3.474-.833c-1.205-.023-2.4.215-3.504.698a7.35 7.35 0 0 1-2.98.64c-1.015 0-2.02-.214-2.946-.627-1.096-.474-2.28-.708-3.474-.684s-2.37.303-3.445.82a4.3 4.3 0 0 1-1.987.492c-3.18 0-5.766-3.61-5.766-8.064-.016-1.715.398-3.407 1.204-4.92h0z" class="B"/></g></g><defs><linearGradient id="A" x1="250" y1="335.695" x2="250" y2="20.602" gradientUnits="userSpaceOnUse"><stop stop-color="#f9a826"/><stop offset="1" stop-color="#3f3d56"/></linearGradient><linearGradient id="B" x1="346.578" y1="170.678" x2="346.578" y2=".96" gradientUnits="userSpaceOnUse"><stop stop-color="gray" stop-opacity=".25"/><stop offset=".54" stop-color="gray" stop-opacity=".12"/><stop offset="1" stop-color="gray" stop-opacity=".1"/></linearGradient><clipPath id="C"><path fill="#fff" d="M0 .96h500v334.735H0z"/></clipPath><path id="D" d="M500 218.78c-.015 20.592-5.458 40.816-15.782 58.633s-25.16 32.6-43.02 42.853H213.312l-.762-6.015-.51-4.5a225 225 0 0 1-.711-7.866c-1-14.15-.42-28.62 5.22-41.284a49.91 49.91 0 0 1 2.39-4.739 52.46 52.46 0 0 1 4.399-6.469 58.64 58.64 0 0 1 4.629-5.147c2.208-2.174 4.557-4.198 7.033-6.06 1.183-.896 2.4-1.768 3.636-2.605l.228-.152c6.342-4.267 13.32-7.76 20.35-10.74l1.835-.762 2.058-.842.274-.11a216.12 216.12 0 0 1 11.199-4.108c6.386-2.152 12.863-4.003 19.432-5.55l4.916-1.1 4.785-.96c3.538-.673 7.1-1.257 10.657-1.75l1.107-.143 2.33-.308.42-.05 2.016-.236 8.253-.842c.1 0 .215 0 .32-.038h.026l8.754-.7 2.045-.15 11.684-.825 8.097-.66 1.372-.122.93-.088a1.78 1.78 0 0 0 .252-.026h.118l1.56-.155a.72.72 0 0 1 .093 0h0l1.338-.14c3.578-.37 7.155-.808 10.707-1.343l1.086-.16c6.16-.943 12.255-2.262 18.254-3.948a126.36 126.36 0 0 0 4.082-1.237 124.68 124.68 0 0 0 4.63-1.599l.648-.24 3.182-1.263a91.2 91.2 0 0 0 4.537-2.02l.193-.088c1.774-.842 3.513-1.746 5.22-2.71a73.16 73.16 0 0 0 2.353-1.385c3.926-2.364 7.626-5.086 11.052-8.13l.77-.703.085-.075c3.345-3.175 6.496-6.548 9.435-10.102 4.184-4.915 8.233-9.97 12.85-14.47 1.347-1.313 2.75-2.576 4.21-3.788 1.683-1.39 3.4-2.698 5.185-3.927l.265-.185c2.612-1.79 5.334-3.417 8.148-4.87a115.6 115.6 0 0 1 6.259 7.997c14.198 19.82 21.81 43.602 21.763 67.984h0z"/><path id="E" d="M83.035 216.394c1.258 0 2.277-1.336 2.277-2.984s-1.02-2.984-2.277-2.984-2.277 1.336-2.277 2.984 1.02 2.984 2.277 2.984z"/><path id="F" d="M261.486 234.912c1.257 0 2.277-1.336 2.277-2.984s-1.02-2.984-2.277-2.984-2.277 1.336-2.277 2.984 1.02 2.984 2.277 2.984z"/><path id="G" d="M468.136 189.88c1.257 0 2.276-1.336 2.276-2.984s-1.02-2.984-2.276-2.984-2.277 1.336-2.277 2.984 1.02 2.984 2.277 2.984z"/><path id="H" d="M416.166 251.95c8.32 0 15.063-8.828 15.063-19.718s-6.744-19.718-15.063-19.718-15.063 8.828-15.063 19.718 6.744 19.718 15.063 19.718z"/><path id="I" d="M214.726 334.222h-35.273c4.124-6.79 10.492-11.145 17.64-11.145s13.514 4.344 17.634 11.145z"/><path id="J" d="M480.728 230.78c6.51 0 11.785-5.276 11.785-11.784s-5.276-11.785-11.785-11.785-11.784 5.276-11.784 11.785 5.276 11.784 11.784 11.784z"/><path id="K" d="M352.942 43.494c.07 1.4-.354 2.92-1.44 3.826-.35.3-.753.514-1.1.816-.297.306-.524.672-.666 1.075a2.94 2.94 0 0 0-.154 1.255 2.95 2.95 0 0 0 .386 1.204c.214.37.506.686.855.93 1.124.7 2.56.505 3.86.278 1.728-.245 3.423-.688 5.05-1.322 1.643-.645 3.042-1.79 4-3.274-1.42-.787-2.19-2.45-2.277-4.066s.357-3.464-.67-4.722-2.82-1.216-4.314-.795l-2.247.703c-.383.1-1.654.105-1.902.387-.48.522.564 2.883.6 3.704z"/><path id="L" d="M343.25 54.807c-.96-.105-1.72.774-2.247 1.587a30.67 30.67 0 0 0-4.18 9.903c-.42 1.797-.66 3.662-1.515 5.295-.202.34-.367.702-.492 1.077-.072.577-.097 1.158-.076 1.738-.088 1.048-.707 1.978-.917 3.013-.123.615-.097 1.263-.207 1.87-.193 1.082-.787 2.04-1.17 3.072-.67 1.814-.66 3.788-1.153 5.678-.06.308-.195.597-.39.842-.333.366-.867.46-1.305.7-.343.21-.638.493-.863.827a2.83 2.83 0 0 0-.446 1.109 8.49 8.49 0 0 0-.046 2.403l.387 4.962c.396-.164.657-.614.99-.892.606-.505 1.498-.39 2.273-.248l1.132.202c1.157.2 2.416.48 3.156 1.39.6-.922.253-2.28 1.158-2.896.3-.198.66-.265.972-.42a2.18 2.18 0 0 0 .707-.751c.172-.303.27-.643.282-.992.018-.697-.08-1.392-.286-2.058 1.452-.6 2.357-2.083 2.946-3.552.623-1.777 1.075-3.61 1.35-5.47 1.31-7.378 2.525-14.806 2.63-22.306a10.73 10.73 0 0 0-.421-3.716c-.425-1.204-1.023-2.2-2.27-2.353z"/></defs></svg>