<svg width="500" height="376" viewBox="0 0 500 376" fill="none" xmlns="http://www.w3.org/2000/svg">
<g clip-path="url(#clip0)">
<path d="M499.776 362.457H348.792V361.223H500L499.776 362.457Z" fill="#3F3D56"/>
<path d="M24.2273 8.70414C26.6308 8.70414 28.5792 6.75575 28.5792 4.35228C28.5792 1.94882 26.6308 0.000427246 24.2273 0.000427246C21.8239 0.000427246 19.8755 1.94882 19.8755 4.35228C19.8755 6.75575 21.8239 8.70414 24.2273 8.70414Z" fill="#E6E6E6"/>
<path d="M46.2564 8.70414C48.6599 8.70414 50.6083 6.75575 50.6083 4.35228C50.6083 1.94882 48.6599 0.000427246 46.2564 0.000427246C43.8529 0.000427246 41.9045 1.94882 41.9045 4.35228C41.9045 6.75575 43.8529 8.70414 46.2564 8.70414Z" fill="#E6E6E6"/>
<path d="M68.2853 8.70414C70.6888 8.70414 72.6372 6.75575 72.6372 4.35228C72.6372 1.94882 70.6888 0.000427246 68.2853 0.000427246C65.8819 0.000427246 63.9335 1.94882 63.9335 4.35228C63.9335 6.75575 65.8819 8.70414 68.2853 8.70414Z" fill="#E6E6E6"/>
<path d="M90.3144 8.70414C92.7178 8.70414 94.6662 6.75575 94.6662 4.35228C94.6662 1.94882 92.7178 0.000427246 90.3144 0.000427246C87.9109 0.000427246 85.9625 1.94882 85.9625 4.35228C85.9625 6.75575 87.9109 8.70414 90.3144 8.70414Z" fill="#E6E6E6"/>
<path d="M112.343 8.70414C114.747 8.70414 116.695 6.75575 116.695 4.35228C116.695 1.94882 114.747 0.000427246 112.343 0.000427246C109.94 0.000427246 107.992 1.94882 107.992 4.35228C107.992 6.75575 109.94 8.70414 112.343 8.70414Z" fill="#E6E6E6"/>
<path d="M134.372 8.70414C136.776 8.70414 138.724 6.75575 138.724 4.35228C138.724 1.94882 136.776 0.000427246 134.372 0.000427246C131.969 0.000427246 130.021 1.94882 130.021 4.35228C130.021 6.75575 131.969 8.70414 134.372 8.70414Z" fill="#E6E6E6"/>
<path d="M156.402 8.70414C158.805 8.70414 160.753 6.75575 160.753 4.35228C160.753 1.94882 158.805 0.000427246 156.402 0.000427246C153.998 0.000427246 152.05 1.94882 152.05 4.35228C152.05 6.75575 153.998 8.70414 156.402 8.70414Z" fill="#E6E6E6"/>
<path d="M178.43 8.70414C180.834 8.70414 182.782 6.75575 182.782 4.35228C182.782 1.94882 180.834 0.000427246 178.43 0.000427246C176.027 0.000427246 174.079 1.94882 174.079 4.35228C174.079 6.75575 176.027 8.70414 178.43 8.70414Z" fill="#E6E6E6"/>
<path d="M200.46 8.70414C202.863 8.70414 204.811 6.75575 204.811 4.35228C204.811 1.94882 202.863 0.000427246 200.46 0.000427246C198.056 0.000427246 196.108 1.94882 196.108 4.35228C196.108 6.75575 198.056 8.70414 200.46 8.70414Z" fill="#E6E6E6"/>
<path d="M222.489 8.70414C224.892 8.70414 226.84 6.75575 226.84 4.35228C226.84 1.94882 224.892 0.000427246 222.489 0.000427246C220.085 0.000427246 218.137 1.94882 218.137 4.35228C218.137 6.75575 220.085 8.70414 222.489 8.70414Z" fill="#E6E6E6"/>
<path d="M24.2273 31.0097C26.6308 31.0097 28.5792 29.0613 28.5792 26.6578C28.5792 24.2544 26.6308 22.306 24.2273 22.306C21.8239 22.306 19.8755 24.2544 19.8755 26.6578C19.8755 29.0613 21.8239 31.0097 24.2273 31.0097Z" fill="#E6E6E6"/>
<path d="M46.2564 31.0097C48.6599 31.0097 50.6083 29.0613 50.6083 26.6578C50.6083 24.2544 48.6599 22.306 46.2564 22.306C43.8529 22.306 41.9045 24.2544 41.9045 26.6578C41.9045 29.0613 43.8529 31.0097 46.2564 31.0097Z" fill="#E6E6E6"/>
<path d="M68.2853 31.0097C70.6888 31.0097 72.6372 29.0613 72.6372 26.6578C72.6372 24.2544 70.6888 22.306 68.2853 22.306C65.8819 22.306 63.9335 24.2544 63.9335 26.6578C63.9335 29.0613 65.8819 31.0097 68.2853 31.0097Z" fill="#E6E6E6"/>
<path d="M90.3144 31.0097C92.7178 31.0097 94.6662 29.0613 94.6662 26.6578C94.6662 24.2544 92.7178 22.306 90.3144 22.306C87.9109 22.306 85.9625 24.2544 85.9625 26.6578C85.9625 29.0613 87.9109 31.0097 90.3144 31.0097Z" fill="#F9A826"/>
<path d="M112.343 31.0097C114.747 31.0097 116.695 29.0613 116.695 26.6578C116.695 24.2544 114.747 22.306 112.343 22.306C109.94 22.306 107.992 24.2544 107.992 26.6578C107.992 29.0613 109.94 31.0097 112.343 31.0097Z" fill="#E6E6E6"/>
<path d="M134.372 31.0097C136.776 31.0097 138.724 29.0613 138.724 26.6578C138.724 24.2544 136.776 22.306 134.372 22.306C131.969 22.306 130.021 24.2544 130.021 26.6578C130.021 29.0613 131.969 31.0097 134.372 31.0097Z" fill="#E6E6E6"/>
<path d="M156.402 31.0097C158.805 31.0097 160.753 29.0613 160.753 26.6578C160.753 24.2544 158.805 22.306 156.402 22.306C153.998 22.306 152.05 24.2544 152.05 26.6578C152.05 29.0613 153.998 31.0097 156.402 31.0097Z" fill="#E6E6E6"/>
<path d="M178.43 31.0097C180.834 31.0097 182.782 29.0613 182.782 26.6578C182.782 24.2544 180.834 22.306 178.43 22.306C176.027 22.306 174.079 24.2544 174.079 26.6578C174.079 29.0613 176.027 31.0097 178.43 31.0097Z" fill="#E6E6E6"/>
<path d="M200.46 31.0097C202.863 31.0097 204.811 29.0613 204.811 26.6578C204.811 24.2544 202.863 22.306 200.46 22.306C198.056 22.306 196.108 24.2544 196.108 26.6578C196.108 29.0613 198.056 31.0097 200.46 31.0097Z" fill="#E6E6E6"/>
<path d="M222.489 31.0097C224.892 31.0097 226.84 29.0613 226.84 26.6578C226.84 24.2544 224.892 22.306 222.489 22.306C220.085 22.306 218.137 24.2544 218.137 26.6578C218.137 29.0613 220.085 31.0097 222.489 31.0097Z" fill="#E6E6E6"/>
<path d="M24.2273 53.3152C26.6308 53.3152 28.5792 51.3668 28.5792 48.9634C28.5792 46.5599 26.6308 44.6115 24.2273 44.6115C21.8239 44.6115 19.8755 46.5599 19.8755 48.9634C19.8755 51.3668 21.8239 53.3152 24.2273 53.3152Z" fill="#E6E6E6"/>
<path d="M46.2564 53.3152C48.6599 53.3152 50.6083 51.3668 50.6083 48.9634C50.6083 46.5599 48.6599 44.6115 46.2564 44.6115C43.8529 44.6115 41.9045 46.5599 41.9045 48.9634C41.9045 51.3668 43.8529 53.3152 46.2564 53.3152Z" fill="#E6E6E6"/>
<path d="M68.2853 53.3152C70.6888 53.3152 72.6372 51.3668 72.6372 48.9634C72.6372 46.5599 70.6888 44.6115 68.2853 44.6115C65.8819 44.6115 63.9335 46.5599 63.9335 48.9634C63.9335 51.3668 65.8819 53.3152 68.2853 53.3152Z" fill="#E6E6E6"/>
<path d="M90.3144 53.3152C92.7178 53.3152 94.6662 51.3668 94.6662 48.9634C94.6662 46.5599 92.7178 44.6115 90.3144 44.6115C87.9109 44.6115 85.9625 46.5599 85.9625 48.9634C85.9625 51.3668 87.9109 53.3152 90.3144 53.3152Z" fill="#E6E6E6"/>
<path d="M112.343 53.3152C114.747 53.3152 116.695 51.3668 116.695 48.9634C116.695 46.5599 114.747 44.6115 112.343 44.6115C109.94 44.6115 107.992 46.5599 107.992 48.9634C107.992 51.3668 109.94 53.3152 112.343 53.3152Z" fill="#E6E6E6"/>
<path d="M134.372 53.3152C136.776 53.3152 138.724 51.3668 138.724 48.9634C138.724 46.5599 136.776 44.6115 134.372 44.6115C131.969 44.6115 130.021 46.5599 130.021 48.9634C130.021 51.3668 131.969 53.3152 134.372 53.3152Z" fill="#E6E6E6"/>
<path d="M156.402 53.3152C158.805 53.3152 160.753 51.3668 160.753 48.9634C160.753 46.5599 158.805 44.6115 156.402 44.6115C153.998 44.6115 152.05 46.5599 152.05 48.9634C152.05 51.3668 153.998 53.3152 156.402 53.3152Z" fill="#E6E6E6"/>
<path d="M178.43 53.3152C180.834 53.3152 182.782 51.3668 182.782 48.9634C182.782 46.5599 180.834 44.6115 178.43 44.6115C176.027 44.6115 174.079 46.5599 174.079 48.9634C174.079 51.3668 176.027 53.3152 178.43 53.3152Z" fill="#E6E6E6"/>
<path d="M200.46 53.3152C202.863 53.3152 204.811 51.3668 204.811 48.9634C204.811 46.5599 202.863 44.6115 200.46 44.6115C198.056 44.6115 196.108 46.5599 196.108 48.9634C196.108 51.3668 198.056 53.3152 200.46 53.3152Z" fill="#E6E6E6"/>
<path d="M222.489 53.3152C224.892 53.3152 226.84 51.3668 226.84 48.9634C226.84 46.5599 224.892 44.6115 222.489 44.6115C220.085 44.6115 218.137 46.5599 218.137 48.9634C218.137 51.3668 220.085 53.3152 222.489 53.3152Z" fill="#E6E6E6"/>
<path d="M24.2273 75.6208C26.6308 75.6208 28.5792 73.6724 28.5792 71.2689C28.5792 68.8654 26.6308 66.9171 24.2273 66.9171C21.8239 66.9171 19.8755 68.8654 19.8755 71.2689C19.8755 73.6724 21.8239 75.6208 24.2273 75.6208Z" fill="#E6E6E6"/>
<path d="M46.2564 75.6208C48.6599 75.6208 50.6083 73.6724 50.6083 71.2689C50.6083 68.8654 48.6599 66.9171 46.2564 66.9171C43.8529 66.9171 41.9045 68.8654 41.9045 71.2689C41.9045 73.6724 43.8529 75.6208 46.2564 75.6208Z" fill="#E6E6E6"/>
<path d="M68.2853 75.6208C70.6888 75.6208 72.6372 73.6724 72.6372 71.2689C72.6372 68.8654 70.6888 66.9171 68.2853 66.9171C65.8819 66.9171 63.9335 68.8654 63.9335 71.2689C63.9335 73.6724 65.8819 75.6208 68.2853 75.6208Z" fill="#E6E6E6"/>
<path d="M90.3144 75.6208C92.7178 75.6208 94.6662 73.6724 94.6662 71.2689C94.6662 68.8654 92.7178 66.9171 90.3144 66.9171C87.9109 66.9171 85.9625 68.8654 85.9625 71.2689C85.9625 73.6724 87.9109 75.6208 90.3144 75.6208Z" fill="#E6E6E6"/>
<path d="M112.343 75.6208C114.747 75.6208 116.695 73.6724 116.695 71.2689C116.695 68.8654 114.747 66.9171 112.343 66.9171C109.94 66.9171 107.992 68.8654 107.992 71.2689C107.992 73.6724 109.94 75.6208 112.343 75.6208Z" fill="#E6E6E6"/>
<path d="M134.372 75.6208C136.776 75.6208 138.724 73.6724 138.724 71.2689C138.724 68.8654 136.776 66.9171 134.372 66.9171C131.969 66.9171 130.021 68.8654 130.021 71.2689C130.021 73.6724 131.969 75.6208 134.372 75.6208Z" fill="#E6E6E6"/>
<path d="M156.402 75.6208C158.805 75.6208 160.753 73.6724 160.753 71.2689C160.753 68.8654 158.805 66.9171 156.402 66.9171C153.998 66.9171 152.05 68.8654 152.05 71.2689C152.05 73.6724 153.998 75.6208 156.402 75.6208Z" fill="#E6E6E6"/>
<path d="M178.43 75.6208C180.834 75.6208 182.782 73.6724 182.782 71.2689C182.782 68.8654 180.834 66.9171 178.43 66.9171C176.027 66.9171 174.079 68.8654 174.079 71.2689C174.079 73.6724 176.027 75.6208 178.43 75.6208Z" fill="#E6E6E6"/>
<path d="M200.46 75.6208C202.863 75.6208 204.811 73.6724 204.811 71.2689C204.811 68.8654 202.863 66.9171 200.46 66.9171C198.056 66.9171 196.108 68.8654 196.108 71.2689C196.108 73.6724 198.056 75.6208 200.46 75.6208Z" fill="#E6E6E6"/>
<path d="M222.489 75.6208C224.892 75.6208 226.84 73.6724 226.84 71.2689C226.84 68.8654 224.892 66.9171 222.489 66.9171C220.085 66.9171 218.137 68.8654 218.137 71.2689C218.137 73.6724 220.085 75.6208 222.489 75.6208Z" fill="#E6E6E6"/>
<path d="M24.2273 97.9263C26.6308 97.9263 28.5792 95.9779 28.5792 93.5745C28.5792 91.171 26.6308 89.2226 24.2273 89.2226C21.8239 89.2226 19.8755 91.171 19.8755 93.5745C19.8755 95.9779 21.8239 97.9263 24.2273 97.9263Z" fill="#E6E6E6"/>
<path d="M46.2564 97.9263C48.6599 97.9263 50.6083 95.9779 50.6083 93.5745C50.6083 91.171 48.6599 89.2226 46.2564 89.2226C43.8529 89.2226 41.9045 91.171 41.9045 93.5745C41.9045 95.9779 43.8529 97.9263 46.2564 97.9263Z" fill="#F9A826"/>
<path d="M68.2853 97.9263C70.6888 97.9263 72.6372 95.9779 72.6372 93.5745C72.6372 91.171 70.6888 89.2226 68.2853 89.2226C65.8819 89.2226 63.9335 91.171 63.9335 93.5745C63.9335 95.9779 65.8819 97.9263 68.2853 97.9263Z" fill="#E6E6E6"/>
<path d="M90.3144 97.9263C92.7178 97.9263 94.6662 95.9779 94.6662 93.5745C94.6662 91.171 92.7178 89.2226 90.3144 89.2226C87.9109 89.2226 85.9625 91.171 85.9625 93.5745C85.9625 95.9779 87.9109 97.9263 90.3144 97.9263Z" fill="#E6E6E6"/>
<path d="M112.343 97.9263C114.747 97.9263 116.695 95.9779 116.695 93.5745C116.695 91.171 114.747 89.2226 112.343 89.2226C109.94 89.2226 107.992 91.171 107.992 93.5745C107.992 95.9779 109.94 97.9263 112.343 97.9263Z" fill="#E6E6E6"/>
<path d="M134.372 97.9263C136.776 97.9263 138.724 95.9779 138.724 93.5745C138.724 91.171 136.776 89.2226 134.372 89.2226C131.969 89.2226 130.021 91.171 130.021 93.5745C130.021 95.9779 131.969 97.9263 134.372 97.9263Z" fill="#E6E6E6"/>
<path d="M156.402 97.9263C158.805 97.9263 160.753 95.9779 160.753 93.5745C160.753 91.171 158.805 89.2226 156.402 89.2226C153.998 89.2226 152.05 91.171 152.05 93.5745C152.05 95.9779 153.998 97.9263 156.402 97.9263Z" fill="#E6E6E6"/>
<path d="M178.43 97.9263C180.834 97.9263 182.782 95.9779 182.782 93.5745C182.782 91.171 180.834 89.2226 178.43 89.2226C176.027 89.2226 174.079 91.171 174.079 93.5745C174.079 95.9779 176.027 97.9263 178.43 97.9263Z" fill="#E6E6E6"/>
<path d="M200.46 97.9263C202.863 97.9263 204.811 95.9779 204.811 93.5745C204.811 91.171 202.863 89.2226 200.46 89.2226C198.056 89.2226 196.108 91.171 196.108 93.5745C196.108 95.9779 198.056 97.9263 200.46 97.9263Z" fill="#E6E6E6"/>
<path d="M222.489 97.9263C224.892 97.9263 226.84 95.9779 226.84 93.5745C226.84 91.171 224.892 89.2226 222.489 89.2226C220.085 89.2226 218.137 91.171 218.137 93.5745C218.137 95.9779 220.085 97.9263 222.489 97.9263Z" fill="#E6E6E6"/>
<path d="M24.2273 120.232C26.6308 120.232 28.5792 118.283 28.5792 115.88C28.5792 113.476 26.6308 111.528 24.2273 111.528C21.8239 111.528 19.8755 113.476 19.8755 115.88C19.8755 118.283 21.8239 120.232 24.2273 120.232Z" fill="#E6E6E6"/>
<path d="M46.2564 120.232C48.6599 120.232 50.6083 118.283 50.6083 115.88C50.6083 113.476 48.6599 111.528 46.2564 111.528C43.8529 111.528 41.9045 113.476 41.9045 115.88C41.9045 118.283 43.8529 120.232 46.2564 120.232Z" fill="#E6E6E6"/>
<path d="M68.2853 120.232C70.6888 120.232 72.6372 118.283 72.6372 115.88C72.6372 113.476 70.6888 111.528 68.2853 111.528C65.8819 111.528 63.9335 113.476 63.9335 115.88C63.9335 118.283 65.8819 120.232 68.2853 120.232Z" fill="#E6E6E6"/>
<path d="M90.3144 120.232C92.7178 120.232 94.6662 118.283 94.6662 115.88C94.6662 113.476 92.7178 111.528 90.3144 111.528C87.9109 111.528 85.9625 113.476 85.9625 115.88C85.9625 118.283 87.9109 120.232 90.3144 120.232Z" fill="#E6E6E6"/>
<path d="M112.343 120.232C114.747 120.232 116.695 118.283 116.695 115.88C116.695 113.476 114.747 111.528 112.343 111.528C109.94 111.528 107.992 113.476 107.992 115.88C107.992 118.283 109.94 120.232 112.343 120.232Z" fill="#E6E6E6"/>
<path d="M134.372 120.232C136.776 120.232 138.724 118.283 138.724 115.88C138.724 113.476 136.776 111.528 134.372 111.528C131.969 111.528 130.021 113.476 130.021 115.88C130.021 118.283 131.969 120.232 134.372 120.232Z" fill="#E6E6E6"/>
<path d="M156.402 120.232C158.805 120.232 160.753 118.283 160.753 115.88C160.753 113.476 158.805 111.528 156.402 111.528C153.998 111.528 152.05 113.476 152.05 115.88C152.05 118.283 153.998 120.232 156.402 120.232Z" fill="#E6E6E6"/>
<path d="M178.43 120.232C180.834 120.232 182.782 118.283 182.782 115.88C182.782 113.476 180.834 111.528 178.43 111.528C176.027 111.528 174.079 113.476 174.079 115.88C174.079 118.283 176.027 120.232 178.43 120.232Z" fill="#E6E6E6"/>
<path d="M200.46 120.232C202.863 120.232 204.811 118.283 204.811 115.88C204.811 113.476 202.863 111.528 200.46 111.528C198.056 111.528 196.108 113.476 196.108 115.88C196.108 118.283 198.056 120.232 200.46 120.232Z" fill="#E6E6E6"/>
<path d="M222.489 120.232C224.892 120.232 226.84 118.283 226.84 115.88C226.84 113.476 224.892 111.528 222.489 111.528C220.085 111.528 218.137 113.476 218.137 115.88C218.137 118.283 220.085 120.232 222.489 120.232Z" fill="#E6E6E6"/>
<path d="M24.2273 142.537C26.6308 142.537 28.5792 140.589 28.5792 138.185C28.5792 135.782 26.6308 133.834 24.2273 133.834C21.8239 133.834 19.8755 135.782 19.8755 138.185C19.8755 140.589 21.8239 142.537 24.2273 142.537Z" fill="#E6E6E6"/>
<path d="M46.2564 142.537C48.6599 142.537 50.6083 140.589 50.6083 138.185C50.6083 135.782 48.6599 133.834 46.2564 133.834C43.8529 133.834 41.9045 135.782 41.9045 138.185C41.9045 140.589 43.8529 142.537 46.2564 142.537Z" fill="#E6E6E6"/>
<path d="M68.2853 142.537C70.6888 142.537 72.6372 140.589 72.6372 138.185C72.6372 135.782 70.6888 133.834 68.2853 133.834C65.8819 133.834 63.9335 135.782 63.9335 138.185C63.9335 140.589 65.8819 142.537 68.2853 142.537Z" fill="#F9A826"/>
<path d="M90.3144 142.537C92.7178 142.537 94.6662 140.589 94.6662 138.185C94.6662 135.782 92.7178 133.834 90.3144 133.834C87.9109 133.834 85.9625 135.782 85.9625 138.185C85.9625 140.589 87.9109 142.537 90.3144 142.537Z" fill="#E6E6E6"/>
<path d="M112.343 142.537C114.747 142.537 116.695 140.589 116.695 138.185C116.695 135.782 114.747 133.834 112.343 133.834C109.94 133.834 107.992 135.782 107.992 138.185C107.992 140.589 109.94 142.537 112.343 142.537Z" fill="#E6E6E6"/>
<path d="M134.372 142.537C136.776 142.537 138.724 140.589 138.724 138.185C138.724 135.782 136.776 133.834 134.372 133.834C131.969 133.834 130.021 135.782 130.021 138.185C130.021 140.589 131.969 142.537 134.372 142.537Z" fill="#E6E6E6"/>
<path d="M156.402 142.537C158.805 142.537 160.753 140.589 160.753 138.185C160.753 135.782 158.805 133.834 156.402 133.834C153.998 133.834 152.05 135.782 152.05 138.185C152.05 140.589 153.998 142.537 156.402 142.537Z" fill="#E6E6E6"/>
<path d="M178.43 142.537C180.834 142.537 182.782 140.589 182.782 138.185C182.782 135.782 180.834 133.834 178.43 133.834C176.027 133.834 174.079 135.782 174.079 138.185C174.079 140.589 176.027 142.537 178.43 142.537Z" fill="#E6E6E6"/>
<path d="M200.46 142.537C202.863 142.537 204.811 140.589 204.811 138.185C204.811 135.782 202.863 133.834 200.46 133.834C198.056 133.834 196.108 135.782 196.108 138.185C196.108 140.589 198.056 142.537 200.46 142.537Z" fill="#E6E6E6"/>
<path d="M222.489 142.537C224.892 142.537 226.84 140.589 226.84 138.185C226.84 135.782 224.892 133.834 222.489 133.834C220.085 133.834 218.137 135.782 218.137 138.185C218.137 140.589 220.085 142.537 222.489 142.537Z" fill="#E6E6E6"/>
<path d="M24.2273 164.843C26.6308 164.843 28.5792 162.894 28.5792 160.491C28.5792 158.088 26.6308 156.139 24.2273 156.139C21.8239 156.139 19.8755 158.088 19.8755 160.491C19.8755 162.894 21.8239 164.843 24.2273 164.843Z" fill="#E6E6E6"/>
<path d="M46.2564 164.843C48.6599 164.843 50.6083 162.894 50.6083 160.491C50.6083 158.088 48.6599 156.139 46.2564 156.139C43.8529 156.139 41.9045 158.088 41.9045 160.491C41.9045 162.894 43.8529 164.843 46.2564 164.843Z" fill="#E6E6E6"/>
<path d="M68.2853 164.843C70.6888 164.843 72.6372 162.894 72.6372 160.491C72.6372 158.088 70.6888 156.139 68.2853 156.139C65.8819 156.139 63.9335 158.088 63.9335 160.491C63.9335 162.894 65.8819 164.843 68.2853 164.843Z" fill="#E6E6E6"/>
<path d="M90.3144 164.843C92.7178 164.843 94.6662 162.894 94.6662 160.491C94.6662 158.088 92.7178 156.139 90.3144 156.139C87.9109 156.139 85.9625 158.088 85.9625 160.491C85.9625 162.894 87.9109 164.843 90.3144 164.843Z" fill="#E6E6E6"/>
<path d="M112.343 164.843C114.747 164.843 116.695 162.894 116.695 160.491C116.695 158.088 114.747 156.139 112.343 156.139C109.94 156.139 107.992 158.088 107.992 160.491C107.992 162.894 109.94 164.843 112.343 164.843Z" fill="#E6E6E6"/>
<path d="M134.372 164.843C136.776 164.843 138.724 162.894 138.724 160.491C138.724 158.088 136.776 156.139 134.372 156.139C131.969 156.139 130.021 158.088 130.021 160.491C130.021 162.894 131.969 164.843 134.372 164.843Z" fill="#E6E6E6"/>
<path d="M156.402 164.843C158.805 164.843 160.753 162.894 160.753 160.491C160.753 158.088 158.805 156.139 156.402 156.139C153.998 156.139 152.05 158.088 152.05 160.491C152.05 162.894 153.998 164.843 156.402 164.843Z" fill="#E6E6E6"/>
<path d="M178.43 164.843C180.834 164.843 182.782 162.894 182.782 160.491C182.782 158.088 180.834 156.139 178.43 156.139C176.027 156.139 174.079 158.088 174.079 160.491C174.079 162.894 176.027 164.843 178.43 164.843Z" fill="#E6E6E6"/>
<path d="M200.46 164.843C202.863 164.843 204.811 162.894 204.811 160.491C204.811 158.088 202.863 156.139 200.46 156.139C198.056 156.139 196.108 158.088 196.108 160.491C196.108 162.894 198.056 164.843 200.46 164.843Z" fill="#E6E6E6"/>
<path d="M222.489 164.843C224.892 164.843 226.84 162.894 226.84 160.491C226.84 158.088 224.892 156.139 222.489 156.139C220.085 156.139 218.137 158.088 218.137 160.491C218.137 162.894 220.085 164.843 222.489 164.843Z" fill="#E6E6E6"/>
<path d="M24.2273 187.148C26.6308 187.148 28.5792 185.2 28.5792 182.797C28.5792 180.393 26.6308 178.445 24.2273 178.445C21.8239 178.445 19.8755 180.393 19.8755 182.797C19.8755 185.2 21.8239 187.148 24.2273 187.148Z" fill="#E6E6E6"/>
<path d="M46.2564 187.148C48.6599 187.148 50.6083 185.2 50.6083 182.797C50.6083 180.393 48.6599 178.445 46.2564 178.445C43.8529 178.445 41.9045 180.393 41.9045 182.797C41.9045 185.2 43.8529 187.148 46.2564 187.148Z" fill="#E6E6E6"/>
<path d="M68.2853 187.148C70.6888 187.148 72.6372 185.2 72.6372 182.797C72.6372 180.393 70.6888 178.445 68.2853 178.445C65.8819 178.445 63.9335 180.393 63.9335 182.797C63.9335 185.2 65.8819 187.148 68.2853 187.148Z" fill="#E6E6E6"/>
<path d="M90.3144 187.148C92.7178 187.148 94.6662 185.2 94.6662 182.797C94.6662 180.393 92.7178 178.445 90.3144 178.445C87.9109 178.445 85.9625 180.393 85.9625 182.797C85.9625 185.2 87.9109 187.148 90.3144 187.148Z" fill="#E6E6E6"/>
<path d="M112.343 187.148C114.747 187.148 116.695 185.2 116.695 182.797C116.695 180.393 114.747 178.445 112.343 178.445C109.94 178.445 107.992 180.393 107.992 182.797C107.992 185.2 109.94 187.148 112.343 187.148Z" fill="#E6E6E6"/>
<path d="M134.372 187.148C136.776 187.148 138.724 185.2 138.724 182.797C138.724 180.393 136.776 178.445 134.372 178.445C131.969 178.445 130.021 180.393 130.021 182.797C130.021 185.2 131.969 187.148 134.372 187.148Z" fill="#E6E6E6"/>
<path d="M156.402 187.148C158.805 187.148 160.753 185.2 160.753 182.797C160.753 180.393 158.805 178.445 156.402 178.445C153.998 178.445 152.05 180.393 152.05 182.797C152.05 185.2 153.998 187.148 156.402 187.148Z" fill="#E6E6E6"/>
<path d="M178.43 187.148C180.834 187.148 182.782 185.2 182.782 182.797C182.782 180.393 180.834 178.445 178.43 178.445C176.027 178.445 174.079 180.393 174.079 182.797C174.079 185.2 176.027 187.148 178.43 187.148Z" fill="#E6E6E6"/>
<path d="M200.46 187.148C202.863 187.148 204.811 185.2 204.811 182.797C204.811 180.393 202.863 178.445 200.46 178.445C198.056 178.445 196.108 180.393 196.108 182.797C196.108 185.2 198.056 187.148 200.46 187.148Z" fill="#E6E6E6"/>
<path d="M222.489 187.148C224.892 187.148 226.84 185.2 226.84 182.797C226.84 180.393 224.892 178.445 222.489 178.445C220.085 178.445 218.137 180.393 218.137 182.797C218.137 185.2 220.085 187.148 222.489 187.148Z" fill="#E6E6E6"/>
<path d="M24.2273 209.454C26.6308 209.454 28.5792 207.506 28.5792 205.102C28.5792 202.699 26.6308 200.75 24.2273 200.75C21.8239 200.75 19.8755 202.699 19.8755 205.102C19.8755 207.506 21.8239 209.454 24.2273 209.454Z" fill="#E6E6E6"/>
<path d="M46.2564 209.454C48.6599 209.454 50.6083 207.506 50.6083 205.102C50.6083 202.699 48.6599 200.75 46.2564 200.75C43.8529 200.75 41.9045 202.699 41.9045 205.102C41.9045 207.506 43.8529 209.454 46.2564 209.454Z" fill="#E6E6E6"/>
<path d="M68.2853 209.454C70.6888 209.454 72.6372 207.506 72.6372 205.102C72.6372 202.699 70.6888 200.75 68.2853 200.75C65.8819 200.75 63.9335 202.699 63.9335 205.102C63.9335 207.506 65.8819 209.454 68.2853 209.454Z" fill="#E6E6E6"/>
<path d="M90.3144 209.454C92.7178 209.454 94.6662 207.506 94.6662 205.102C94.6662 202.699 92.7178 200.75 90.3144 200.75C87.9109 200.75 85.9625 202.699 85.9625 205.102C85.9625 207.506 87.9109 209.454 90.3144 209.454Z" fill="#E6E6E6"/>
<path d="M112.343 209.454C114.747 209.454 116.695 207.506 116.695 205.102C116.695 202.699 114.747 200.75 112.343 200.75C109.94 200.75 107.992 202.699 107.992 205.102C107.992 207.506 109.94 209.454 112.343 209.454Z" fill="#E6E6E6"/>
<path d="M134.372 209.454C136.776 209.454 138.724 207.506 138.724 205.102C138.724 202.699 136.776 200.75 134.372 200.75C131.969 200.75 130.021 202.699 130.021 205.102C130.021 207.506 131.969 209.454 134.372 209.454Z" fill="#E6E6E6"/>
<path d="M156.402 209.454C158.805 209.454 160.753 207.506 160.753 205.102C160.753 202.699 158.805 200.75 156.402 200.75C153.998 200.75 152.05 202.699 152.05 205.102C152.05 207.506 153.998 209.454 156.402 209.454Z" fill="#E6E6E6"/>
<path d="M178.43 209.454C180.834 209.454 182.782 207.506 182.782 205.102C182.782 202.699 180.834 200.75 178.43 200.75C176.027 200.75 174.079 202.699 174.079 205.102C174.079 207.506 176.027 209.454 178.43 209.454Z" fill="#E6E6E6"/>
<path d="M200.46 209.454C202.863 209.454 204.811 207.506 204.811 205.102C204.811 202.699 202.863 200.75 200.46 200.75C198.056 200.75 196.108 202.699 196.108 205.102C196.108 207.506 198.056 209.454 200.46 209.454Z" fill="#E6E6E6"/>
<path d="M222.489 209.454C224.892 209.454 226.84 207.506 226.84 205.102C226.84 202.699 224.892 200.75 222.489 200.75C220.085 200.75 218.137 202.699 218.137 205.102C218.137 207.506 220.085 209.454 222.489 209.454Z" fill="#E6E6E6"/>
<path d="M180.895 172.696L232.544 82.1911H129.19L77.486 171.746L129.19 261.301H232.599L284.207 171.913L180.895 172.696Z" fill="#3F3D56"/>
<path d="M297.035 164.312L297.131 164.144L245.427 74.5894H245.372L193.722 165.094L297.035 164.312Z" fill="#F9A826"/>
<path d="M371.835 78.2644C370.993 77.2801 370.572 75.839 370.572 73.9412C370.572 72.0613 370.993 70.629 371.835 69.6443C372.269 69.1503 372.809 68.7609 373.415 68.5052C374.021 68.2495 374.677 68.1341 375.334 68.1678C375.996 68.1332 376.659 68.2479 377.271 68.5035C377.884 68.759 378.431 69.1489 378.873 69.6443C379.724 70.6288 380.149 72.0611 380.149 73.9412C380.149 75.8393 379.724 77.2803 378.873 78.2644C378.431 78.7598 377.884 79.1498 377.271 79.4054C376.659 79.661 375.996 79.7757 375.334 79.7411C374.677 79.7748 374.021 79.6594 373.415 79.4037C372.809 79.1479 372.269 78.7584 371.835 78.2644ZM376.851 76.7347C377.23 75.8549 377.395 74.8972 377.33 73.9412C377.392 72.9968 377.223 72.0515 376.837 71.1874C376.694 70.9155 376.477 70.6898 376.211 70.5367C375.945 70.3836 375.64 70.3094 375.334 70.3228C375.032 70.3111 374.734 70.3864 374.475 70.5397C374.215 70.693 374.006 70.9179 373.871 71.1874C373.495 72.0543 373.33 72.9982 373.391 73.9412C373.329 74.8928 373.493 75.8456 373.871 76.7212C374.006 76.9908 374.215 77.2158 374.475 77.3692C374.734 77.5226 375.032 77.5979 375.334 77.5861C375.641 77.6037 375.948 77.5329 376.217 77.382C376.485 77.2312 376.705 77.0066 376.851 76.7347V76.7347ZM375.148 87.3767L386.109 68.4338H389.062L378.074 87.3767H375.148ZM385.324 86.0864C384.481 85.1019 384.06 83.6519 384.061 81.7364C384.061 79.8567 384.482 78.4288 385.324 77.4529C385.787 76.9891 386.336 76.6212 386.941 76.3701C387.546 76.119 388.195 75.9898 388.85 75.9898C389.504 75.9898 390.153 76.119 390.758 76.3701C391.363 76.6212 391.912 76.9891 392.375 77.4529C393.217 78.4286 393.638 79.8653 393.638 81.7631C393.638 83.6611 393.217 85.1022 392.375 86.0864C391.914 86.5541 391.366 86.9255 390.76 87.1789C390.155 87.4324 389.506 87.563 388.85 87.563C388.193 87.563 387.544 87.4324 386.939 87.1789C386.333 86.9255 385.785 86.5541 385.324 86.0864ZM390.339 84.5433C390.716 83.6676 390.881 82.7147 390.818 81.7631C390.881 80.8188 390.712 79.8736 390.326 79.0095C390.177 78.747 389.962 78.5286 389.701 78.3767C389.44 78.2247 389.144 78.1447 388.843 78.1447C388.541 78.1447 388.245 78.2247 387.984 78.3767C387.723 78.5286 387.508 78.747 387.359 79.0095C386.984 79.8763 386.819 80.8202 386.881 81.7631C386.818 82.7146 386.982 83.6675 387.359 84.5433C387.509 84.806 387.726 85.0243 387.988 85.1761C388.249 85.3279 388.547 85.4079 388.849 85.4079C389.152 85.4079 389.449 85.3279 389.71 85.1761C389.972 85.0243 390.189 84.806 390.339 84.5433V84.5433Z" fill="#3F3D56"/>
<path d="M1.26382 241.668C0.421272 240.684 0 239.243 0 237.345C0 235.465 0.421272 234.033 1.26382 233.048C1.69782 232.554 2.23793 232.165 2.84374 231.909C3.44955 231.653 4.10535 231.538 4.76205 231.572C5.42486 231.537 6.08699 231.652 6.69953 231.907C7.31208 232.163 7.8594 232.553 8.30111 233.048C9.15201 234.033 9.57761 235.465 9.57793 237.345C9.57793 239.243 9.15232 240.684 8.30111 241.668C7.85945 242.164 7.31214 242.554 6.69959 242.809C6.08703 243.065 5.42489 243.18 4.76205 243.145C4.10532 243.179 3.4495 243.063 2.84369 242.808C2.23787 242.552 1.69777 242.162 1.26382 241.668V241.668ZM6.27919 240.139C6.65889 239.259 6.82304 238.301 6.758 237.345C6.82051 236.401 6.65137 235.455 6.26528 234.591C6.12259 234.319 5.90547 234.094 5.63928 233.941C5.3731 233.788 5.06884 233.713 4.76206 233.727C4.46091 233.715 4.16276 233.79 3.90332 233.944C3.64387 234.097 3.43412 234.322 3.2992 234.591C2.92301 235.458 2.75872 236.402 2.81993 237.345C2.75732 238.297 2.92157 239.25 3.2992 240.125C3.43399 240.395 3.6437 240.62 3.90317 240.773C4.16264 240.927 4.46087 241.002 4.76206 240.99C5.06981 241.008 5.37619 240.937 5.64501 240.786C5.91384 240.635 6.13389 240.411 6.27919 240.139V240.139ZM4.57648 250.781L15.5374 231.838H18.4905L7.50264 250.781H4.57648ZM14.7529 249.49C13.9099 248.506 13.4886 247.056 13.4891 245.14C13.4891 243.261 13.9103 241.833 14.7529 240.857C15.2153 240.393 15.7648 240.025 16.3697 239.774C16.9746 239.523 17.6231 239.394 18.278 239.394C18.933 239.394 19.5815 239.523 20.1864 239.774C20.7913 240.025 21.3407 240.393 21.8032 240.857C22.6453 241.833 23.0665 243.269 23.067 245.167C23.067 247.065 22.6457 248.506 21.8032 249.49C21.3429 249.958 20.7942 250.329 20.189 250.583C19.5838 250.836 18.9342 250.967 18.278 250.967C17.6219 250.967 16.9723 250.836 16.3671 250.583C15.7619 250.329 15.2132 249.958 14.7529 249.49V249.49ZM19.7673 247.947C20.1449 247.071 20.3092 246.119 20.2466 245.167C20.309 244.223 20.14 243.278 19.7543 242.413C19.6058 242.151 19.3902 241.933 19.1296 241.781C18.869 241.629 18.5727 241.549 18.2711 241.549C17.9694 241.549 17.6732 241.629 17.4126 241.781C17.152 241.933 16.9364 242.151 16.7878 242.413C16.412 243.28 16.2479 244.224 16.309 245.167C16.2465 246.119 16.4106 247.071 16.7878 247.947C16.9379 248.21 17.1547 248.428 17.4163 248.58C17.678 248.732 17.9751 248.812 18.2776 248.812C18.5801 248.812 18.8772 248.732 19.1388 248.58C19.4004 248.428 19.6173 248.21 19.7673 247.947V247.947Z" fill="#3F3D56"/>
<path d="M248.034 132.612L247.365 132.434L261.963 77.5193H346.637V78.2115H262.495L248.034 132.612Z" fill="#2F2E41"/>
<path d="M353.555 85.13C352.119 85.13 350.714 84.7039 349.519 83.9057C348.325 83.1074 347.394 81.9728 346.844 80.6454C346.294 79.318 346.15 77.8573 346.43 76.4481C346.711 75.0389 347.403 73.7445 348.419 72.7285C349.435 71.7126 350.729 71.0207 352.138 70.7404C353.547 70.4601 355.008 70.6039 356.335 71.1538C357.663 71.7036 358.797 72.6347 359.596 73.8294C360.394 75.024 360.82 76.4286 360.82 77.8654C360.818 79.7914 360.052 81.6379 358.69 82.9998C357.328 84.3617 355.481 85.1278 353.555 85.13V85.13ZM353.555 71.2927C352.255 71.2927 350.985 71.6781 349.904 72.4004C348.823 73.1226 347.98 74.1491 347.483 75.3501C346.986 76.5511 346.855 77.8727 347.109 79.1476C347.363 80.4226 347.989 81.5938 348.908 82.513C349.827 83.4322 350.998 84.0582 352.273 84.3118C353.548 84.5654 354.87 84.4352 356.071 83.9378C357.272 83.4403 358.298 82.5979 359.02 81.517C359.743 80.4361 360.128 79.1653 360.128 77.8654C360.126 76.1228 359.433 74.4521 358.201 73.22C356.969 71.9878 355.298 71.2946 353.555 71.2927V71.2927Z" fill="#2F2E41"/>
<path d="M353.555 80.6328C355.084 80.6328 356.323 79.3938 356.323 77.8654C356.323 76.3369 355.084 75.0979 353.555 75.0979C352.027 75.0979 350.788 76.3369 350.788 77.8654C350.788 79.3938 352.027 80.6328 353.555 80.6328Z" fill="#F9A826"/>
<path d="M141.134 186.523L141.803 186.701L127.205 241.615H42.5316V240.924H126.673L141.134 186.523Z" fill="#2F2E41"/>
<path d="M35.613 234.005C37.0498 234.005 38.4543 234.431 39.649 235.229C40.8436 236.027 41.7747 237.162 42.3246 238.489C42.8744 239.817 43.0183 241.277 42.738 242.687C42.4577 244.096 41.7658 245.39 40.7498 246.406C39.7338 247.422 38.4394 248.114 37.0302 248.394C35.621 248.675 34.1604 248.531 32.8329 247.981C31.5055 247.431 30.3709 246.5 29.5727 245.305C28.7744 244.111 28.3484 242.706 28.3484 241.269C28.3506 239.343 29.1166 237.497 30.4785 236.135C31.8404 234.773 33.687 234.007 35.613 234.005V234.005ZM35.613 247.842C36.9129 247.842 38.1837 247.457 39.2646 246.734C40.3455 246.012 41.1879 244.986 41.6854 243.785C42.1829 242.584 42.313 241.262 42.0594 239.987C41.8058 238.712 41.1798 237.541 40.2606 236.622C39.3414 235.703 38.1702 235.077 36.8953 234.823C35.6203 234.569 34.2987 234.699 33.0977 235.197C31.8967 235.694 30.8702 236.537 30.148 237.618C29.4257 238.699 29.0403 239.969 29.0403 241.269C29.0422 243.012 29.7353 244.683 30.9675 245.915C32.1997 247.147 33.8704 247.84 35.613 247.842V247.842Z" fill="#2F2E41"/>
<path d="M35.6129 244.037C37.1413 244.037 38.3804 242.798 38.3804 241.269C38.3804 239.741 37.1413 238.502 35.6129 238.502C34.0845 238.502 32.8455 239.741 32.8455 241.269C32.8455 242.798 34.0845 244.037 35.6129 244.037Z" fill="#F9A826"/>
<path d="M416.563 350.796H406.058V365.082H416.563V350.796Z" fill="#A0616A"/>
<path d="M469.925 350.796H459.421V365.082H469.925V350.796Z" fill="#A0616A"/>
<path d="M477.213 232.307C476.312 232.307 475.423 232.112 474.605 231.735C473.787 231.358 473.061 230.809 472.476 230.125C471.891 229.441 471.461 228.638 471.215 227.772C470.97 226.906 470.915 225.997 471.055 225.107L472.775 214.139L473.287 210.878H481.27L481.69 215.5L483.353 224.999C483.509 225.895 483.468 226.814 483.232 227.692C482.996 228.571 482.57 229.387 481.985 230.083C481.4 230.779 480.67 231.339 479.845 231.723C479.021 232.108 478.122 232.307 477.213 232.307Z" fill="#A0616A"/>
<path d="M399.06 231.046C398.159 231.046 397.27 230.851 396.452 230.474C395.634 230.098 394.908 229.549 394.323 228.864C393.738 228.18 393.308 227.378 393.062 226.511C392.817 225.645 392.762 224.736 392.902 223.847L394.622 212.879L395.134 209.617H403.117L403.537 214.239L405.2 223.738C405.357 224.634 405.315 225.554 405.079 226.432C404.843 227.31 404.417 228.126 403.832 228.822C403.247 229.519 402.517 230.079 401.692 230.463C400.868 230.847 399.969 231.046 399.06 231.046V231.046Z" fill="#A0616A"/>
<path d="M471.186 353.738L458.581 353.317L437.992 228.945L417.403 353.738L405.218 353.317L401.857 209.617H472.446L471.186 353.738Z" fill="#2F2E41"/>
<path d="M416.3 375.001C405.605 375.31 397.233 372.419 391.744 365.556C391.167 364.833 390.825 363.951 390.764 363.028C390.702 362.105 390.925 361.186 391.401 360.393C391.85 359.645 392.505 359.042 393.288 358.657C394.07 358.273 394.948 358.122 395.814 358.223L399.289 358.629L406.526 355.013C405.046 363.622 409.072 363.784 418.705 360.898L420.44 369.792C420.562 370.413 420.548 371.053 420.399 371.668C420.249 372.283 419.968 372.858 419.574 373.353C419.18 373.849 418.683 374.253 418.118 374.537C417.553 374.822 416.932 374.98 416.3 375.001Z" fill="#2F2E41"/>
<path d="M469.662 375.001C458.967 375.31 450.595 372.419 445.106 365.556C444.529 364.833 444.187 363.951 444.126 363.028C444.065 362.105 444.287 361.186 444.763 360.393V360.393C445.212 359.645 445.867 359.042 446.65 358.657C447.433 358.273 448.31 358.122 449.176 358.223L452.652 358.629L459.834 355.599C458.354 364.208 462.435 363.784 472.067 360.898L473.802 369.792C473.925 370.413 473.911 371.053 473.761 371.668C473.611 372.283 473.33 372.858 472.936 373.353C472.542 373.849 472.046 374.253 471.48 374.537C470.915 374.822 470.295 374.98 469.662 375.001Z" fill="#2F2E41"/>
<path d="M433.79 78.1016C443.072 78.1016 450.597 70.5769 450.597 61.2946C450.597 52.0123 443.072 44.4875 433.79 44.4875C424.508 44.4875 416.983 52.0123 416.983 61.2946C416.983 70.5769 424.508 78.1016 433.79 78.1016Z" fill="#A0616A"/>
<path d="M450.597 91.9677L432.529 92.8079L431.689 73.8999L447.236 68.0176L450.597 91.9677Z" fill="#A0616A"/>
<path d="M476.648 215.499C452.01 210.837 423.939 209.167 405.218 215.499L411.101 91.9675L430.849 86.085L432.32 83.774L448.917 81.0429L456.9 83.564L461.942 91.1272L483.791 103.312C473.036 144.916 469.851 182.716 476.648 215.499Z" fill="#2F2E41"/>
<path d="M488.413 214.659L470.345 212.558C474.111 194.209 472.571 170.343 473.497 146.38C474.084 131.183 477.236 117.352 478.329 100.371C485.181 102.158 488.729 108.521 488.769 116.019C488.963 151.583 492.322 184.907 488.413 214.659Z" fill="#2F2E41"/>
<path d="M409.84 212.978L392.193 211.718L402.697 152.053L406.253 102.402C405.7 95.1614 409.57 90.9541 415.302 90.707C427.824 105.535 429.276 125.971 425.387 149.112L409.84 212.978Z" fill="#2F2E41"/>
<path d="M439.241 73.6519L437.074 67.4818C435.858 64.0198 433.723 60.9537 430.899 58.6113C428.074 56.269 424.666 54.7386 421.039 54.184V54.184L407.455 53.8726L411.227 47.8116C413.045 44.8888 415.646 42.5338 418.735 41.0135C421.824 39.4932 425.276 38.8684 428.702 39.2098L442.278 40.5631C445.509 40.8852 448.483 42.4729 450.548 44.9794C452.614 47.4859 453.604 50.7078 453.302 53.9416L452.057 67.2929C451.924 68.7201 451.428 70.0896 450.617 71.2714C449.806 72.4532 448.706 73.408 447.422 74.0451C446.138 74.6822 444.712 74.9805 443.28 74.9117C441.849 74.8429 440.458 74.4093 439.241 73.6519V73.6519Z" fill="#2F2E41"/>
</g>
<defs>
<clipPath id="clip0">
<rect width="500" height="375.023" fill="white"/>
</clipPath>
</defs>
</svg>
