<svg xmlns="http://www.w3.org/2000/svg" xmlns:xlink="http://www.w3.org/1999/xlink" width="500" height="376" fill="none" xmlns:v="https://vecta.io/nano"><g clip-path="url(#A)"><path d="M499.776 362.457H348.792v-1.234H500l-.224 1.234z" fill="#3f3d56"/><g fill="#e6e6e6"><path d="M24.227 8.704a4.35 4.35 0 0 0 4.352-4.352C28.58 1.948 26.63 0 24.227 0s-4.352 1.948-4.352 4.352a4.35 4.35 0 0 0 4.352 4.352zm22.03 0a4.35 4.35 0 1 0 0-8.704 4.35 4.35 0 1 0 0 8.704zm22.03 0c2.403 0 4.352-1.948 4.352-4.352a4.35 4.35 0 1 0-8.704 0 4.35 4.35 0 0 0 4.352 4.352zm22.03 0c2.403 0 4.352-1.948 4.352-4.352a4.35 4.35 0 1 0-8.704 0 4.35 4.35 0 0 0 4.352 4.352zm22.03 0a4.35 4.35 0 1 0 0-8.704 4.35 4.35 0 1 0 0 8.704zm22.03 0a4.35 4.35 0 1 0 0-8.704 4.35 4.35 0 1 0 0 8.704zm22.03 0a4.35 4.35 0 1 0 0-8.704C154 0 152.05 1.948 152.05 4.352a4.35 4.35 0 0 0 4.352 4.352zm22.028 0a4.35 4.35 0 1 0 0-8.704 4.35 4.35 0 1 0 0 8.704zm22.03 0a4.35 4.35 0 1 0 0-8.704c-2.403 0-4.352 1.948-4.352 4.352a4.35 4.35 0 0 0 4.352 4.352zm22.03 0a4.35 4.35 0 1 0 0-8.704c-2.402 0-4.352 1.948-4.352 4.352a4.35 4.35 0 0 0 4.352 4.352zM24.227 31a4.35 4.35 0 1 0 0-8.704 4.35 4.35 0 0 0-4.352 4.352c0 2.404 1.95 4.352 4.352 4.352zm22.03 0a4.35 4.35 0 1 0 0-8.704 4.35 4.35 0 0 0-4.352 4.352c0 2.404 1.95 4.352 4.352 4.352zm22.03 0c2.403 0 4.352-1.948 4.352-4.352a4.35 4.35 0 1 0-8.704 0c0 2.404 1.95 4.352 4.352 4.352z"/></g><path d="M90.314 31c2.403 0 4.352-1.948 4.352-4.352s-1.948-4.352-4.352-4.352-4.352 1.948-4.352 4.352S87.91 31 90.314 31z" fill="#f9a826"/><g fill="#e6e6e6"><path d="M112.343 31a4.35 4.35 0 1 0 0-8.704 4.35 4.35 0 1 0 0 8.704zm22.03 0a4.35 4.35 0 1 0 0-8.704 4.35 4.35 0 1 0 0 8.704zm22.03 0a4.35 4.35 0 1 0 0-8.704c-2.402 0-4.352 1.948-4.352 4.352A4.35 4.35 0 0 0 156.402 31zm22.028 0a4.35 4.35 0 1 0 0-8.704 4.35 4.35 0 1 0 0 8.704zm22.03 0a4.35 4.35 0 1 0 0-8.704c-2.402 0-4.352 1.948-4.352 4.352A4.35 4.35 0 0 0 200.46 31zm22.03 0a4.35 4.35 0 1 0 0-8.704c-2.402 0-4.352 1.948-4.352 4.352A4.35 4.35 0 0 0 222.49 31z"/><use xlink:href="#B"/><path d="M46.256 53.315c2.404 0 4.352-1.948 4.352-4.352s-1.948-4.352-4.352-4.352-4.352 1.948-4.352 4.352 1.948 4.352 4.352 4.352z"/><use xlink:href="#C"/><path d="M90.314 53.315c2.403 0 4.352-1.948 4.352-4.352s-1.948-4.352-4.352-4.352-4.352 1.948-4.352 4.352 1.948 4.352 4.352 4.352z"/><use xlink:href="#D"/><path d="M134.372 53.315c2.404 0 4.352-1.948 4.352-4.352s-1.948-4.352-4.352-4.352-4.35 1.948-4.35 4.352 1.948 4.352 4.35 4.352z"/><use xlink:href="#E"/><path d="M178.43 53.315a4.35 4.35 0 1 0 0-8.704 4.35 4.35 0 1 0 0 8.704zm22.03 0a4.35 4.35 0 1 0 0-8.704c-2.402 0-4.352 1.948-4.352 4.352a4.35 4.35 0 0 0 4.352 4.352zm22.03 0a4.35 4.35 0 1 0 0-8.704c-2.402 0-4.352 1.948-4.352 4.352a4.35 4.35 0 0 0 4.352 4.352zM24.227 75.62a4.35 4.35 0 1 0 0-8.704 4.35 4.35 0 1 0 0 8.704zm22.03 0a4.35 4.35 0 1 0 0-8.704 4.35 4.35 0 1 0 0 8.704zm22.03 0c2.403 0 4.352-1.948 4.352-4.352a4.35 4.35 0 1 0-8.704 0 4.35 4.35 0 0 0 4.352 4.352zm22.03 0c2.403 0 4.352-1.948 4.352-4.352a4.35 4.35 0 1 0-8.704 0 4.35 4.35 0 0 0 4.352 4.352zm22.03 0a4.35 4.35 0 1 0 0-8.704 4.35 4.35 0 1 0 0 8.704zm22.03 0a4.35 4.35 0 1 0 0-8.704 4.35 4.35 0 1 0 0 8.704zm22.03 0a4.35 4.35 0 1 0 0-8.704c-2.402 0-4.352 1.948-4.352 4.352a4.35 4.35 0 0 0 4.352 4.352zm22.028 0a4.35 4.35 0 1 0 0-8.704 4.35 4.35 0 1 0 0 8.704zm22.03 0a4.35 4.35 0 1 0 0-8.704c-2.402 0-4.352 1.948-4.352 4.352a4.35 4.35 0 0 0 4.352 4.352zm22.03 0a4.35 4.35 0 1 0 0-8.704c-2.402 0-4.352 1.948-4.352 4.352a4.35 4.35 0 0 0 4.352 4.352zM24.227 97.926a4.35 4.35 0 1 0 0-8.704 4.35 4.35 0 1 0 0 8.704z"/></g><path d="M46.256 97.926c2.404 0 4.352-1.948 4.352-4.352s-1.948-4.352-4.352-4.352-4.352 1.948-4.352 4.352 1.948 4.352 4.352 4.352z" fill="#f9a826"/><g fill="#e6e6e6"><path d="M68.285 97.926c2.403 0 4.352-1.948 4.352-4.352a4.35 4.35 0 1 0-8.704 0 4.35 4.35 0 0 0 4.352 4.352zm22.03 0c2.403 0 4.352-1.948 4.352-4.352a4.35 4.35 0 1 0-8.704 0 4.35 4.35 0 0 0 4.352 4.352zm22.03 0a4.35 4.35 0 1 0 0-8.704 4.35 4.35 0 1 0 0 8.704zm22.03 0a4.35 4.35 0 1 0 0-8.704 4.35 4.35 0 1 0 0 8.704zm22.03 0a4.35 4.35 0 1 0 0-8.704c-2.402 0-4.352 1.948-4.352 4.352a4.35 4.35 0 0 0 4.352 4.352zm22.028 0a4.35 4.35 0 1 0 0-8.704 4.35 4.35 0 1 0 0 8.704zm22.03 0a4.35 4.35 0 1 0 0-8.704c-2.402 0-4.352 1.948-4.352 4.352a4.35 4.35 0 0 0 4.352 4.352zm22.03 0a4.35 4.35 0 1 0 0-8.704c-2.402 0-4.352 1.948-4.352 4.352a4.35 4.35 0 0 0 4.352 4.352z"/><use xlink:href="#F"/><path d="M46.256 120.232c2.404 0 4.352-1.95 4.352-4.352s-1.948-4.352-4.352-4.352-4.352 1.948-4.352 4.352 1.948 4.352 4.352 4.352z"/><use xlink:href="#G"/><path d="M90.314 120.232c2.403 0 4.352-1.95 4.352-4.352s-1.948-4.352-4.352-4.352-4.352 1.948-4.352 4.352 1.948 4.352 4.352 4.352z"/><use xlink:href="#H"/><path d="M134.372 120.232c2.404 0 4.352-1.95 4.352-4.352a4.35 4.35 0 1 0-8.703 0c0 2.403 1.948 4.352 4.35 4.352z"/><use xlink:href="#I"/><path d="M178.43 120.232c2.404 0 4.352-1.95 4.352-4.352a4.352 4.352 0 1 0-8.703 0c0 2.403 1.948 4.352 4.35 4.352zm22.03 0c2.403 0 4.35-1.95 4.35-4.352a4.352 4.352 0 1 0-8.703 0c0 2.403 1.948 4.352 4.352 4.352zm22.03 0c2.403 0 4.35-1.95 4.35-4.352a4.352 4.352 0 1 0-8.703 0c0 2.403 1.948 4.352 4.352 4.352z"/><use xlink:href="#J"/><path d="M46.256 142.537c2.404 0 4.352-1.948 4.352-4.352s-1.948-4.35-4.352-4.35-4.352 1.948-4.352 4.35 1.948 4.352 4.352 4.352z"/></g><use xlink:href="#K" fill="#f9a826"/><g fill="#e6e6e6"><path d="M90.314 142.537c2.403 0 4.352-1.948 4.352-4.352s-1.948-4.35-4.352-4.35-4.352 1.948-4.352 4.35 1.948 4.352 4.352 4.352z"/><use xlink:href="#L"/><path d="M134.372 142.537a4.352 4.352 0 1 0 0-8.703 4.352 4.352 0 1 0 0 8.703zm22.03 0a4.352 4.352 0 1 0 0-8.703 4.352 4.352 0 1 0 0 8.703zm22.028 0a4.352 4.352 0 1 0 0-8.703 4.352 4.352 0 1 0 0 8.703zm22.03 0a4.352 4.352 0 1 0 0-8.703 4.352 4.352 0 1 0 0 8.703zm22.03 0a4.352 4.352 0 1 0 0-8.703 4.352 4.352 0 1 0 0 8.703z"/><use xlink:href="#M"/><path d="M46.256 164.843c2.404 0 4.352-1.95 4.352-4.352s-1.948-4.352-4.352-4.352-4.352 1.95-4.352 4.352 1.948 4.352 4.352 4.352z"/><use xlink:href="#N"/><path d="M90.314 164.843c2.403 0 4.352-1.95 4.352-4.352s-1.948-4.352-4.352-4.352-4.352 1.95-4.352 4.352 1.948 4.352 4.352 4.352z"/><use xlink:href="#O"/><path d="M134.372 164.843c2.404 0 4.352-1.95 4.352-4.352s-1.948-4.352-4.352-4.352-4.35 1.95-4.35 4.352 1.948 4.352 4.35 4.352z"/><use xlink:href="#P"/><path d="M178.43 164.843c2.404 0 4.352-1.95 4.352-4.352s-1.948-4.352-4.352-4.352a4.35 4.35 0 0 0-4.35 4.352c0 2.402 1.948 4.352 4.35 4.352zm22.03 0c2.403 0 4.35-1.95 4.35-4.352s-1.948-4.352-4.35-4.352-4.352 1.95-4.352 4.352 1.948 4.352 4.352 4.352zm22.03 0c2.403 0 4.35-1.95 4.35-4.352s-1.948-4.352-4.35-4.352-4.352 1.95-4.352 4.352 1.948 4.352 4.352 4.352z"/><use xlink:href="#Q"/><path d="M46.256 187.148c2.404 0 4.352-1.948 4.352-4.35s-1.948-4.352-4.352-4.352-4.352 1.948-4.352 4.352 1.948 4.35 4.352 4.35z"/><use xlink:href="#R"/><path d="M90.314 187.148c2.403 0 4.352-1.948 4.352-4.35s-1.948-4.352-4.352-4.352a4.35 4.35 0 1 0 0 8.702zm22.03 0a4.352 4.352 0 1 0 0-8.703 4.352 4.352 0 1 0 0 8.703zm22.03 0a4.352 4.352 0 1 0 0-8.703 4.352 4.352 0 1 0 0 8.703zm22.03 0a4.352 4.352 0 1 0 0-8.703 4.352 4.352 0 1 0 0 8.703zm22.028 0a4.352 4.352 0 1 0 0-8.703 4.352 4.352 0 1 0 0 8.703zm22.03 0a4.352 4.352 0 1 0 0-8.703 4.352 4.352 0 1 0 0 8.703zm22.03 0a4.352 4.352 0 1 0 0-8.703 4.352 4.352 0 1 0 0 8.703z"/><use xlink:href="#S"/><path d="M46.256 209.454c2.404 0 4.352-1.948 4.352-4.352s-1.948-4.352-4.352-4.352-4.352 1.95-4.352 4.352 1.948 4.352 4.352 4.352z"/><use xlink:href="#T"/><path d="M90.314 209.454c2.403 0 4.352-1.948 4.352-4.352s-1.948-4.352-4.352-4.352-4.352 1.95-4.352 4.352 1.948 4.352 4.352 4.352z"/><use xlink:href="#U"/><path d="M134.372 209.454a4.35 4.35 0 0 0 4.352-4.352c0-2.403-1.948-4.352-4.352-4.352s-4.35 1.95-4.35 4.352a4.35 4.35 0 0 0 4.351 4.352z"/><use xlink:href="#V"/><path d="M178.43 209.454a4.35 4.35 0 0 0 4.352-4.352c0-2.403-1.948-4.352-4.352-4.352a4.35 4.35 0 0 0 .001 8.704zm22.03 0a4.35 4.35 0 0 0 4.351-4.352c0-2.403-1.948-4.352-4.35-4.352s-4.352 1.95-4.352 4.352a4.35 4.35 0 0 0 4.352 4.352zm22.03 0a4.35 4.35 0 0 0 4.351-4.352c0-2.403-1.948-4.352-4.35-4.352s-4.352 1.95-4.352 4.352a4.35 4.35 0 0 0 4.352 4.352z"/></g><path d="M180.895 172.696l51.65-90.505H129.2l-51.704 89.555L129.2 261.3H232.6l51.608-89.388-103.312.783z" fill="#3f3d56"/><path d="M297.035 164.312l.096-.168-51.704-89.555h-.055l-51.65 90.505 103.313-.782z" fill="#f9a826"/><g fill="#3f3d56"><path d="M371.835 78.264c-.842-.984-1.263-2.425-1.263-4.323 0-1.88.42-3.312 1.263-4.297a4.36 4.36 0 0 1 3.499-1.477 4.43 4.43 0 0 1 3.539 1.477c.85.984 1.276 2.417 1.276 4.297 0 1.898-.425 3.34-1.276 4.323-.442.495-1 .885-1.602 1.14a4.43 4.43 0 0 1-1.937.336 4.36 4.36 0 0 1-3.499-1.477zm5.016-1.53a6.03 6.03 0 0 0 .479-2.794c.062-.944-.107-1.9-.493-2.754a1.62 1.62 0 0 0-1.503-.865 1.57 1.57 0 0 0-.86.217c-.26.153-.47.378-.604.648-.376.867-.54 1.8-.48 2.754-.062.952.102 1.904.48 2.78a1.56 1.56 0 0 0 1.464.865c.307.018.614-.053.883-.204a1.62 1.62 0 0 0 .634-.647h0zm-1.703 10.642l10.96-18.943h2.953l-10.988 18.943h-2.926zm10.176-1.3c-.843-.984-1.264-2.434-1.263-4.35 0-1.88.42-3.308 1.263-4.284a4.98 4.98 0 0 1 5.434-1.083 4.98 4.98 0 0 1 1.617 1.083c.842.976 1.263 2.412 1.263 4.3s-.42 3.34-1.263 4.323c-.46.468-1 .84-1.615 1.093a4.94 4.94 0 0 1-1.91.384c-.657 0-1.306-.13-1.9-.384s-1.154-.625-1.615-1.093zm5.015-1.543c.377-.876.542-1.83.48-2.78.063-.944-.106-1.9-.492-2.754-.15-.263-.364-.48-.625-.633s-.557-.232-.858-.232-.598.08-.86.232-.476.37-.625.633c-.375.867-.54 1.8-.478 2.754a6.01 6.01 0 0 0 .478 2.78c.15.263.367.48.63.633a1.71 1.71 0 0 0 1.721 0c.262-.152.48-.37.63-.633h0zM1.264 241.668C.42 240.684 0 239.243 0 237.345c0-1.88.42-3.312 1.264-4.297.434-.494.974-.883 1.58-1.14a4.35 4.35 0 0 1 1.918-.337 4.43 4.43 0 0 1 1.937.335 4.45 4.45 0 0 1 1.602 1.14c.85.985 1.277 2.417 1.277 4.297 0 1.898-.426 3.34-1.277 4.323a4.42 4.42 0 0 1-1.602 1.141 4.42 4.42 0 0 1-1.938.336 4.36 4.36 0 0 1-3.498-1.477h0zm5.015-1.53a6.02 6.02 0 0 0 .479-2.794 5.81 5.81 0 0 0-.493-2.754 1.62 1.62 0 0 0-.626-.65 1.61 1.61 0 0 0-.877-.214 1.56 1.56 0 0 0-.859.217c-.26.153-.47.378-.604.647a5.95 5.95 0 0 0-.479 2.754 6.02 6.02 0 0 0 .479 2.78 1.56 1.56 0 0 0 1.463.865 1.61 1.61 0 0 0 .883-.204 1.59 1.59 0 0 0 .634-.647h0zM4.576 250.78l10.96-18.943h2.953L7.503 250.78H4.576zm10.176-1.3c-.843-.984-1.264-2.434-1.264-4.35 0-1.88.42-3.307 1.264-4.283a4.97 4.97 0 0 1 1.617-1.083 4.98 4.98 0 0 1 5.434 1.083c.842.976 1.263 2.412 1.264 4.3s-.42 3.34-1.264 4.323a4.95 4.95 0 0 1-1.614 1.093c-.605.253-1.255.384-1.9.384a4.93 4.93 0 0 1-1.91-.384 4.95 4.95 0 0 1-1.614-1.093h0zm5.014-1.543a6.02 6.02 0 0 0 .479-2.78 5.82 5.82 0 0 0-.492-2.754c-.15-.262-.364-.48-.625-.632s-.557-.232-.858-.232a1.7 1.7 0 0 0-.858.232c-.26.152-.476.37-.625.632-.376.867-.54 1.8-.48 2.754a6.03 6.03 0 0 0 .479 2.78c.15.263.367.48.628.633s.56.232.86.232a1.71 1.71 0 0 0 1.488-.865h0z"/></g><g fill="#2f2e41"><path d="M248.034 132.612l-.67-.178 14.598-54.915h84.674v.692h-84.142l-14.46 54.4z"/><path d="M353.555 85.13a7.27 7.27 0 0 1-6.711-4.485c-.55-1.327-.694-2.788-.414-4.197a7.27 7.27 0 0 1 1.989-3.72c1.016-1.016 2.3-1.708 3.72-1.988s2.87-.136 4.197.413 2.462 1.48 3.26 2.676 1.224 2.6 1.224 4.036A7.27 7.27 0 0 1 358.69 83c-1.362 1.362-3.21 2.128-5.135 2.13h0zm0-13.837a6.57 6.57 0 0 0-6.072 4.057c-.497 1.2-.628 2.523-.374 3.797s.88 2.446 1.8 3.365a6.57 6.57 0 0 0 3.365 1.799c1.275.254 2.597.123 3.798-.374a6.57 6.57 0 0 0 2.949-2.421c.723-1.08 1.108-2.352 1.108-3.652a6.58 6.58 0 0 0-6.573-6.573h0z"/></g><path d="M353.555 80.633a2.77 2.77 0 0 0 2.768-2.767 2.77 2.77 0 0 0-2.768-2.767 2.77 2.77 0 0 0-2.767 2.767 2.77 2.77 0 0 0 2.767 2.767z" fill="#f9a826"/><g fill="#2f2e41"><path d="M141.134 186.523l.67.178-14.598 54.914H42.532v-.69h84.14l14.46-54.4z"/><path d="M35.613 234.005c1.437 0 2.84.426 4.036 1.224s2.126 1.933 2.676 3.26.694 2.788.413 4.198-.972 2.703-1.988 3.72a7.26 7.26 0 0 1-3.72 1.988c-1.41.28-2.87.137-4.197-.413s-2.462-1.48-3.26-2.676a7.26 7.26 0 0 1-1.224-4.036 7.27 7.27 0 0 1 7.265-7.264h0zm0 13.837c1.3 0 2.57-.385 3.652-1.108a6.57 6.57 0 0 0 2.421-2.949c.497-1.2.628-2.523.374-3.798a6.57 6.57 0 0 0-1.799-3.365 6.58 6.58 0 0 0-3.365-1.799c-1.275-.254-2.597-.124-3.798.374a6.57 6.57 0 0 0-4.057 6.072 6.58 6.58 0 0 0 6.573 6.573h0z"/></g><path d="M35.613 244.037a2.77 2.77 0 0 0 2.767-2.768 2.77 2.77 0 0 0-2.767-2.767 2.77 2.77 0 0 0-2.767 2.767 2.77 2.77 0 0 0 2.767 2.768z" fill="#f9a826"/><g fill="#a0616a"><path d="M416.563 350.796h-10.505v14.286h10.505v-14.286zm53.362 0H459.42v14.286h10.504v-14.286zm7.288-118.49a6.23 6.23 0 0 1-2.608-.572 6.35 6.35 0 0 1-2.13-1.6c-.586-.674-1.015-1.487-1.26-2.353a6.23 6.23 0 0 1-.16-2.665l2.232-14.23h7.983l.42 4.622 1.663 9.5a6.26 6.26 0 0 1-.12 2.693c-.235.878-.662 1.695-1.247 2.4a6.23 6.23 0 0 1-2.14 1.64 6.22 6.22 0 0 1-2.632.584zm-78.153-1.26a6.23 6.23 0 0 1-2.608-.572 6.21 6.21 0 0 1-2.129-1.61 6.24 6.24 0 0 1-1.261-2.353 6.23 6.23 0 0 1-.16-2.664l2.232-14.23h7.983l.42 4.622 1.663 9.5a6.25 6.25 0 0 1-.12 2.694 6.23 6.23 0 0 1-1.247 2.39 6.22 6.22 0 0 1-2.14 1.641c-.824.384-1.723.583-2.632.583h0z"/></g><g fill="#2f2e41"><path d="M471.186 353.738l-12.605-.42-20.6-124.372-20.6 124.793-12.185-.42-3.36-143.7h70.6l-1.26 144.12zM416.3 375c-10.695.3-19.067-2.582-24.556-9.445a4.53 4.53 0 0 1-.343-5.163 4.55 4.55 0 0 1 1.887-1.736 4.54 4.54 0 0 1 2.526-.434l3.475.406 7.237-3.616c-1.48 8.6 2.546 8.77 12.18 5.885l1.735 8.894a4.38 4.38 0 0 1-.041 1.876c-.15.615-.43 1.2-.825 1.685a4.36 4.36 0 0 1-3.274 1.648zm53.362 0c-10.695.3-19.067-2.582-24.556-9.445a4.53 4.53 0 0 1-.98-2.528c-.06-.923.16-1.842.637-2.635h0a4.55 4.55 0 0 1 1.887-1.736 4.54 4.54 0 0 1 2.526-.434l3.476.406 7.182-3.03c-1.48 8.6 2.6 8.185 12.233 5.3l1.735 8.894a4.35 4.35 0 0 1-.041 1.876c-.15.615-.43 1.2-.825 1.685a4.35 4.35 0 0 1-1.456 1.184c-.565.285-1.185.443-1.818.464z"/></g><g fill="#a0616a"><path d="M433.8 78.102a16.81 16.81 0 0 0 16.807-16.807 16.81 16.81 0 0 0-16.807-16.807 16.81 16.81 0 0 0-16.807 16.807 16.81 16.81 0 0 0 16.807 16.807z"/><path d="M450.597 91.968l-18.068.84-.84-18.908 15.547-5.882 3.36 23.95z"/></g><g fill="#2f2e41"><path d="M476.648 215.5c-24.638-4.662-52.71-6.332-71.43 0l5.883-123.53 19.748-5.883 1.47-2.31 16.597-2.73 7.983 2.52 5.042 7.563 21.85 12.185c-10.755 41.604-13.94 79.404-7.143 112.187z"/><path d="M488.413 214.66l-18.068-2.1c3.766-18.35 2.226-42.215 3.152-66.178.587-15.197 3.74-29.028 4.832-46 6.852 1.787 10.4 8.15 10.44 15.648.194 35.564 3.553 68.888-.356 98.64zm-78.573-1.682l-17.647-1.26 10.504-59.665 3.556-49.65c-.553-7.24 3.317-11.448 9.05-11.695 12.522 14.828 13.974 35.264 10.085 58.405L409.84 212.98zm29.4-139.326l-2.167-6.17a20.24 20.24 0 0 0-16.035-13.298h0l-13.584-.3 3.772-6.06a18.42 18.42 0 0 1 7.508-6.798 18.43 18.43 0 0 1 9.967-1.804l13.576 1.353a12.26 12.26 0 0 1 8.27 4.416 12.31 12.31 0 0 1 2.754 8.962l-1.245 13.35a8.41 8.41 0 0 1-1.44 3.978 8.39 8.39 0 0 1-3.195 2.774 8.41 8.41 0 0 1-8.181-.393h0z"/></g></g><defs><clipPath id="A"><path fill="#fff" d="M0 0h500v375.023H0z"/></clipPath><path id="B" d="M24.227 53.315c2.404 0 4.352-1.948 4.352-4.352s-1.948-4.352-4.352-4.352-4.352 1.948-4.352 4.352 1.948 4.352 4.352 4.352z"/><path id="C" d="M68.285 53.315c2.403 0 4.352-1.948 4.352-4.352s-1.948-4.352-4.352-4.352-4.352 1.948-4.352 4.352 1.948 4.352 4.352 4.352z"/><path id="D" d="M112.343 53.315c2.404 0 4.352-1.948 4.352-4.352s-1.948-4.352-4.352-4.352-4.35 1.948-4.35 4.352 1.948 4.352 4.35 4.352z"/><path id="E" d="M156.402 53.315c2.403 0 4.35-1.948 4.35-4.352s-1.948-4.352-4.35-4.352-4.352 1.948-4.352 4.352 1.948 4.352 4.352 4.352z"/><path id="F" d="M24.227 120.232c2.404 0 4.352-1.95 4.352-4.352s-1.948-4.352-4.352-4.352-4.352 1.948-4.352 4.352 1.948 4.352 4.352 4.352z"/><path id="G" d="M68.285 120.232c2.403 0 4.352-1.95 4.352-4.352s-1.948-4.352-4.352-4.352-4.352 1.948-4.352 4.352 1.948 4.352 4.352 4.352z"/><path id="H" d="M112.343 120.232c2.404 0 4.352-1.95 4.352-4.352a4.35 4.35 0 1 0-8.703 0c0 2.403 1.948 4.352 4.35 4.352z"/><path id="I" d="M156.402 120.232c2.403 0 4.35-1.95 4.35-4.352a4.35 4.35 0 1 0-8.703 0c0 2.403 1.948 4.352 4.352 4.352z"/><path id="J" d="M24.227 142.537c2.404 0 4.352-1.948 4.352-4.352s-1.948-4.35-4.352-4.35-4.352 1.948-4.352 4.35 1.948 4.352 4.352 4.352z"/><path id="K" d="M68.285 142.537c2.403 0 4.352-1.948 4.352-4.352s-1.948-4.35-4.352-4.35-4.352 1.948-4.352 4.35 1.948 4.352 4.352 4.352z"/><path id="L" d="M112.343 142.537a4.35 4.35 0 1 0 0-8.703 4.35 4.35 0 1 0 0 8.703z"/><path id="M" d="M24.227 164.843c2.404 0 4.352-1.95 4.352-4.352s-1.948-4.352-4.352-4.352-4.352 1.95-4.352 4.352 1.948 4.352 4.352 4.352z"/><path id="N" d="M68.285 164.843c2.403 0 4.352-1.95 4.352-4.352s-1.948-4.352-4.352-4.352-4.352 1.95-4.352 4.352 1.948 4.352 4.352 4.352z"/><path id="O" d="M112.343 164.843c2.404 0 4.352-1.95 4.352-4.352s-1.948-4.352-4.352-4.352-4.35 1.95-4.35 4.352 1.948 4.352 4.35 4.352z"/><path id="P" d="M156.402 164.843c2.403 0 4.35-1.95 4.35-4.352s-1.948-4.352-4.35-4.352-4.352 1.95-4.352 4.352 1.948 4.352 4.352 4.352z"/><path id="Q" d="M24.227 187.148c2.404 0 4.352-1.948 4.352-4.35s-1.948-4.352-4.352-4.352-4.352 1.948-4.352 4.352 1.948 4.35 4.352 4.35z"/><path id="R" d="M68.285 187.148c2.403 0 4.352-1.948 4.352-4.35s-1.948-4.352-4.352-4.352-4.352 1.948-4.352 4.352 1.948 4.35 4.352 4.35z"/><path id="S" d="M24.227 209.454c2.404 0 4.352-1.948 4.352-4.352s-1.948-4.352-4.352-4.352-4.352 1.95-4.352 4.352 1.948 4.352 4.352 4.352z"/><path id="T" d="M68.285 209.454c2.403 0 4.352-1.948 4.352-4.352s-1.948-4.352-4.352-4.352-4.352 1.95-4.352 4.352 1.948 4.352 4.352 4.352z"/><path id="U" d="M112.343 209.454a4.35 4.35 0 0 0 4.352-4.352c0-2.403-1.948-4.352-4.352-4.352s-4.35 1.95-4.35 4.352a4.35 4.35 0 0 0 4.351 4.352z"/><path id="V" d="M156.402 209.454a4.35 4.35 0 0 0 4.351-4.352c0-2.403-1.948-4.352-4.35-4.352s-4.352 1.95-4.352 4.352a4.35 4.35 0 0 0 4.352 4.352z"/></defs></svg>