<svg xmlns="http://www.w3.org/2000/svg" xmlns:xlink="http://www.w3.org/1999/xlink" width="1164" height="330" fill="none" xmlns:v="https://vecta.io/nano"><circle cx="165.117" cy="165.068" r="158.673" stroke="url(#A)" stroke-width="11.856"/><circle cx="165.123" cy="165.07" r="133.999" stroke="url(#B)" stroke-width="3.952"/><path d="M112.634 236.633H67.31l97.806-143.132 95.42 143.132h-42.94l-52.48-76.337-52.48 76.337z" fill="url(#C)"/><path d="M397.69 190.88v-97.1l61.45 58.166 60.512-58.166v97.1h-28.615v-38.934l-31.897 30.022-33.774-30.022v38.934H397.69z" fill="url(#D)"/><path d="M653.675 94.488H552.352v96.4h101.323v-21.055h-73.36v-16.777h61.517v-21.383h-61.517v-17.107h73.36V94.488z" fill="url(#E)"/><path d="M692.494 190.878V93.502h65.784s14.145.7 21.12 5.63c8.653 6.106 13.747 13.996 13.282 23.643-.806 16.755-17.798 23.112-17.798 23.112l29.088 44.99h-29.088l-34.668-53.093h12.884s13.07 2.246 12.353-12.62c-.56-11.615-12.353-10.6-12.353-10.6H719.8v76.322h-27.306z" fill="url(#F)"/><path d="M861.152 190.878h-30.214l64.744-97.117 64.745 97.117h-30.214l-34.53-49.638-34.53 49.638z" fill="url(#G)"/><path d="M1014.38 190.878h-28.054V95.92h28.054v43.163l47.48-43.163h34.53l-47.48 47.48 47.48 47.48h-34.53l-47.48-47.48v47.48z" fill="url(#H)"/><path d="M1163.3 190.878h-28.05V93.76h28.05v97.117z" fill="url(#I)"/><path d="M700.69 232.442c-.6 0-1.152-.112-1.686-.337a4.89 4.89 0 0 1-1.37-.928 4.37 4.37 0 0 1-.928-1.369c-.224-.534-.337-1.096-.337-1.687v-8.64c0-.6.113-1.145.337-1.665a4.07 4.07 0 0 1 .928-1.369 4.36 4.36 0 0 1 1.37-.928 4.08 4.08 0 0 1 1.686-.358h14.668a3.94 3.94 0 0 1 1.665.358 4.3 4.3 0 0 1 1.391.928 4.07 4.07 0 0 1 .928 1.369c.224.52.337 1.075.337 1.665v3.9h-4.32v-3.9H700.69v8.64h14.668c.6 0 1.145.113 1.665.338.534.225.998.534 1.39.927a4.3 4.3 0 0 1 .928 1.391c.224.52.337 1.075.337 1.665v8.62c0 .6-.113 1.152-.337 1.686a4.36 4.36 0 0 1-.928 1.37c-.393.393-.857.702-1.39.927-.52.225-1.075.338-1.665.338h-15.1a4.3 4.3 0 0 1-1.686-.338c-.52-.225-.976-.534-1.37-.927s-.702-.85-.927-1.37c-.225-.534-.337-1.096-.337-1.686v-3.878h4.32v3.878h15.1v-8.62H700.69zm78.587 8.62c0 .6-.113 1.152-.337 1.686a4.36 4.36 0 0 1-.928 1.37c-.393.393-.857.702-1.39.927-.52.225-1.075.338-1.665.338h-17.26a4.3 4.3 0 0 1-1.686-.338c-.52-.225-.976-.534-1.37-.927s-.702-.85-.927-1.37c-.225-.534-.337-1.096-.337-1.686V219.48c0-.6.112-1.145.337-1.665.225-.533.534-1 .927-1.37.394-.394.85-.703 1.37-.928a4.08 4.08 0 0 1 1.686-.358h17.26a3.94 3.94 0 0 1 1.665.358 4.3 4.3 0 0 1 1.391.928 4.07 4.07 0 0 1 .928 1.369c.224.52.337 1.075.337 1.665v21.582zm-21.582-21.582v21.582h17.26V219.48h-17.26zm59.577-4.32v25.902h15.533v4.32h-19.853V215.16h4.32zm46.615 0h4.32v25.902h17.26V215.16h4.32v25.902c0 .6-.112 1.152-.337 1.686-.225.52-.534.977-.927 1.37s-.857.702-1.39.927c-.52.225-1.075.338-1.665.338h-17.26a4.3 4.3 0 0 1-1.686-.338c-.52-.225-.977-.534-1.37-.927a4.36 4.36 0 0 1-.927-1.37 4.3 4.3 0 0 1-.338-1.686V215.16zm56.985 0h24.174v4.32h-9.927v25.903h-4.32V219.48h-9.927v-4.32zm59.577 0v30.223h-4.32V215.16h4.32zm59.58 25.902a4.39 4.39 0 0 1-.34 1.686 4.35 4.35 0 0 1-.93 1.37c-.4.393-.85.702-1.4.927-.52.225-1.07.338-1.66.338h-17.26c-.6 0-1.16-.113-1.7-.338a4.34 4.34 0 0 1-1.37-.927c-.4-.393-.7-.85-.93-1.37a4.39 4.39 0 0 1-.34-1.686V219.48c0-.6.12-1.145.34-1.665a4.21 4.21 0 0 1 .93-1.369c.4-.394.85-.703 1.37-.928.53-.24 1.1-.358 1.7-.358h17.26c.6 0 1.14.12 1.66.358a4.2 4.2 0 0 1 1.39.928c.4.38.7.836.93 1.37.22.52.34 1.075.34 1.665v21.582zm-21.58-21.582v21.582h17.26V219.48h-17.26zm59.57 25.903h-4.32V215.16h4.32l18.17 23.436V215.16h4.32v30.223h-4.32l-18.17-23.437v23.437zm60.46-12.94c-.6 0-1.15-.112-1.68-.337-.52-.24-.98-.548-1.37-.928-.4-.393-.7-.85-.93-1.37-.22-.534-.34-1.096-.34-1.687v-8.64c0-.6.12-1.145.34-1.665.23-.533.53-1 .93-1.37.4-.394.85-.703 1.37-.928a4.04 4.04 0 0 1 1.68-.358h14.67a3.96 3.96 0 0 1 1.67.358c.53.225 1 .534 1.4.928a4.21 4.21 0 0 1 .93 1.369 4.23 4.23 0 0 1 .33 1.665v3.9h-4.32v-3.9h-14.67v8.64h14.67a4.17 4.17 0 0 1 1.67.338 4.32 4.32 0 0 1 1.39.927c.4.393.7.857.93 1.39a4.23 4.23 0 0 1 .33 1.665v8.62c0 .6-.1 1.152-.33 1.686-.23.52-.54.977-.93 1.37a4.32 4.32 0 0 1-1.39.927 4.17 4.17 0 0 1-1.67.338h-15.1c-.6 0-1.15-.113-1.68-.338a4.34 4.34 0 0 1-1.37-.927 4.19 4.19 0 0 1-.93-1.37c-.23-.534-.34-1.096-.34-1.686v-3.878h4.32v3.878h15.1v-8.62h-14.67z" fill="url(#J)"/><defs><linearGradient id="A" x1=".516" y1=".466" x2="329.718" y2="329.669" xlink:href="#K"><stop offset=".162" stop-color="#b4822b"/><stop offset=".483" stop-color="#fcefa3"/><stop offset=".842" stop-color="#b4822b"/></linearGradient><linearGradient id="B" x1="165.123" y1="29.095" x2="165.123" y2="301.044" xlink:href="#K"><stop stop-color="#b4832c"/><stop offset=".505" stop-color="#fdf0a6"/><stop offset="1" stop-color="#b4822b"/></linearGradient><linearGradient id="C" x1="163.922" y1="93.502" x2="163.922" y2="236.633" xlink:href="#K"><stop stop-color="#b7872f"/><stop offset=".234" stop-color="#f5cb58"/><stop offset=".461" stop-color="#fef1aa"/><stop offset=".734" stop-color="#ebc761"/><stop offset="1" stop-color="#b5852d"/></linearGradient><linearGradient id="D" x1="397.689" y1="142.329" x2="519.652" y2="142.329" xlink:href="#K"><stop stop-color="#b3812a"/><stop offset="1" stop-color="#cfab52"/></linearGradient><linearGradient id="E" x1="552.352" y1="142.683" x2="653.675" y2="142.683" xlink:href="#K"><stop stop-color="#d8ba60"/><stop offset="1" stop-color="#f0dd82"/></linearGradient><linearGradient id="F" x1="692.494" y1="142.19" x2="803.97" y2="142.19" xlink:href="#K"><stop stop-color="#f6e690"/><stop offset="1" stop-color="#fceea2"/></linearGradient><linearGradient id="G" x1="830.937" y1="142.319" x2="960.427" y2="142.319" xlink:href="#K"><stop stop-color="#f8e997"/><stop offset="1" stop-color="#e1c76c"/></linearGradient><linearGradient id="H" x1="986.326" y1="143.398" x2="1096.39" y2="143.398" xlink:href="#K"><stop stop-color="#dabd63"/><stop offset="1" stop-color="#c39940"/></linearGradient><linearGradient id="I" x1="1135.24" y1="142.319" x2="1163.29" y2="142.319" xlink:href="#K"><stop stop-color="#b88932"/><stop offset="1" stop-color="#b3812a"/></linearGradient><linearGradient id="J" x1="692.492" y1="234.377" x2="1163.29" y2="234.377" xlink:href="#K"><stop stop-color="#fff3ad"/><stop offset="1" stop-color="#f9eea9"/></linearGradient><linearGradient id="K" gradientUnits="userSpaceOnUse"/></defs></svg>