<svg xmlns="http://www.w3.org/2000/svg" xmlns:xlink="http://www.w3.org/1999/xlink" width="500" height="335" fill="none" xmlns:v="https://vecta.io/nano"><g clip-path="url(#A)"><path d="M492.638 130.423C473.703 55.968 408.278 2.22 331.483.066c-40.6-1.14-83.32 12.325-114.425 59.444-55.603 84.23 3.416 142.435 44.563 170.093a257.49 257.49 0 0 1 53.218 47.832c27.793 32.98 81.26 73.965 144.94 9.75 46.154-46.543 45.47-107.166 32.86-156.76z" fill="#f2f2f2"/><g fill="#3f3d56"><path d="M428.484 334.278c39.2 0 70.96-4.582 70.96-10.235s-31.77-10.234-70.96-10.234-70.96 4.582-70.96 10.234 31.77 10.235 70.96 10.235zM368.442 35.48H0v223.697h368.442V35.48z"/></g><g fill="#f9a826"><use xlink:href="#B"/><path d="M12.747 43.485a2.66 2.66 0 1 0 0-5.32 2.66 2.66 0 1 0 0 5.32zm6.798 0a2.66 2.66 0 1 0 0-5.32 2.66 2.66 0 1 0 0 5.32z"/></g><path d="M68.877 118.543c17.26 0 31.252-13.992 31.252-31.252S86.137 56.04 68.877 56.04 37.626 70.03 37.626 87.29s13.992 31.252 31.252 31.252z" fill="#f2f2f2"/><use xlink:href="#C" fill="#f9a826"/><g fill="#f2f2f2"><path d="M134.465 174.88H3.3v4.523h131.175v-4.523zm0 12.746H3.3v4.523h131.175v-4.523zm0 12.747H3.3v4.524h131.175v-4.524zm0 12.747H3.3v4.523h131.175v-4.523zm0 12.748H3.3v4.524h131.175v-4.524zm0 12.748H3.3v4.523h131.175v-4.523z"/></g><g fill="#f9a826"><use xlink:href="#D"/><path d="M364.74 63.852H155.436v.822H364.74v-.822zm0 8.225H155.436v.822H364.74v-.822zm0 8.223H155.436v.822H364.74V80.3zm0 8.225H155.436v.822H364.74v-.822zm0 8.225H155.436v.822H364.74v-.822zm0 8.223H155.436v.823H364.74v-.823zm0 8.224H155.436v.823H364.74v-.823zm0 8.225H155.436v.822H364.74v-.822zm0 8.224H155.436v.822H364.74v-.822zm0 8.224H155.436v.822H364.74v-.822z"/><path d="M173.118 126.356h-13.98v3.3h13.98v-3.3zm22.617-7.813h-13.98v3.3h13.98v-3.3zm22.615-16.448h-13.98v3.3h13.98v-3.3zm22.618 7.813h-13.98v3.3h13.98v-3.3zm22.616-16.038h-13.98v3.3h13.98v-3.3zm22.616 16.038h-13.98v3.3h13.98v-3.3zm22.617-24.26h-13.98v3.3h13.98v-3.3zM331.433 69.6h-13.98v3.3h13.98v-3.3zm22.617 8.224h-13.98v3.3h13.98v-3.3z"/><path opacity=".1" d="M340.07 80.3v33.102h-8.636v-42.15h-13.98v42.15h-8.635V87.29h-13.98v26.112h-31.252V95.516h-13.98v17.887H226.78v8.02h-8.43V103.74h-13.98v17.682h-22.616v8.224h-22.617v9.046H354.05V80.3h-13.98z"/></g><g fill="#f2f2f2"><path d="M213.124 168.72a5.7 5.7 0 0 0-.373-1.427.65.65 0 0 0-.121-.237c-.057-.07-.127-.126-.207-.167a.68.68 0 0 0-.326-.004l-1.673.256a.65.65 0 0 0-.382.148c-.218.23-.003.6-.01.915a.86.86 0 0 1-.666.739 2.5 2.5 0 0 1-1.058-.013l-2.34-.363a3.86 3.86 0 0 0 1.769-1.181c.308-.365.472-1.046.027-1.22a1.09 1.09 0 0 0-.406-.032c-1.06.008-1.894-.877-2.886-1.25a3.19 3.19 0 0 0-3.592 1.071l1.246.06a.55.55 0 0 1 .332.09c.273.224-.066.655-.028 1.006.05.457.656.554 1.113.6s1.037.417.817.82c-2.297.8-4.634-1.546-7.046-1.258a14.22 14.22 0 0 0-1.782.463c-3.64.92-7.405-1.537-11.124-1.016-.827.14-1.64.355-2.428.64a3.27 3.27 0 0 0-1.402.732 1.12 1.12 0 0 0-.346.694 1.13 1.13 0 0 0 .186.753 8.14 8.14 0 0 1-2.855-.271 1.59 1.59 0 0 1 .604.592 1.6 1.6 0 0 1 .218.818c-1.5.244-2.96.7-4.34 1.323a7.35 7.35 0 0 0 .898 1.197l-1.898 1.22c.155.05.296.134.414.246a1.07 1.07 0 0 1 .266.401 1.08 1.08 0 0 1 .067.477c-.014.162-.064.32-.147.46.665-.296 1.077-1.062 1.788-1.217a2.41 2.41 0 0 1 1.382.268 2.16 2.16 0 0 0 1.385.219c.458-.135.795-.728.505-1.106a23.64 23.64 0 0 1 6.013-.939.75.75 0 0 1 .455.086c.265.184.195.58.18.903s.237.746.525.6c-.34.294-.05.847.276 1.156s.717.736.518 1.138c-.052.105-.14.2-.2.295-.148.312.087.676.363.884.303.167.575.383.807.64.192.287.105.8-.24.83l-.975-1.238c-.334.345-.562.778-.66 1.25a2.62 2.62 0 0 1 .324 3.584 8.97 8.97 0 0 1-1.622 1.242 2.28 2.28 0 0 0-.722.7 2.2 2.2 0 0 0-.334.956c.002 1.18-.094 2.276.348 3.37a51.81 51.81 0 0 0 2.818 5.879c.28.5.64 1.045 1.204 1.13-.714-1.738-1.356-3.502-1.928-5.294a1.23 1.23 0 0 1 .549.047c.177.058.338.156.47.286.13.28.198.583.198.892.072.293.2.573.353.828l3.408 6.07a2.51 2.51 0 0 0 1.147 1.247 6.5 6.5 0 0 1 1.062.294c.25.147.417.408.67.546.718.392 1.716-.36 2.387.1a6.25 6.25 0 0 1 .49.5c.62.537 1.636.177 2.352.578a2.79 2.79 0 0 1 .946 1.241c.616 1.172 1.612 2.32 2.932 2.413a8.21 8.21 0 0 1 1.244.042c.405.093.804.446.74.857-.1.704.237 1.475.143 2.18-.17 1.287-1.996 1.853-2.152 3.142a7.57 7.57 0 0 1-.048.85c-.082.34-.337.614-.427.95-.17.637.286 1.272.787 1.7s1.1.8 1.375 1.4c.3.635.148 1.375.242 2.066.206 1.5 1.5 2.63 2.85 3.35.43.18.8.46 1.113.814.345.498.3 1.154.426 1.75.282 1.456 1.508 2.656 1.543 4.14.025 1.055-.56 2-.9 3.006a7.01 7.01 0 0 0-.348 2.97 7 7 0 0 0 .92 2.843c.3.425.544.872.76 1.34.33.855.223 1.828.528 2.693.403 1.143 1.5 2.088 1.404 3.295.503 1.044 1.613 1.557 2.73 1.868l2 .557c.376.136.777.183 1.174.137a.88.88 0 0 0 .752-.798 7.3 7.3 0 0 1-2.802-1.054c-.8-.598-1.363-1.662-1.056-2.62.142-.444.445-.957.157-1.324-.165-.2-.466-.265-.652-.457-.12-.17-.18-.375-.177-.583a.99.99 0 0 1 .195-.578 3.92 3.92 0 0 0 .594-1.091c.042-.228.014-.464-.08-.676a1.14 1.14 0 0 0-.452-.508 2.97 2.97 0 0 0 1-.635.96.96 0 0 0 .26-.52c.03-.196.002-.396-.084-.574.608.077 1.326.115 1.725-.35.138-.203.225-.436.255-.68a1.54 1.54 0 0 0-.084-.721 5.91 5.91 0 0 1-.345-1.422 25.91 25.91 0 0 0 4.205-.143c-.202-.68-.66-1.254-1.28-1.6.632-.107 1.208-.863 1.408-1.473a3.78 3.78 0 0 0 .025-1.901c-.047-.162-.054-.333-.02-.498.102-.218.28-.4.5-.484l3.138-1.802a1.82 1.82 0 0 0 .501-.37 1.48 1.48 0 0 0 .244-.709 1.49 1.49 0 0 0-.132-.738 7.26 7.26 0 0 1-.503-1.431c-.194-1.504 1.416-2.583 1.96-4a6.07 6.07 0 0 0 .298-1.753c.044-.638.047-1.378-.442-1.8-.47-.394-1.203-.306-1.694-.672-.45-.336-.606-1-1.097-1.26-.447-.246-1.007-.1-1.504-.206-.875-.204-1.425-1.212-2.318-1.305-.504-.053-1.075.194-1.488-.1-.364-.258-.378-.778-.448-1.22-.12-.686-.45-1.318-.94-1.8s-1.123-.824-1.808-.947c-.52-.084-1.085-.052-1.527-.338-.448-.3-.653-.83-1.005-1.23-.567-.645-1.46-.874-2.295-1.07l-3.4-.8c-.604-.14-1.382-.217-1.706.312a2.45 2.45 0 0 0-.202.635 1.96 1.96 0 0 1-.698.996c-.332.25-.735.388-1.15.395-.285-.486-.747-.843-1.3-.997a8.24 8.24 0 0 1-1.043-.248 1.48 1.48 0 0 1-.469-.362c-.13-.15-.227-.327-.287-.518a1.49 1.49 0 0 1-.06-.59 1.48 1.48 0 0 1 .179-.564 1.82 1.82 0 0 0-.312-2.193c-.308-.238-.66-.413-1.036-.515s-.768-.128-1.154-.078c-.203-.443.136-.943.502-1.265s.8-.64.9-1.12c.126-.757-.84-1.33-1.573-1.106s-1.2.938-1.5 1.64c-.148.414-.353.807-.608 1.166a1.2 1.2 0 0 1-1.156.474c-.603-.155-.836-.872-.97-1.48a9.65 9.65 0 0 1-.322-2.479 3.24 3.24 0 0 1 .935-2.257c1.003-.922 2.542-.83 3.896-.684-.145-.193-.215-.432-.197-.673a.99.99 0 0 1 .299-.634 1.48 1.48 0 0 1 .632-.333 1.49 1.49 0 0 1 .715.002 1.85 1.85 0 0 1 1.043.624c.385.47.494 1.102.785 1.635s.945.986 1.48.7c.462-.247.536-.888.42-1.4a5.2 5.2 0 0 1-.318-1.53c.08-.997 1.113-1.597 2.025-2.008s1.955-.962 2.1-1.952a1.75 1.75 0 0 1 .108-.567c.1-.16.242-.293.408-.384 2.66-1.758 5.367-3.538 8.408-4.5.158-.05.177.005.338-.034.226-.13.076-.5-.14-.637s-.506-.256-.56-.5c-.04-.188.07-.37.1-.56.007-.114-.014-.23-.06-.333a.69.69 0 0 0-.21-.266.7.7 0 0 0-.31-.136.69.69 0 0 0-.338.026c-.244-.324.24-.7.63-.807 1.174-.323 2.38-.52 3.594-.588.14-.022.284.003.4.07a.49.49 0 0 1 .034.667 4.01 4.01 0 0 1-.551.499 1.5 1.5 0 0 0-.389 1.51c.635.323 1.325.655 2.027.542s1.327-.904.997-1.535c-.308-.587-1.232-.72-1.4-1.363-.186-.754.88-1.424.64-2.162-.105-.323-.427-.514-.674-.747-.292-.286-.5-.654-.57-1.055s-.035-.817.126-1.193a2.56 2.56 0 0 1-2.243-.702c-.536-.54-.964-1.395-1.726-1.37-.7.022-1.3.838-1.955.6-.16-.06-.33-.186-.486-.113a.41.41 0 0 0-.125.13.39.39 0 0 0-.056.171c-.167.795.12 1.7-.314 2.386-.47.747-1.56.85-2.13 1.524-.3.365-.43.858-.715 1.243s-.9.63-1.232.295a1.7 1.7 0 0 0 .13-1.113 1.69 1.69 0 0 0-.591-.951c-.317-.207-.66-.374-1.018-.496-.402-.17-.783-.382-1.138-.634-.178-.107-.323-.262-.418-.447-.075-.23-.065-.482.028-.707a2.9 2.9 0 0 1 .885-1.273 2.89 2.89 0 0 1 1.415-.633c.456-.062.986-.04 1.287-.387.16-.184.243-.46.474-.536.148-.03.302-.01.438.054l1.7.598a1.19 1.19 0 0 0 .605.1c.103-.013.196-.066.262-.146a.41.41 0 0 0 .093-.285c-.054-.282-.5-.417-.45-.702a.47.47 0 0 1 .142-.239 6.07 6.07 0 0 1 4.818-1.903c.215.352-.124.77-.406 1.07s-.5.838-.168 1.07a.93.93 0 0 0 .452.1c.42.057.825.18 1.204.366a22.2 22.2 0 0 1 1.728.84 2.2 2.2 0 0 1 .044-1.113.75.75 0 0 1 .892-.486c.338.13.5.578.87.62.48.055.67-.654.47-1.094s-.598-.807-.63-1.3c-.022-.325.102-.728-.158-.925a.71.71 0 0 0-.306-.107l-6.483-1.193c-.385-.07-.94-.016-.958.375-.01.218.185.434.1.635-.092.214-.395.194-.615.27a.85.85 0 0 0-.388.362c-.088.16-.12.343-.093.522.06.358.198.698.406.996-.422-.176-1.06-.208-1.482-.385zm-5.172-5.502a2.09 2.09 0 0 0-1.262-.018c-.412.123-.777.37-1.044.708-.063.063-.106.142-.125.228a.46.46 0 0 0 .018.259c.128.218.454.132.695.054a1.75 1.75 0 0 1 1.098-.027c.226.078.428.215.655.3.1.046.232.06.35.044a.65.65 0 0 0 .323-.143c.134-.18.193-.405.166-.628a.49.49 0 0 0-.018-.222.5.5 0 0 0-.111-.193.65.65 0 0 0-.298-.088 1.03 1.03 0 0 1-.6-.351m2.49-.574a.54.54 0 0 0-.265.054.53.53 0 0 0-.251.698 2.15 2.15 0 0 0 .863.056c.144-.022.278-.087.385-.185a.73.73 0 0 0 .218-.368c-.34.062-.7-.005-.983-.188m7.875-1.154a9.88 9.88 0 0 0-2.213.752 1.66 1.66 0 0 1 .806.659 1.67 1.67 0 0 1 .256 1.011c-.03.136-.027.278.01.412.08.197.316.27.523.322.372.113.76.163 1.15.147a1.18 1.18 0 0 0 .549-.17c.166-.102.305-.243.402-.412a4.36 4.36 0 0 1 .198-.467c.496-.756 1.97.158 2.504-.572.187-.258.17-.645.415-.85.126-.1.273-.145.427-.163a29.97 29.97 0 0 1 3.242-.462c.516-.045 1.188-.23 1.192-.747a8.98 8.98 0 0 0-5.729.77c-.64.32-1.483.993-2.098.57-.23-.16-.22-.586-.536-.765a1.61 1.61 0 0 0-1.097-.035h0zm6.352 1.188l.912.175a1.2 1.2 0 0 0-.492.083 1.19 1.19 0 0 0-.413.279 1.2 1.2 0 0 0-.262.424c-.056.158-.077.327-.063.494.854.286 1.785.008 2.684.046s1.946.68 1.793 1.567c-.047.27-.202.537-.12.797.087.17.2.33.308.48a1.08 1.08 0 0 1 .057.584c-.036.196-.125.378-.258.526-.24.318-.56.572-.77.9-.52.84-.225 1.926.085 2.865a2.53 2.53 0 0 0 .486.97c.46.5 1.2.532 1.88.542.488.007 1.048-.017 1.357-.396.403-.494.12-1.265.387-1.845.24-.527.855-.753 1.412-.913 1.03-.253 2.042-.582 3.023-.987 1.198-.55 2.317-1.4 3.633-1.48a4.91 4.91 0 0 0 1.103-.077.84.84 0 0 0 .465-.275.83.83 0 0 0 .2-.502c-.023-.315-.3-.547-.498-.784s-.37-.603-.18-.854l3.45-.645c-.244-.666-.435-1.544.127-1.977.203-.157.474-.22.647-.408a.84.84 0 0 0-.193-1.153 2.22 2.22 0 0 0-1.234-.374c-1.516-.1-3.035-.077-4.55.04l-8.887.487c-.616-.025-1.233.037-1.83.186-.423.237-.865.438-1.322.6-.978.205-2.054.066-2.938.615zm16.334 7.207c-.093-.015-.188.007-.265.06a.34.34 0 0 0-.087.205c-.058.335.012.68.197.967.094.14.224.253.377.326a.95.95 0 0 0 .49.09c.4-.053.713-.403 1.1-.574.58-.263 3.052-.673 1.343-1.596-.6-.32-.97-.038-1.434.172-.528.27-1.12.4-1.712.35h0zm14.97-7.728c-.2.08-.366.226-.475.413-.05.095-.06.205-.032.308s.097.2.2.245c.074.027.153.04.233.037l.8.024c.345.01.775.084.868.416.07.247-.085.564.1.74a.52.52 0 0 0 .276.108c.267.068.546.077.817.026.6-.158.28-.52.466-.84.285-.5.235-.193.737-.475.37-.207.848-.584.54-1.114-.537-.92-3.737-.284-4.53.112zm16.015-.464l-.47.063c-1.066.112-2.122.314-3.154.604a5.27 5.27 0 0 0 1.38.34c.26.013.52.05.774.1.452.135.908.482 1.344.304.27-.1.36-.392.584-.54.154-.104.742-.27.808-.375.53-.84-.858-.558-1.266-.504zm2.068 2.142a8.86 8.86 0 0 0-1.739 1.273c-.122.1-.224.206-.298.338a1.06 1.06 0 0 0-.129.432c.027.403.456.637.828.794l1.506.638c.183-.257.016-.613-.173-.866s-.414-.546-.33-.85c.095-.348.52-.466.874-.526.58-.098 2.14-.1 1.953-1.023-.22-1.1-1.9-.535-2.492-.2zm-.302 62.218a1.46 1.46 0 0 0-.102.644 1.44 1.44 0 0 0 .193.623c.153.195.358.34.592.422s.486.092.726.033a2.38 2.38 0 0 0 1.223-.786 4.23 4.23 0 0 0 .703-1.079 8.4 8.4 0 0 0 .521-1.908l.468-2.455c.105-.55.1-2.23-.908-1.683-.276.15-.913 1.332-1.202 1.667-.52.605-.6 1.2-.863 1.923-.344.917-1.033 1.68-1.35 2.6zm53.272 12.565a7.26 7.26 0 0 1-.96-.456c-.3.85-.473 1.745-.486 2.648l2.26-1.278c.34-.192.724-.46.717-.85a.27.27 0 0 0-.125-.245c-.05-.02-.105-.026-.158-.018a3.84 3.84 0 0 0-.956.307 1.21 1.21 0 0 1-.487.11c-.167.002-.335-.034-.488-.104m12.596.645a5.05 5.05 0 0 0-.725.26c-.518.264-.87.765-1.337 1.112-.464.3-.974.542-1.5.692-.032.04-.055.085-.07.135s-.016.1-.008.15.027.098.055.14.064.08.107.107c.18.103.4.15.596.134.548.06 1.1-.026 1.605-.247a5.15 5.15 0 0 0 .756-.6 8.01 8.01 0 0 1 1.902-1.076 2.18 2.18 0 0 0 .663-.396c.42-.413.45-1.05-.156-1.2-.488-.113-1.413.628-1.878.778z"/><path d="M344.016 235.93a1.87 1.87 0 0 0-.11-.838 1.88 1.88 0 0 0-.466-.706 2.93 2.93 0 0 1-.343 1.644c-.228.335-.585.562-.835.88a.86.86 0 0 0-.067 1.105 1.1 1.1 0 0 0 .65.223c.583.07 1.257.107 1.666-.314.223-.23.332-.57.604-.74a.73.73 0 0 0 .265-.19c.112-.18-.067-.414-.268-.48s-.422-.034-.624-.095-.387-.288-.284-.472m-9.544-20.862c-.306.074-.622.093-.935.055a3.38 3.38 0 0 1-1.341-.807 5.92 5.92 0 0 0-3.458-1.208c-1.138-.02-2.287.287-3.405.072.055.2.155.384.292.54a1.35 1.35 0 0 0 .5.353c.37.18.78.272 1.153.45a2.75 2.75 0 0 1 1.333 1.387 3.9 3.9 0 0 0 .378.829c.215.226.482.396.778.496a1.91 1.91 0 0 0 .919.073c.8-.053 1.657-.286 2.4.016a6.17 6.17 0 0 1 1.472 1.128c.48.393 1.16.684 1.713.4a2.83 2.83 0 0 1-1.96-2.725c.543.05 2.105.03 2.02-.9-.07-.78-1.405-.252-1.87-.168zm-7.095 6.355c.096-.528.623-.994.46-1.506a.93.93 0 0 0-.894-.536c-.372-.008-.736.102-1.108.113a5.32 5.32 0 0 0-.725.01c-.736.12-1.2.893-1.885 1.168a11.43 11.43 0 0 1-1.336.251c-.996.262-1.627 1.203-2.324 1.963-1.126 1.22-2.592 2.077-4.2 2.455a3.86 3.86 0 0 0-1.627.583c-.596.488-.743 1.324-.876 2.082-.366 2.096-.927 4.153-1.674 6.146l2.367.302a3.2 3.2 0 0 0 1.35-.02c.315-.12.614-.278.888-.473 1.054-.654 2.234-1.08 3.463-1.25a3.67 3.67 0 0 1 1.851.13 1.72 1.72 0 0 1 .757.531c.2.243.328.535.373.846.25-.08.52-.087.775-.025a1.45 1.45 0 0 1 .678.378 2.53 2.53 0 0 1 .694 1.385c.062.324.125.712.425.848.245.1.526-.01.795-.03.9-.073 1.665.988 2.56.805.96-.196 1.195-1.632 2.13-1.92.537-.165 1.3.036 1.548-.464.227-.44-.225-.95-.18-1.443.058-.608.775-.865 1.327-1.125.936-.483 1.653-1.306 2.003-2.3s.3-2.084-.117-3.048c-.547-1.12-1.623-2.002-1.822-3.232-.153-.947.22-2.05-.383-2.797-.307-.38-.827-.588-1-1.04a5.15 5.15 0 0 1-.131-.908c-.062-.3-.324-.616-.62-.538-.863.227-1.138 2.9-1.6 3.538a1.08 1.08 0 0 1-.597.431c-.244.068-.504.048-.735-.057a1.07 1.07 0 0 1-.524-.517 1.08 1.08 0 0 1-.066-.734h0zm-15.938-5.35c-.286-.114-.602-.13-.9-.045-.282.118-.447.532-.22.738a30.43 30.43 0 0 1 5.314.103c2.025.277 4.03.964 6.063.762a30.84 30.84 0 0 0-3.537-.821l-2-.38c-.534-.112-1.074-.195-1.617-.25-1.136-.094-1.996.207-3.113-.107zm1.775-6.173c-.147-.012-.33-.023-.406.104-.073.12.01.28-.028.416-.054.185-.296.233-.488.207a.94.94 0 0 0-.567.007.49.49 0 0 0-.184.242.48.48 0 0 0-.002.304 1.42 1.42 0 0 0 .328.522 5.37 5.37 0 0 0 .851.854c.6.45 1.434.666 1.818 1.32a.89.89 0 0 0 .243.327.68.68 0 0 0 .319.045.66.66 0 0 0 .304-.108l.695-.318a.79.79 0 0 0 .325-.221.71.71 0 0 0-.072-.754 1.3 1.3 0 0 1-.275-.739c.05-.474.66-.656.912-1.062s.088-.937.118-1.417c.034-.562.387-1.292-.18-1.712-.483-.357-.944-.027-1.3.367-.73.83-1.076 1.73-2.42 1.617zm4.22-8.393c.237.455.732.726 1 1.17.28.48.25 1.1.553 1.564.312.477.94.73 1.116 1.273.2.593-.243 1.313.103 1.83a.78.78 0 0 0 .855.263.77.77 0 0 0 .272-.159.83.83 0 0 0-.034-1.153c-.205-.187-.5-.268-.67-.486-.1-.126-.148-.27-.173-.422-.093-.44-.078-.894.043-1.325a.59.59 0 0 0 .034-.347c-.077-.223-.38-.24-.593-.343-.483-.236-.47-.917-.387-1.448-.056.353-1.314-.247-1.446-.448-.262-.397-.12-1.164-.17-1.603a1.25 1.25 0 0 0-.493 1.635h0zm-12.678 6.993c-.232-.26-.582-.532-.893-.375-.112.073-.194.183-.232.3a.58.58 0 0 0 .022.388 1.53 1.53 0 0 0 .507.604c.676.5 1.315 1.048 1.914 1.64 1.013 1.113 1.55 2.616 2.65 3.64.222.238.515.397.835.452a.64.64 0 0 0 .455-.11.65.65 0 0 0 .263-.387.94.94 0 0 0-.092-.383.93.93 0 0 0-.241-.312l-1.3-1.38a1.16 1.16 0 0 1-.333-.694c-.002-.262.237-.536.5-.47-.3-.08-.538-.593-1-.7-.378-.08-.47.154-.92-.04-.86-.368-1.533-1.52-2.135-2.193zm20.19-25.317a6.81 6.81 0 0 1-.726-.26c-.638-.2-1.482.277-1.397.938.056.44.465.735.7 1.116a2.47 2.47 0 0 1 .227.95c.012.33-.04.656-.157.964a1.49 1.49 0 0 1-.241.544 1.85 1.85 0 0 1-.572.412 7.64 7.64 0 0 0-2.238 1.9.56.56 0 0 0-.135.255c-.03.223.194.386.32.572.28.413.078.97.106 1.468a.4.4 0 0 0 .04.205.42.42 0 0 0 .135.16c.17.086.37-.06.463-.227.305-.553.075-1.44.648-1.708.108-.05.24-.07.3-.167.115-.15.005-.374.063-.555.087-.27.457-.283.742-.27a4.2 4.2 0 0 0 1.447-.192.97.97 0 0 0 .48-.278c.07-.117.118-.247.14-.382s.015-.274-.017-.407a10.72 10.72 0 0 0-1.264-3.856c.497.12 1.02.07 1.484-.142.243-.147.535-.586.414-.885-.2-.472-.535-.075-.962-.154zm-64.495 7.448a1.93 1.93 0 0 1 .013.973.66.66 0 0 1-.285.382.67.67 0 0 1-.468.094c-.244-.074-.385-.32-.558-.506-.963-1.04-3.137-.438-3.732-1.725-.243-.525-.078-1.154-.243-1.708a1.53 1.53 0 0 0-.592-.787 1.52 1.52 0 0 0-.948-.26c-.307.045-.606.134-.887.265a22.36 22.36 0 0 1-5.87 1.468 4.87 4.87 0 0 0-1.129.206 3.57 3.57 0 0 0-1.794 1.849c-.34.812-.755 1.6-1.24 2.325a10.28 10.28 0 0 1-2.102 1.796c-.285.184-.523.433-.693.727a2.3 2.3 0 0 0-.14 1.08l.15 4.452a4.03 4.03 0 0 0 .3 1.68c.32.64.953 1.06 1.4 1.624a3.18 3.18 0 0 1 .66 2.032c-.01.295-.038.643.2.828a.84.84 0 0 0 .47.135l6.022.493c1.06.087 2.234.23 2.926 1.037.326.38.588.93 1.088.97a4.03 4.03 0 0 0 .638-.087 1.57 1.57 0 0 1 .767.236c.23.143.42.345.55.584a3.64 3.64 0 0 1 .584 2.336c-.05.516-.2 1.018-.244 1.535-.13 1.968 1.538 3.678 1.57 5.65.02 1.16-.532 2.244-1.07 3.273.867 1.313.157 3.06.503 4.596.327 1.456 1.54 2.596 1.844 4.058.138.67.146 1.492.736 1.837a1.69 1.69 0 0 0 .833.167 11 11 0 0 0 5.004-1.139c.73-.362 1.485-.903 1.613-1.707.102-.65-.227-1.375.108-1.94.395-.666 1.406-.613 1.986-1.125.942-.83.208-2.415.6-3.6.343-1.076 1.524-1.647 2.1-2.612a4.6 4.6 0 0 0 .49-1.329 18.81 18.81 0 0 0 .5-3.387c.016-.694.067-1.387.153-2.076.63-3.92 4.507-6.545 5.766-10.312.12-.36.176-.84-.144-1.042-.2-.1-.405-.113-.6-.064l-2.776.35a1.91 1.91 0 0 1-1.027-.059.66.66 0 0 1-.376-.848c.47-.854-.498-1.934-.93-2.8a41.45 41.45 0 0 0-4.128-6.693c-.1-.108-.165-.246-.18-.393l.788.026c-.266-.955-.705-2-1.632-2.348a4.06 4.06 0 0 0-1.66-.098c-1.638.033-3.277-.1-4.888-.398zm4.9-21.508c.37.5.895.84 1.5 1 1.068.137 1.836-.968 2.325-1.927a.94.94 0 0 0 .314.635c.184.163.423.248.668.236a1.92 1.92 0 0 0 .739-.289 14.56 14.56 0 0 1 6.896-1.782.75.75 0 0 1 .127-.52.74.74 0 0 1 .442-.3c.5-.097.932.327 1.168.767a4.26 4.26 0 0 0 .76 1.28c.376.33 1.103.315 1.25-.162.143-.458-.335-.85-.73-1.12s-.814-.77-.547-1.17a35.57 35.57 0 0 1 6.136-.987 2.6 2.6 0 0 0 1.033-.178c.163-.07.298-.2.385-.343a.79.79 0 0 0 .098-.506 2.34 2.34 0 0 1-1.361-.089 2.33 2.33 0 0 1-1.08-.832c2.876-.237 5.935-.44 8.484.914.306.656-1.253 1.203-.836 1.795a.69.69 0 0 0 .3.18.77.77 0 0 0 .34.034 31.23 31.23 0 0 0 5.304-.202 7.11 7.11 0 0 1 1.93-.157c1.07.132 1.986.847 3.04 1.08a1.64 1.64 0 0 0 .65.055 1.62 1.62 0 0 0 .619-.206.8.8 0 0 0 .23-.226.82.82 0 0 0 .124-.297.78.78 0 0 0-.004-.323.82.82 0 0 0-.129-.295c1-.97 2.637-.73 3.944-.265s2.547 1.215 3.93 1.32c.993.074 2-.193 2.98-.023l1.793.55c1.14.32 2.344.25 3.527.267a24.7 24.7 0 0 1 8.808 1.75 2.64 2.64 0 0 1 .98.578c.137.134.23.306.27.494a.96.96 0 0 1-.052.56l-2.898-.424c.273.538.98.63 1.553.815s1.17.82.824 1.314c-.622-.198-1.185.423-1.5.995s-.696 1.256-1.348 1.3c-.583.03-1.3-.465-1.67-.022a11.31 11.31 0 0 1 1.34 2.144c.376.783.644 1.77.136 2.473a.64.64 0 0 1-.343.266c-.414.105-.684-.403-.98-.7a3.57 3.57 0 0 0-1.449-.679c-.507-.182-1.042-.54-1.082-1.077.018-.335.115-.662.282-.954a3.68 3.68 0 0 0 .28-1.649 1.87 1.87 0 0 0-.482-1.243 1.04 1.04 0 0 0-.596-.3.97.97 0 0 0-.642.163c-.163.135-.294.352-.506.36-.374.015-.662-.638-.963-.415a1.02 1.02 0 0 1-.14.684c-.9.782-2.28.45-3.44.728-.55.157-1.078.388-1.57.685a1.01 1.01 0 0 0-.448.376.69.69 0 0 0 .271.828c.27.166.574.27.9.304 1.413.268 2.847.682 3.963 1.6s1.847 2.408 1.494 3.802l-2.787-2.663.18 3.363c.018.22-.012.44-.088.647-.198.44-.737.587-1.2.684a.94.94 0 0 0-.365.153c-.1.077-.202.176-.27.3s-.113.243-.128.375a.96.96 0 0 0 .036.395 3.97 3.97 0 0 0 .97 1.397 2.68 2.68 0 0 1 .809 1.476c.05.57-.38 1.2-.95 1.17a1.26 1.26 0 0 1-.938-.809 5.1 5.1 0 0 0-.571-1.162c-.838-1.008-2.72-.576-3.472-1.65a1.69 1.69 0 0 0-.352 1.616.9.9 0 0 1 .6-.044.89.89 0 0 1 .491.347 7.47 7.47 0 0 1 .592 1.082c.278.482.72.9.76 1.464a4.89 4.89 0 0 0 .01.629 2.54 2.54 0 0 0 .551.859 2.47 2.47 0 0 1 .354 1.13c.024.4-.05.8-.214 1.164a6.93 6.93 0 0 1-1.352 1.963c-.892 1.074-1.878 2.066-2.945 2.966a3.12 3.12 0 0 0-.836.84.91.91 0 0 0 .094 1.101c-.213.01-.594.115-.807.126a19.13 19.13 0 0 1-.05-2.567c-.84-.404-1.743.676-1.635 1.6s.777 1.668 1.254 2.468c.387.568.56 1.255.5 1.94-.047.338-.213.648-.47.874s-.584.353-.925.357c-1.08-.094-1.53-1.643-2.6-1.82a.44.44 0 0 0-.281.028c-.16.087-.186.3-.195.48a5.96 5.96 0 0 0 .264 2.628c.507 1.197 1.816 2.202 1.54 3.472-1.48-.688-2.248-2.346-2.597-3.94s-.407-3.266-1.033-4.772c-.475.6-1.474.106-1.9-.533-.4-.606-.665-1.307-1.064-1.92a2.37 2.37 0 0 0-1.743-1.198c-.767-.035-1.433.5-2.018 1-.5.377-.936.853-1.256 1.4-.4.823-.302 1.793-.322 2.712.042 1.002-.28 1.986-.9 2.768-.677.728-1.926.98-2.673.326a3.02 3.02 0 0 1-.747-1.344 65.9 65.9 0 0 1-2.021-7.217c-.126.557-.615 1.276-1.083.947a.86.86 0 0 1-.25-.32c-.872-1.478-2.487-2.365-4.12-2.896l-4.963-1.364a12.57 12.57 0 0 1-2.574-1.283c-.206.302-.326.654-.348 1.02a2.03 2.03 0 0 0 .224 1.052 1.65 1.65 0 0 0 .798.708c.337.14.7.166 1.063.07.36-.114.66-.363 1.017-.486a.79.79 0 0 1 .988.28c.15.328-.076.725.036 1.067.17.522.956.562 1.23 1.036a.96.96 0 0 1 .055.596c-.045.2-.155.378-.3.5a4.62 4.62 0 0 1-1.038.639c-1.157.644-1.98 1.742-3 2.597s-2.438 1.478-3.643.93c.287-1.455-1.446-2.522-1.765-3.97-.105-.476-.05-.982-.2-1.447-.217-.672-.814-1.135-1.303-1.644a6.45 6.45 0 0 1-1.36-2.17 6.26 6.26 0 0 1-.4-2.527 6.78 6.78 0 0 0 0-1.8 1.34 1.34 0 0 0-1.218-1.12c-1.367.06-3.1.162-3.806-1.003-.256-.416-.367-1.025.003-1.344.145-.092.308-.155.477-.184a1.3 1.3 0 0 1 .512.014l3.08.303c.72.07 1.5.13 2.117-.247s.886-1.376.314-1.82c-.42-.324-1.168-.306-1.3-.82-.102-.43.373-.915.116-1.273-.183-.257-.596-.186-.847.007a5.52 5.52 0 0 1-.712.62c-.5.255-1.078.012-1.607-.154s-1.238-.18-1.494.312c-.287.55.254 1.27-.03 1.82-.377.728-1.65.314-2.18.94-.607.72.412 1.8.208 2.707a1.66 1.66 0 0 1-.843.172 1.69 1.69 0 0 1-1.373-.92c-.123-.255-.17-.557-.14-.847.05-.412.266-.834.122-1.224a1.44 1.44 0 0 0-.728-.665l-2.992-1.654c-.278.515.073 1.154.512 1.542s1 .678 1.28 1.188a1.56 1.56 0 0 1-.586 2.056.36.36 0 0 1-.143.059.38.38 0 0 1-.154-.007c-.048-.028-.1-.065-.123-.1a.36.36 0 0 1-.07-.15c-.53-1.35-1.32-2.683-2.6-3.4s-3.1-.56-3.92.628c-.197.282-.33.604-.502.903-.913 1.586-2.872 2.338-4.702 2.3a.93.93 0 0 1-.514-.121c-.295-.204-.282-.638-.237-.994l.192-1.514a1.2 1.2 0 0 1 .335-.83c.34-.267.83-.1 1.26-.105a1.59 1.59 0 0 0 .9-.33 1.6 1.6 0 0 0 .549-.787c.087-.316.086-.65-.002-.965a1.79 1.79 0 0 0-.5-.825c-.198-.186-.464-.42-.36-.67a.55.55 0 0 1 .165-.174c.067-.045.143-.075.223-.087.776-.226 1.595-.285 2.358-.55a2.45 2.45 0 0 0 1.683-1.597c.055-.24.08-.533.297-.653a.88.88 0 0 1 .343-.07c.414-.06.8-.27 1.056-.593a1.72 1.72 0 0 0 .378-1.15 1.09 1.09 0 0 1 .648-.091c.22.036.423.14.583.295.314.318.686.572 1.096.748.802.218 1.577-.492 2.408-.495a3.13 3.13 0 0 0 1.04.004c.333-.12.532-.452.788-.697s.704-.395.94-.13l-.202-1.5a2.93 2.93 0 0 0 1.24.043c.412-.074.8-.236 1.145-.473l-2.6-.88a.56.56 0 0 1-.244-.13c-.2-.203-.001-.52.153-.752.367-.553.43-1.465-.175-1.74-.413-.188-.887.038-1.283.258l-1.897 1.058c-.06.36.38.565.654.808a1.1 1.1 0 0 1 .336.555c.054.215.04.44-.037.648a1.1 1.1 0 0 1-1.014.713 1.36 1.36 0 0 1 .254.552 1.35 1.35 0 0 1-.01.607l-1.276.1a.55.55 0 0 1-.414-.08c-.137-.122-.118-.334-.15-.514a1.11 1.11 0 0 0-.344-.55c-.166-.146-.372-.238-.6-.266a3.3 3.3 0 0 0-1.307.12.78.78 0 0 1-.562-.013.56.56 0 0 1-.222-.28c-.075-.236-.087-.488-.037-.73a1.45 1.45 0 0 1 .327-.654 7.7 7.7 0 0 1 1.088-1.001 6.33 6.33 0 0 0 1.886-2.925l2.133-1a6.53 6.53 0 0 1 3.508-.68l2.38.046a5.72 5.72 0 0 1 2.08.299 1.94 1.94 0 0 1 1.269 1.553c.013.08.006.16-.02.238s-.073.144-.133.198a.57.57 0 0 1-.301.068c-.657.023-.937.186-1.594.2zm-18.968 7.458a.7.7 0 0 0 .19-.701c-.226-.087-.472-.1-.7-.064s-.46.155-.638.32a2.28 2.28 0 0 0-.362.478c-.183.237-.314.5-.384.8a2.13 2.13 0 0 0-.024.889c.015.062.042.12.08.172s.085.095.14.128a.56.56 0 0 0 .256.04 8.23 8.23 0 0 0 1.03-.063c.2-.026.453-.085.535-.28.106-.257-.152-.548-.077-.816a.91.91 0 0 1 .22-.315c.048-.044.084-.098.106-.16a.41.41 0 0 0 .024-.19c-.03-.126-.223-.197-.292-.088m1.684-2.466c-.306-.07-.622-.1-.934-.06a.42.42 0 0 0-.2.045c-.06.044-.103.107-.123.178-.066.212-.05.44.046.64a.88.88 0 0 0 .468.44 1.1 1.1 0 0 1 .318.128c.265.205.096.624.146.955.056.37.416.682.35 1.052-.052.3-.363.522-.313.813.052.305.44.397.75.422a.96.96 0 0 0 .53-.06.82.82 0 0 0 .335-.485 3.11 3.11 0 0 0 .156-1.169 1.1 1.1 0 0 0-.132-.517c-.093-.126-.196-.244-.308-.353-.592-.688.03-1.714-1.1-2.03z"/></g><g fill="#f9a826"><path d="M197.258 180.894c1.097 0 1.985-.9 1.985-1.985s-.888-1.985-1.985-1.985-1.985.9-1.985 1.985.9 1.985 1.985 1.985zm17.934 42.438c1.096 0 1.985-.888 1.985-1.985s-.9-1.985-1.985-1.985-1.985.9-1.985 1.985.9 1.985 1.985 1.985zm76.046-42.712c1.097 0 1.985-.888 1.985-1.985s-.888-1.985-1.985-1.985-1.985.9-1.985 1.985.9 1.985 1.985 1.985z"/><use xlink:href="#E"/><path d="M261.326 209.095c1.096 0 1.985-.9 1.985-1.985s-.9-1.985-1.985-1.985-1.985.9-1.985 1.985.9 1.985 1.985 1.985zM80.618 107.6c.004 8.783-5.216 11.852-11.656 11.855a22.08 22.08 0 0 1-.447-.004 18.38 18.38 0 0 1-.886-.041c-5.813-.4-10.33-3.63-10.335-11.8C57.3 99.157 68.09 88.484 68.9 87.695v-.001l.047-.045S80.615 98.817 80.62 107.6z"/></g><path d="M68.536 118.113l4.262-5.962-4.273 6.616-.01.685-.886-.04.455-8.787-.004-.068.008-.013.043-.83-4.3-6.628 4.303 6.006.01.176.344-6.64-3.673-6.85 3.718 5.683.356-13.765-.055 10.855 3.65-4.305-3.666 5.24-.094 5.945 3.41-5.706-3.423 6.58-.052 3.306 4.948-7.944-4.967 9.097-.115 7.35z" fill="#3f3d56"/><g fill="#a0616a"><path d="M408.47 105.025s1.82 12.28 1.365 13.2 1.364 5.913 8.642 4.55 10.007-10.917 10.007-10.917-5.913-7.733-5.003-10.007l-15 3.184zm-2.047 192.18v15l9.552 3.184-1.82-20.47-7.733 2.274zm35.48 1.82l-1.365 18.65 8.188-5.003v-15l-6.823 1.365z"/></g><g fill="#2f2e41"><path d="M396.416 193.497s-5.913 10.462-4.094 13.646 1.82 4.548 1.82 4.548.9 24.563 7.278 36.4c0 0-1.365 23.198 1.364 37.3l2.73 14.1 10.462-1.365.9-15s1.82-17.74 0-25.927 5.004-35.48 5.004-35.48l11.826 39.574s.455 14.555 2.73 24.108 3.184 15 3.184 15l10.008.455s3.184-29.566 0-44.122c0 0-1.365-44.577 0-47.306s-1.365-11.372-4.094-13.2-49.126-2.73-49.126-2.73zm14.1 115.536s-.455-2.73-2.73-2.73h-2.274l-.455 3.64-8.188 8.188s-13.2 10.007-1.82 10.462 14.1-4.55 14.1-4.55 10.462-3.184 10.462-3.64-2.73-11.826-2.73-11.826l-1.486.337-1.243 3.302-3.64-3.184zm39.583 0s-5.003-1.82-5.003 0v1.82s-1.82-1.364-1.82 0-2.73 2.274-2.73 2.274l-.455-2.274s-2.73 10.917-1.364 11.827 5.913 3.184 6.368 4.548 1.365 6.368 10.917 4.55 3.64-7.278 3.64-7.278l-5.004-5.003-4.55-10.462z"/></g><path d="M413.7 109.8a12.74 12.74 0 0 0 12.736-12.736 12.74 12.74 0 0 0-12.736-12.736 12.74 12.74 0 0 0-12.736 12.736 12.74 12.74 0 0 0 12.736 12.736z" fill="#a0616a"/><path d="M415.975 120.263s-4.954-1.39-6.115-3.878-10.26 2.06-10.26 2.06l-3.184 40.028-1.137 35.252s22.97 8.87 30.25 6.14 15.92-4.094 15.92-4.094l1.365-68.23-2.275-12.736s-10.72-4.486-12.865-4.063c0 0-2.6 9.976-11.698 9.52z" fill="#d0cde1"/><path d="M409.502 112.757s-2.17 2.048-3.08 2.048-15.465.91-16.83 6.823 2.275 23.198 2.275 23.198.454 17.74 2.73 23.653.227 9.78.227 9.78-2.956 15.238-.227 16.602 8.157 3.458 8.157 3.458 7.308-8.006 5.034-19.378-5.46-27.747-3.64-33.205 5.353-32.98 5.353-32.98z" fill="#575a89"/><path d="M382.315 177.576l3.184 5.914s15.01 16.83 17.74 7.277-10.917-11.826-10.917-11.826l-4.093-4.094-5.914 2.73z" fill="#a0616a"/><path d="M427.014 109.8s17.163 2.274 21.712 6.823.9 25.928.9 25.928-5.46 32.75-5.004 34.57.455 17.285.455 17.285-5.913 6.368-10.917 4.55-11.372-15.01-5.003-30.93c2.675-6.69 2.38-13.218 1.137-18.54-3.08-12.988-4.2-26.365-3.3-39.683h0z" fill="#575a89"/><path d="M452.82 173.937l-4.55 4.094s-25.927.9-19.104 7.733 23.198 0 23.198 0l5.913-6.368-5.913-5.46h.455z" fill="#a0616a"/><path d="M403.446 83.61l-2.34-.937s4.895-5.39 11.705-4.92l-1.915-2.11s4.682-1.874 8.94 3.046c2.237 2.587 4.826 5.627 6.44 9.052h2.507l-1.046 2.304 3.662 2.304-3.76-.414a12.76 12.76 0 0 1-.355 5.967s-4.257-4.92-4.257-5.858v2.343s-2.34-2.11-2.34-3.515l-1.277 1.64-.64-2.577-7.874 2.577 1.277-2.11-4.895.703 1.915-2.577s-4.084 3.642-5.746 5.623c-2.254 2.685-4.257 3.515-4.257 3.515s-1.915-10.544 4.257-14.06z" fill="#2f2e41"/><g fill="#575a89"><path d="M393.232 119.808l-4.094 1.82S372.763 143.46 371.4 148s-2.73 15 10.46 31.386l8.188-4.094s-9.097-13.2-5.913-18.195 10.462-13.646 10.462-13.646l-1.365-23.653zm52.765-3.638l2.73.455s34.115 25.018 31.386 34.57-21.834 30.02-21.834 30.02l-7.28-6.823s15.92-18.65 9.552-23.198-14.555-12.28-14.555-12.28V116.17z"/></g></g><defs><clipPath id="A"><path fill="#fff" d="M0 0h500v334.278H0z"/></clipPath><path id="B" d="M5.95 43.485a2.66 2.66 0 1 0 0-5.32 2.66 2.66 0 1 0 0 5.32z"/><path id="C" d="M134.465 131.702H3.3v4.523h131.175v-4.523z"/><path id="D" d="M364.74 55.628H155.436v.822H364.74v-.822z"/><path id="E" d="M326.147 230.177c1.096 0 1.985-.89 1.985-1.985s-.89-1.985-1.985-1.985-1.985.89-1.985 1.985.89 1.985 1.985 1.985z"/></defs></svg>